<?xml version="1.0" standalone="no"?>
<!DOCTYPE svg PUBLIC "-//W3C//DTD SVG 1.1//EN" "http://www.w3.org/Graphics/SVG/1.1/DTD/svg11.dtd" >
<svg>
<metadata>
Created by FontForge 20090622 at Wed Mar 22 04:51:13 2017
 By deploy user
PereEsquerr
</metadata>
<defs>
<font id="Selfish" horiz-adv-x="204" >
  <font-face 
    font-family="Selfish"
    font-weight="400"
    font-stretch="normal"
    units-per-em="1000"
    panose-1="0 0 0 0 0 0 0 0 0 0"
    ascent="800"
    descent="-200"
    x-height="351"
    cap-height="510"
    bbox="-52.3333 -167.562 477.22 754.5"
    underline-thickness="50"
    underline-position="-100"
    unicode-range="U+0020-U+F8FE"
  />
<missing-glyph horiz-adv-x="364" 
d="M298 0h-265v666h265v-666zM66 633v-600h199v600h-199z" />
    <glyph glyph-name=".notdef" horiz-adv-x="364" 
d="M298 0h-265v666h265v-666zM66 633v-600h199v600h-199z" />
    <glyph glyph-name=".null" horiz-adv-x="0" 
 />
    <glyph glyph-name="nonmarkingreturn" horiz-adv-x="333" 
 />
    <glyph glyph-name="space" unicode=" " horiz-adv-x="300" 
 />
    <glyph glyph-name="exclam" unicode="!" horiz-adv-x="213" 
d="M150 131q-11 -37 -13 -83q0 -6 -18.5 -9.5t-19.5 4.5q0 52 14 97q2 2 11 2.5t18.5 -3t7.5 -8.5zM208 533q-27 -142 -41 -308q-1 -13 -21 -21q-18 -4 -18 8q15 169 39 314q3 14 24 18q9 1 13.5 -2t3.5 -9z" />
    <glyph glyph-name="quotedbl" unicode="&#x22;" horiz-adv-x="211" 
d="M206 503q-13 -71 -14 -131q0 -4 -9.5 -8.5t-18 -4.5t-10.5 6q2 74 13 138q2 8 23 8q16 -1 16 -8zM141 538l-17 -147q0 -7 -23 -10q-17 -2 -16 7l17 148q0 8 23 10q17 2 16 -8z" />
    <glyph glyph-name="numbersign" unicode="#" horiz-adv-x="368" 
d="M301 372q31 4 60 4q6 0 -8 -11q-5 -5 -4 -5q-14 4 -53 -1q-9 -26 -23 -80l69 11q15 2 20 -5q5 -5 -6 -7l-86 -15q-11 -53 -15 -104q-2 -14 -19 -21q-17 -8 -18 5q3 55 14 114q-26 -5 -47 -6q-7 -35 -17 -102q-1 -14 -22 -22q-18 -6 -18 8q8 59 18 111q-7 -1 -20 -1
q-15 -1 -20 7q-1 3 3 4q1 1 5 1l35 3q7 37 18 76q-2 0 -62 -11q-10 -1 -15 8q-1 4 3 4q1 1 3 1q7 1 76 13q25 86 63 158q8 14 27 10q16 -4 10 -16q-34 -63 -60 -144q6 1 16.5 2.5t18 3t13.5 2.5q17 48 37 88q6 13 26 8q16 -4 10 -14q-19 -38 -32 -77zM256 353l-48 -9
q-12 -42 -20 -79l47 7q7 42 21 81z" />
    <glyph glyph-name="dollar" unicode="$" horiz-adv-x="212" 
d="M132 525l-4 -88h1q30 7 44 -5q5 -6 -5 -6q-3 0 -6 1q-15 -4 -34 -11q-3 -84 -1 -196q59 -26 76 -49q10 -16 -4 -44q-15 -28 -44 -48q-13 -9 -24 -13q1 -32 5 -85q1 -12 -16 -23q-13 -9 -15 2q-5 35 -10 99h-16q-35 0 -43 9q-3 2 3 3q2 1 8 1q25 0 46 6q-4 67 -6 146
q-53 26 -77 50t-18 53q12 60 96 96l4 97q0 13 25 13q8 0 12 -2t3 -6zM127 203l3 -106q23 17 38 42q7 12 -4 30.5t-37 33.5zM87 237q-1 77 0 156q-16 -13 -31 -31q-25 -32 -25.5 -61t23.5 -45z" />
    <glyph glyph-name="percent" unicode="%" horiz-adv-x="288" 
d="M229 115q16 32 8 61l-2 3q-24 -27 -28 -95q1 7 16 -5q10 -8 3 -8q-26 2 -35.5 30t0 58t32.5 39q27 11 42 -25.5t-3 -67.5q-10 -13 -28 -4q-14 7 -5 14zM76 348q6 12 11 30t7 30l1 12q-18 -22 -28 -50t-3 -45q2 -5 10 -13q4 -4 4 -6l-3 1q-2 1 -3 1q-36 18 -32.5 69.5
t36.5 60.5q20 8 33 -10.5t12.5 -46.5t-15.5 -44q-9 -11 -26 -3q-15 6 -4 14zM282 564q-25 -59 -52 -137l-43 -126q-10 -30 -46 -147l-42 -134q-7 -23 -30 -28q-8 -2 -12.5 0.5t-3.5 9.5q0 3 1 4l53 170q76 253 129 378q9 23 34 25q14 2 14 -8q0 -1 -2 -7z" />
    <glyph glyph-name="ampersand" unicode="&#x26;" horiz-adv-x="270" 
d="M151 330q14 41 23 80q10 46 8 79t-17 32q-26 -2 -32 -77q-3 -40 10 -88q1 -4 3.5 -13t4.5 -13zM234 178q28 -39 21 -39q-4 0 -19 12q-6 5 -11 11q-42 -78 -66 -108q-20 -24 -50 -23q-31 1 -39 27q-6 7 -3 27t5 27t8.5 24t6.5 18l22 62l27 73q-18 35 -32 82
q-12 41 -9 81.5t21 63.5q14 17 41.5 19t47.5 -11q12 -8 16.5 -32t-1.5 -45q-16 -73 -49 -170q14 -32 31 -55q7 -7 11 -15q29 33 47 30q14 -2 -1 -21q-13 -17 -25 -38zM160 247q-19 -52 -32 -91q-17 -47 -18 -103l1 -6q16 17 44 68q25 46 43 72l3 4q-28 36 -41 56z" />
    <glyph glyph-name="quotesingle" unicode="'" horiz-adv-x="98" 
d="M94 569l-6 -121q0 -10 -20 -16q-18 -4 -18 6q0 48 5 120q1 13 21 19q18 4 18 -8z" />
    <glyph glyph-name="parenleft" unicode="(" horiz-adv-x="183" 
d="M156 557q-42 -135 -41 -284q2 -183 53 -282q17 -32 8 -30q-2 0 -6 4q-87 82 -93 305q-4 157 37 283q6 18 28 17q14 -2 15 -8q0 -4 -1 -5z" />
    <glyph glyph-name="parenright" unicode=")" horiz-adv-x="153" 
d="M87 564q65 -161 61 -251q-2 -31 -4 -43q-7 -48 -16 -82q-6 -24 -11 -39q0 -3 -2 -9l-5.5 -17l-6.5 -21l-12 -42q-7 -24 -31 -32q-8 -3 -12.5 -1t-3.5 9q1 2 1 5q1 2 6.5 19.5t9.5 31.5l15 54l12 44q15 55 19 93q13 102 -34 238q-11 33 -1 49q8 10 15 -6z" />
    <glyph glyph-name="asterisk" unicode="*" horiz-adv-x="273" 
d="M166 371q18 -28 50 -85q6 -10 -9 -22q-9 -8 -14 0q-19 40 -45 84l-41 -66q-4 -9 -26 -4q-14 3 -10 12l47 75l-30 -6q-10 -1 -17 5q-5 5 4 8q36 6 54 8v1q-19 32 -36 56q-6 9 4 22q6 9 12 1l36 -55l36 51q7 8 26 1q13 -4 7 -12l-41 -60q45 3 81 2q11 0 14 -8q1 -3 -2 -4
h-4q-63 0 -96 -4z" />
    <glyph glyph-name="plus" unicode="+" horiz-adv-x="226" 
d="M43 295l43 4v72q-1 16 19 25q17 8 17 -6l3 -89q49 1 87 -3q9 -2 9 -24q0 -20 -12 -18q-2 0 -8 2q-20 10 -74 7q3 -89 -5 -116v-4q0 -13 -2 -13q-1 0 -4 2q-30 25 -30 128q-27 -2 -37 -1q-9 0 -18 16q-10 19 7 19q3 0 5 -1z" />
    <glyph glyph-name="comma" unicode="," horiz-adv-x="127" 
d="M122 182l-19 -98q-13 -70 -24 -112q-2 -11 -25 -11q-7 1 -11 3.5t-3 7.5q11 46 23 111l19 98q2 11 25 11q8 0 12 -2.5t3 -7.5z" />
    <glyph glyph-name="hyphen" unicode="-" horiz-adv-x="307" 
d="M61 283l67 3q89 4 143 11q10 1 25 -15q18 -20 -7 -23q-36 -4 -107 -6q-70 -1 -105 -6q-11 -2 -24 14q-16 17 8 22z" />
    <glyph glyph-name="period" unicode="." horiz-adv-x="100" 
d="M90 178l6 -40q0 -3 -16.5 -8t-19.5 1l-5 40q0 1 3 3t8 3.5l10 3t9 1t5 -3.5z" />
    <glyph glyph-name="slash" unicode="/" horiz-adv-x="253" 
d="M21 -18q47 259 184 535q10 19 32 18q17 -2 10 -15q-139 -274 -187 -518q-4 -19 -24 -28q-15 -8 -15 8z" />
    <glyph glyph-name="zero" unicode="0" horiz-adv-x="181" 
d="M108 200q24 83 28 122q6 49 -2 79q-7 27 -24.5 42.5t-30.5 5.5q-50 -37 -45 -163q5 -105 31 -133q3 -3 18 -7q5 -2 8.5 -3t6 -2t3.5 -2t1 -2q-2 -2 -11 -3q-37 -3 -63 44q-24 46 -32 114q-11 107 41 158q16 16 44 18.5t45 -8.5q37 -14 47 -73q9 -59 -11 -138
q-14 -53 -42 -69q-15 -9 -15 5q-1 6 3 15z" />
    <glyph glyph-name="one" unicode="1" horiz-adv-x="132" 
d="M21 131h2q11 1 28 1v1v51q0 56 -1 72q-4 -12 -10 -32q-3 -11 -26 -11q-8 1 -11.5 3.5t-2.5 6.5q40 125 51 168q0 35 1 52q0 9 14 16t21 3q7 1 11.5 -1t3.5 -7q-3 -18 -13 -64q-1 -90 0 -241q0 -11 -12 -18q27 -3 46 -10q7 -3 4 -14q-2 -8 -8 -3q-26 16 -90 15
q-8 -2 -11 8q-1 3 3 4z" />
    <glyph glyph-name="two" unicode="2" horiz-adv-x="277" 
d="M4 323q12 58 44 113q4 6 10.5 17t9.5 15q22 31 40 40q22 9 44.5 -5t24.5 -40q7 -76 -14 -160.5t-65 -153.5q109 42 151 61q11 6 21 -4q7 -6 -2 -9q-22 -11 -99 -41l-81 -31q-4 -1 -10 0q-20 -14 -30 -5q-8 6 0 15q77 106 95 288q1 16 0.5 24t-2.5 20.5t-2 17.5
q0 18 -15 3q-3 -3 -6 -8l-5 -7q-50 -70 -66 -127q-8 -26 -27 -35q-14 -8 -16 12z" />
    <glyph glyph-name="three" unicode="3" horiz-adv-x="223" 
d="M16 395q18 54 49 77q19 15 46 25.5t45 10.5t23 -8q18 -71 -59 -174q20 6 37 3q30 -5 48 -29.5t13 -54.5q-8 -45 -49 -91q-28 -31 -59.5 -45.5t-55.5 -5.5q-15 6 -4 24q7 13 13 6l2 -3q7 -22 44 7q14 11 28 28q28 33 40 77q15 55 -1 68q-26 20 -80 -21l-2 -1q-3 -2 -5 -3
q-14 -11 -27 -1q-8 6 -4 12q59 81 92 183q3 11 -8 11q-17 -1 -46 -27q-28 -25 -38 -58q-4 -15 -25 -21q-9 -2 -13.5 0.5t-3.5 10.5z" />
    <glyph glyph-name="four" unicode="4" horiz-adv-x="145" 
d="M140 396q-19 -127 -21 -322q0 -11 -19 -18t-19 5q0 166 10 262q-27 -13 -54 -21h-1q-7 -13 -13 -7q-15 43 -7 81q7 29 8 34l14 40l13 34q4 9 26 5q13 -1 13 -8q0 -2 -1 -3q-6 -18 -19 -73q-11 -46 -23 -80q23 10 47 24q2 23 6 45q2 13 24 12q9 0 13 -2.5t3 -7.5z" />
    <glyph glyph-name="five" unicode="5" horiz-adv-x="197" 
d="M46 502l3 2q54 26 100 35q6 2 11 -6q5 -5 -4 -7q-34 -7 -81 -32q-11 -90 -15 -152q31 25 65 27q27 0 49 -22q23 -21 17 -51q-24 -123 -111 -170q-20 -11 -29 -2q-5 5 5 11q58 34 96 158q7 22 3 42.5t-17 21.5q-18 3 -38 -11t-29 -34q-6 -13 -27 -11q-8 -4 -16 -3t-8 7
q3 84 16 188q0 5 10 9z" />
    <glyph glyph-name="six" unicode="6" horiz-adv-x="141" 
d="M114 516l-2 -3q-40 -85 -60 -180q-13 -65 -14 -118q20 20 42 19.5t38 -23.5q35 -52 6 -114q-18 -20 -44 -19.5t-43 12.5q-5 3 -13 13q-15 -44 -23 -12q0 3 -1 4q-5 29 3 59q0 1 -1 2q-8 51 0 110q21 149 65 239q13 25 37 21q13 -1 10 -10zM40 162q2 -20 4 -31
q6 -34 24 -40q8 -2 15 7t11 25q16 67 6 86q-6 5 -16.5 2t-23.5 -17t-20 -32z" />
    <glyph glyph-name="seven" unicode="7" horiz-adv-x="183" 
d="M-5 441q97 63 137 103q4 4 21 -2q14 2 15 -7q13 -7 5 -15l-10 -8q-22 -90 -35 -173l29 10q8 2 17 -9.5t-3 -18.5q-21 -8 -50 -24q-14 -100 -20 -187q-1 -19 -22 -28q-9 -4 -13.5 -2t-3.5 10q4 84 17 184l-30 -15q-7 -4 -23 10q-13 14 0 21l30.5 15.5l28.5 14.5
q11 72 29 156q-31 -22 -46 -31q-32 -19 -45 -30q-8 -5 -24 8q-14 11 -4 18z" />
    <glyph glyph-name="eight" unicode="8" horiz-adv-x="200" 
d="M134 490q-76 -17 -95 -62q-7 -18 1.5 -44.5t31.5 -50.5l17 -18l11 17l23 36l24 37q40 61 29 78q-3 10 -24 35q-3 4 -2 5q1 0 13 -6q47 -23 27 -91q-16 -52 -62 -128l-9 -15q38 -39 56 -77q12 -25 6 -52q-6 -28 -29 -34q-27 -8 -54 -3q-28 4 -40 20q-41 47 18 155
q-3 3 -23 21.5t-27 25.5q-26 26 -32 54q-8 33 21 65q28 33 68 42q41 10 64 -5q11 -6 -1 -6q-3 -1 -12 1zM105 258q-41 -76 -30 -108q3 -10 24 -16q23 -6 37 1q6 3 7 8.5t-1 15.5t-2 15q-8 48 -35 84z" />
    <glyph glyph-name="nine" unicode="9" horiz-adv-x="211" 
d="M163 494q4 12 5 18q1 7 26 4q13 -3 13 -9q-15 -53 -38 -166q19 -2 4 -14l-8 -6q-20 -97 -30 -166q-1 -7 -17 -17q-9 -7 -10 0q-10 63 9 169q-13 0 -23 3q-21 7 -35 27.5t-13 44.5q3 39 27 71.5t60 47.5q17 6 27 -3q3 -2 3 -4zM155 489q-55 -32 -68 -85q-9 -35 2 -65
q8 -20 32 -14l42 167q-1 -1 -8 -3z" />
    <glyph glyph-name="colon" unicode=":" horiz-adv-x="114" 
d="M105 187q-4 -19 -4 -37q0 -6 -18.5 -9t-19.5 5q0 28 3 44q0 1 4 2.5t10 2t12 0.5t10 -2t3 -6zM109 304q0 -24 -1 -37q0 -1 -4 -2t-10 -2t-11.5 -1.5t-9.5 1t-4 4.5l2 37q0 5 24 6q15 0 14 -6z" />
    <glyph glyph-name="semicolon" unicode=";" horiz-adv-x="143" 
d="M124 151v-2q-52 -120 -68 -180q-3 -11 -25 -12q-17 0 -15 9q15 62 70 188q4 9 25 6q13 -1 13 -9zM139 294q-6 -28 -6 -52q0 -6 -17.5 -9.5t-20.5 4.5q0 33 5 60q2 6 24 6q16 -1 15 -9z" />
    <glyph glyph-name="less" unicode="&#x3c;" horiz-adv-x="222" 
d="M215 326q-107 -74 -148 -128q-1 -2 -12 -3l51 -33q50 -33 74 -55q7 -6 -3 -19q-8 -8 -12 -2q-31 40 -117 93q-8 5 -6 15q-15 2 -14 7q22 33 63 66l33 26l40 28l33 22q5 5 16 -6q7 -7 2 -11z" />
    <glyph glyph-name="equal" unicode="=" horiz-adv-x="202" 
d="M76 256q40 -4 99 0q7 1 18 -14q13 -20 -9 -21q-56 -5 -108 3q-8 2 -14 17q-6 16 8 16q4 0 6 -1zM64 307q39 0 107 -2q6 0 14 -14q5 -10 2.5 -14t-13.5 -3q-62 2 -104 1q-6 0 -15 15q-11 17 9 17z" />
    <glyph glyph-name="greater" unicode="&#x3e;" horiz-adv-x="219" 
d="M171 235q-35 33 -92 93q-7 7 0 19q5 8 11 2q59 -65 95 -100l7 6q8 6 19 -3q3 -2 4 -4.5t-0.5 -5t-3.5 -5t-5.5 -5.5t-5.5 -5q0 -6 -2.5 -9t-6.5 -1q-31 -36 -91 -119q-5 -7 -24 1q-13 4 -8 12q63 87 103 124z" />
    <glyph glyph-name="question" unicode="?" horiz-adv-x="272" 
d="M169 153q-5 -47 -3 -79q1 -7 -17 -13.5t-19 3.5q-4 49 0 85q0 8 23 11q17 3 16 -7zM75 428q16 29 23 40q29 44 63 57q28 10 66 -11q37 -19 40 -52q2 -34 -14 -69q-17 -39 -41 -77q-25 -41 -32 -63q-5 -19 -24 -29q-13 -9 -13 3v3q0 39 42 118.5t45 90.5q5 21 -10 49
q-15 29 -34 28q-29 -5 -68 -82q-10 -19 -32 -19q-8 -1 -10.5 2.5t-0.5 10.5z" />
    <glyph glyph-name="at" unicode="@" horiz-adv-x="343" 
d="M222 278q-7 -35 -7 -75q0 -21 8 -25t20 11q54 72 56 159q1 28 -12.5 55.5t-35.5 43.5q-26 18 -56 19.5t-56 -15.5q-85 -59 -99 -187q-7 -62 16 -125q16 -43 45 -72q27 -27 53 -20q70 22 71 18q1 -1 -2.5 -4.5t-12.5 -8.5q-37 -20 -72.5 -17.5t-65.5 26.5q-47 38 -62 119
q-25 130 31 217q30 45 83 66q53 22 101 11q38 -9 72 -46q34 -35 40 -82q9 -66 -44 -145q-16 -23 -37 -35t-40 -9q-8 1 -16 8q0 -4 -7 -8q-26 -18 -52 -21.5t-40 7.5q-17 12 -21.5 40.5t4.5 54.5q13 39 41.5 67.5t64.5 35.5q16 3 25 -7q5 -6 -4 -6q-2 0 -3 1q-52 -18 -78 -74
q-16 -33 -14 -73q1 -19 12.5 -25t30.5 6q16 13 35 7q-21 25 -17 66q5 41 28 60q16 13 19 -3q0 -3 -2 -15z" />
    <glyph glyph-name="A" unicode="A" 
d="M101 230q-29 84 -48 173q-8 -91 -11 -186q44 9 59 13zM110 204q-36 -8 -69 -18q-1 -23 -1 -78q0 -20 -21 -29q-16 -7 -18 7l2 89l-25 -8q-10 -5 -25 10q-12 11 3 17q15 5 47 13q4 194 27 328q3 20 25 24q16 4 18 -8q0 -3 -1 -4l-3 -16q21 -162 63 -295q23 4 32 5
q10 1 21 -9q11 -12 -6 -15q-26 -4 -38 -7q22 -69 53 -134q11 -24 2 -39q-4 -7 -11 4q-43 78 -75 163z" />
    <glyph glyph-name="B" unicode="B" horiz-adv-x="199" 
d="M113 396q4 10 8 26q9 57 -11 70q-10 6 -25.5 -8t-27.5 -39q-5 -11 -15 -18q0 -42 1 -61q17 20 42 28q11 4 28 2zM107 384h-1q-30 -8 -49 -48q31 16 50 48zM47 312l-2 -6q4 -86 17 -167q6 2 10 6q23 14 48 54q34 57 36 107q1 35 -19 63q-9 -13 -18 -19q-33 -33 -72 -38z
M146 383q37 -22 46 -62q14 -60 -35 -128q-40 -53 -92 -67l9 -47q5 -25 -10 -38q-8 -9 -12 4q-13 46 -19 79q-11 2 -17 5q-18 11 -8 30q8 15 15 9l2 -3q-10 65 -13 104l-3 3q0 11 1 16q-7 85 -5 226q0 20 21 31q17 8 17 -8v-57q20 25 39 26q27 3 50.5 -14.5t28.5 -46.5
q5 -26 -15 -62z" />
    <glyph glyph-name="C" unicode="C" horiz-adv-x="179" 
d="M129 291v4q2 3 3 19q3 24 4 40q1 19 1 38q0 21 -4 37q-5 21 -18 34.5t-25 9.5q-22 -9 -38 -57q-21 -62 -22 -144q-1 -51 10 -110q9 -47 21 -64q7 -11 22.5 -8.5t24.5 18.5q15 27 35 35q14 6 14 -9q-1 -1 -1 -5q-4 -20 -19 -36.5t-33 -20.5q-47 -9 -73 24q-31 40 -37 127
q-9 108 15 182q13 43 53 69q39 26 69 6q53 -35 41 -153q-3 -31 -25 -43q-17 -9 -18 7z" />
    <glyph glyph-name="D" unicode="D" horiz-adv-x="190" 
d="M12 464v23q0 17 23 25q19 4 19 -9q-2 -24 -2 -35q28 -3 51 -21q62 -52 79 -141q15 -86 -32 -141q-28 -34 -82 -44l3 -22q3 -19 -17 -31q-14 -10 -16 6l-6 42q-7 0 -10 -1q-34 -2 -41 8q-1 3 3 4h7q13 0 39 2q-21 169 -19 305q-5 -4 -9 -12q-16 -25 -40 -28q-10 -1 -10 8
q0 4 4 11q30 40 56 51zM66 136q26 8 40 22q38 40 41 109q3 68 -32 133q-24 45 -54 54q-3 1 -10 1q-4 -148 15 -319z" />
    <glyph glyph-name="E" unicode="E" horiz-adv-x="192" 
d="M13 284q0 71 8 162q-14 14 2 20q0 4 1 6q2 14 24 15q8 0 12.5 -2.5t3.5 -6.5v-2q49 12 90 31q8 5 24 -12q18 -15 2 -21q-19 -8 -37 -12l-47 -12l-35 -8q-7 -75 -9 -153q38 5 60 12q6 1 19 -15q13 -15 -3 -18q-15 -3 -42 -6q-27 -2 -34 -3q-2 -65 3 -122q41 18 69 22
q6 1 14 -10t-6 -16q-17 -6 -36 -17q-22 -12 -37 -19l4 -36q2 -15 -11 -26q-8 -8 -11 2q-7 24 -12 51q-10 0 -19 15q-8 12 6 15q1 1 7 3q-8 58 -10 135q-25 20 -6 27q4 0 6 1z" />
    <glyph glyph-name="F" unicode="F" horiz-adv-x="199" 
d="M19 130q-9 108 -4 206q-25 25 2 30q2 30 8 78q-7 5 -12 11t-8 12t-0.5 11.5t11.5 7.5l17 4q1 1 1 4q5 18 26 19q8 0 12.5 -3t3.5 -9q0 -2 -1 -3q43 8 93 12q9 0 21 -17q16 -21 -10 -24q-58 -6 -114 -23q-6 -36 -9 -73l58 16q5 1 21 -16q22 -25 -1 -31q-35 -8 -82 -14
q-4 -78 2 -175q2 -18 -18 -29q-15 -8 -17 6z" />
    <glyph glyph-name="G" unicode="G" horiz-adv-x="191" 
d="M177 460h-4q-65 -17 -89 -50q-34 -46 -33 -97q2 -101 53 -163q-5 134 -3 191q0 17 21 25q18 4 18 -8q-1 -44 4 -243q25 -15 19 -17q-2 0 -9 2l-10 3q2 -102 2 -130q0 -19 -22 -26q-17 -5 -18 8q1 39 -1 166q-43 27 -71.5 71.5t-32.5 97.5q-6 59 35 112q42 55 103 72
q28 9 44 -5q11 -7 -6 -9z" />
    <glyph glyph-name="H" unicode="H" horiz-adv-x="166" 
d="M109 241q-2 -69 6 -128q1 -17 -12 -30q-10 -9 -13 3q-16 70 -18 157l-28 4q0 -24 1 -36q0 -11 -18 -22q-15 -7 -16 4q-3 29 -3 60l-13 3q-9 2 -13 15q-2 6 -0.5 9t6.5 2q4 0 6 -1l14 -3q2 111 26 212q3 12 26 12q15 0 15 -8v-3q-26 -109 -31 -219l28 -3q2 95 21 207
q2 14 24 17q9 1 13.5 -2t3.5 -8q-20 -112 -25 -214q11 0 29 2q7 1 20 -13q10 -14 -6 -15q-28 -2 -43 -2z" />
    <glyph glyph-name="I" unicode="I" horiz-adv-x="169" 
d="M60 457l3 31q1 16 22 22q9 2 14 0t4 -9l-4 -49l48 -8q6 -2 9 -21q2 -10 -0.5 -15t-9.5 -4q-2 0 -8 2q-15 5 -41 10q-6 -134 3 -256q30 0 53 -4q5 -1 10 -18q2 -10 -0.5 -14.5t-9.5 -3.5q-1 1 -5 1q-32 7 -54 -1q-10 -12 -20 -10q-2 -1 -6 -5q-1 -2 -15 8.5t-21 22t5 21.5
l27 2q-11 132 -5 262q-3 0 -6 0.5t-5.5 1t-3.5 0.5q-6 0 -14 17q-4 10 -1.5 15t10.5 4h5q8 -2 16 -2z" />
    <glyph glyph-name="J" unicode="J" horiz-adv-x="248" 
d="M97 468q79 0 115 10q6 1 22 -18q21 -25 -2 -28q-22 -3 -49 -3q-9 -127 -26 -224q-8 -44 -25 -77q-16 -33 -41 -33q-14 1 -27 17t-32 52q-1 2 -9.5 15t-12.5 22.5t-2 14.5q2 32 51 30q38 -2 44 -10q1 -2 -6 -3q-4 0 -7 -1q-27 0 -38.5 -6t-7.5 -17l22 -52q11 -27 23 -40
q2 -2 4 1t6 14q14 42 19 71q17 87 26 224q1 1 1 3q-19 1 -42 1q-7 0 -17 16q-12 21 11 21z" />
    <glyph glyph-name="K" unicode="K" horiz-adv-x="211" 
d="M87 291q84 -128 119 -218q4 -12 -17 -24q-22 -12 -25 2q-24 98 -114 235l-15 -126q-1 -13 -23 -21q-9 -2 -13.5 -0.5t-3.5 8.5q6 62 38 307q2 15 24 19q9 2 13 0.5t3 -8.5q-1 -20 -9 -70q-7 -59 -10 -74q10 9 14 -1h1q50 67 74 131q3 8 26 10q8 -1 11.5 -3t2.5 -6
q-26 -73 -96 -161z" />
    <glyph glyph-name="L" unicode="L" horiz-adv-x="139" 
d="M16 139q-6 0 -9.5 2.5t-2.5 8.5q5 27 22 170l16 139q1 14 23 19q18 3 18 -9q-6 -40 -18 -146q-7 -68 -19 -160q40 2 62 6q5 2 19 -17q17 -23 -4 -25q-24 -2 -49 -1q-31 1 -43 0q-4 -1 -15 13z" />
    <glyph glyph-name="M" unicode="M" horiz-adv-x="223" 
d="M39 106q-20 292 -17 376q0 17 20 23q8 3 12.5 1t3.5 -9v-5l3 -6q17 -127 53 -234q15 162 19 228q0 1 2 7q2 18 18 25q14 8 14 -6q0 -5 1 -7q2 -2 0 -5v-3q0 -20 1 -40.5t2 -37.5t3.5 -40l4 -36.5t6 -39t6 -35.5t7 -38t6.5 -34t7 -37t7 -34q3 -18 -12 -30q-11 -9 -14 4
q-19 88 -38 215l-9 -106q-1 -8 -9.5 -14t-17.5 -7q-4 -1 -7 2q-2 2 -2 5q-30 69 -52 149q3 -62 14 -212q1 -16 -17 -25q-14 -7 -15 6z" />
    <glyph glyph-name="N" unicode="N" horiz-adv-x="227" 
d="M25 148q0 87 1 154t1 146q0 9 11 17q11 14 23 11q3 -1 4 -5q36 -176 88 -323q-5 179 30 320q5 18 24 19q15 1 15 -9q2 -2 0 -3q-43 -163 -34 -373q1 -9 -5.5 -18t-15.5 -12q-3 -4 -6 -1q-4 1 -6 8v3q-50 97 -95 266q-1 -117 -1 -185q0 -14 -19 -21q-15 -6 -15 6z" />
    <glyph glyph-name="O" unicode="O" horiz-adv-x="178" 
d="M78 486l-3 -4q-36 -76 -38 -168q0 -78 18 -136q20 -62 40 -59q13 3 25 67q13 68 14 141q4 149 -36 177q-5 4 -39 13q-3 1 0 2q2 1 9 1q33 2 60.5 -26t37.5 -73q10 -43 6 -108q-13 -202 -73 -208q-40 -4 -69 58q-28 60 -31 141q-5 113 30 169q16 28 41 23q13 -2 8 -10z
" />
    <glyph glyph-name="P" unicode="P" horiz-adv-x="163" 
d="M38 509q28 12 54 7q20 -4 39.5 -32t25.5 -59q9 -49 -26 -96q-43 -57 -88 -67q1 -100 8 -181q1 -13 -16 -24q-13 -9 -15 3q-17 119 -16 390q-12 -6 -21 -2.5t-4 14.5q12 16 25 26q0 9 13.5 17t20.5 4zM43 280q36 31 61 72q17 30 16 68q-1 25 -9.5 49t-20.5 32
q-17 11 -49 -14q2 -204 2 -207z" />
    <glyph glyph-name="Q" unicode="Q" horiz-adv-x="282" 
d="M47 32q49 34 102 -4q29 -20 83 8q19 10 39 -1q16 -7 -2 -16q-62 -29 -104 -17q-13 3 -25.5 8.5t-19 9.5t-12 6t-8.5 0t-5 -10q-1 -10 -28 -5q-11 2 -16.5 6.5t-4.5 10.5q0 3 1 4zM112 445q-43 -106 -47 -145q-5 -59 -2 -109t13 -82.5t21 -31.5q20 2 40 77q21 76 21 143
q0 111 -34 178q-4 9 -17 27q-8 11 -7 12l10 -4q40 -23 62 -84t24 -141q2 -67 -17 -131q-18 -69 -54 -88q-25 -14 -59 20q-34 35 -44 87q-7 33 0 97q7 72 30 128q21 53 51 68q14 8 14 -4q0 -5 -5 -17z" />
    <glyph glyph-name="R" unicode="R" horiz-adv-x="232" 
d="M35 86q-13 271 -7 402q0 16 21 24q19 4 20 -8q-2 -24 -2 -37q59 -15 65 -64q2 -23 -12.5 -44.5t-38.5 -33.5q61 -126 143 -263q9 -15 -2 -29q-6 -9 -13 1q-89 145 -144 253q0 -4 7 -179q1 -17 -19 -28q-18 -8 -18 6zM71 343q18 17 23 49q7 50 -28 66q-2 -73 -1 -115
q3 1 6 0z" />
    <glyph glyph-name="S" unicode="S" horiz-adv-x="165" 
d="M131 370q-4 19 -11.5 41.5t-16 41.5t-16.5 34t-14 23t-8 6q-36 -50 33 -194l10 -21l21 -43q16 -34 23 -70q4 -24 0 -52q-4 -33 -21 -51q-22 -24 -59 -22q-36 3 -47 29q-15 36 13 45q16 4 19 -3q-8 -53 11 -61q10 -4 22.5 10.5t16.5 34.5q19 75 -10 142q-17 38 -28 58
q-44 86 -54 147q-7 43 19 63q19 14 41.5 13t36.5 -15q13 -13 22 -34q13 -27 25 -78q7 -31 -13 -47q-12 -7 -15 3z" />
    <glyph glyph-name="T" unicode="T" horiz-adv-x="239" 
d="M16 453l45 13l48 15q37 11 79 35q5 4 31 -13q27 -18 9 -26q-20 -8 -104 -32q-21 -205 -19 -380q0 -17 -20 -28q-16 -7 -16 7q-5 180 15 389q-17 -6 -37 -17q-7 -4 -26 11q-21 16 -5 26z" />
    <glyph glyph-name="U" unicode="U" horiz-adv-x="151" 
d="M144 457q-38 -222 1 -366q5 -20 -4 -33q-6 -7 -10 3q-14 34 -20 53q-25 -18 -52 -13.5t-42 28.5q-6 9 -11 32q0 2 -1.5 13t-2.5 13q0 23 -2 29q-4 56 0 114q6 87 20 134q4 15 28 12q13 -1 13 -9q0 -2 -1 -3q-15 -54 -21 -131q-5 -59 -2 -94q6 -101 30 -117q5 -5 10 0
q13 8 30 7q-34 133 -4 319q3 15 24 19q9 1 13.5 -1.5t3.5 -8.5z" />
    <glyph glyph-name="V" unicode="V" horiz-adv-x="178" 
d="M59 161q26 145 74 304q4 15 26 16q15 1 15 -8q0 -2 -1 -3q-57 -188 -84 -348q-1 -13 -22 -21q-9 -2 -13.5 0t-3.5 9q-30 63 -37 135q-5 40 -6 64l-3 74q0 12 -0.5 27.5t-1 24.5t-0.5 14q-1 16 17 22q7 2 10.5 0.5t2.5 -7.5q1 -41 13 -169q14 -127 14 -134z" />
    <glyph glyph-name="W" unicode="W" horiz-adv-x="249" 
d="M42 481v-4l-8 -73l-5 -67q-3 -49 0 -75q7 -74 31 -121q-4 9 2 38l18 89q12 60 18 100v24q0 10 6 18v3q0 20 23 28q17 5 17 -7q-1 -12 -5 -53q-1 -131 24 -240q0 -5 3 3q17 39 35 172q3 27 27 35q16 4 16 -7q2 -2 0 -4q-18 -121 -53 -200q-9 -19 -16.5 -27.5t-13.5 -6.5
q-39 21 -53 92q-21 -80 -45 -77t-41 38q-21 45 -26 137.5t3 155.5q1 25 25 36q18 8 18 -7z" />
    <glyph glyph-name="X" unicode="X" horiz-adv-x="192" 
d="M83 246q26 -117 51 -184q5 -16 -1 -26q-4 -4 -8 2q-36 60 -62 150q-3 -9 -10 -38q-5 -16 -23 -23q-16 -6 -16 7q10 52 32 113q-20 82 -44 233q-1 13 17 22q17 9 18 -3q13 -98 33 -194q27 61 76 152q7 15 30 13q17 -2 10 -13q-75 -140 -103 -211z" />
    <glyph glyph-name="Y" unicode="Y" horiz-adv-x="167" 
d="M162 492q-51 -296 -66 -403q-3 -17 -24 -25q-9 -2 -13.5 0t-3.5 9q14 105 28 190q-23 29 -40 75l-19 51l-15 42q-3 7 13 17q12 9 15 1q0 -1 54 -138l29 167q3 19 26 24q9 2 13 -0.5t3 -9.5z" />
    <glyph glyph-name="Z" unicode="Z" horiz-adv-x="242" 
d="M65 443q17 8 141 71q1 1 8 -1q8 2 13.5 -1t3.5 -10q13 -14 0 -21l-10 -5q-71 -189 -120 -366q44 14 80 22q7 1 17 -11q8 -13 -6 -17q-11 -3 -56 -19l-55 -19q-4 -1 -13 6.5t-11 14.5q0 4 1 6q45 174 113 357q-48 -23 -85 -38q-9 -3 -23 12q-13 14 2 19z" />
    <glyph glyph-name="bracketleft" unicode="[" horiz-adv-x="207" 
d="M91 481q-10 -169 3 -406q0 -2 -1 -4q27 -5 73 1q6 1 11 -8q1 -4 -5 -5q-54 -7 -88 0q-8 -7 -9 -3q-31 68 -31 190q0 80 1 107l6 119q0 12 21 17q-10 8 2 8q3 0 10.5 -1.5t19.5 -3t23 -3.5l64 -9q8 -2 11 -8q1 -4 -3 -4h-3l-104 15q0 -1 -1 -2z" />
    <glyph glyph-name="backslash" unicode="\" 
d="M86 533q64 -299 113 -464q4 -14 -10 -28q-8 -8 -12 2q-50 133 -122 469q-3 14 15 24q14 8 16 -3z" />
    <glyph glyph-name="bracketright" unicode="]" horiz-adv-x="198" 
d="M62 44q40 -13 76 -9q-31 152 11 419q2 11 17 15q-100 3 -119 2q-8 0 -13 8q-1 4 3 4q1 1 3 1q28 0 141 -4q8 0 13 -8q1 -2 -4 -4h-4q5 -3 3 -8q-38 -239 -24 -409q1 -9 -9 -21q5 -7 -3 -8q-44 -5 -91 8q-5 1 -7 11q0 6 7 3z" />
    <glyph glyph-name="asciicircum" unicode="^" horiz-adv-x="265" 
d="M57 304q13 26 32 56l73 114q4 6 23 5q6 2 8 -3q9 -3 5 -10q-1 -1 -1 -2q22 -94 62 -180q4 -10 -7 -23q-8 -9 -12 0q-44 80 -69 163q-56 -85 -76 -124q-4 -10 -26 -7q-7 1 -10 4t-2 7z" />
    <glyph glyph-name="underscore" unicode="_" horiz-adv-x="480" 
d="M48 -67h5l193 -5l205 -5q11 -1 21 -18q10 -19 -10 -19h-3q-16 0 -80.5 2t-115.5 3q-156 2 -201 5q-11 0 -22 19q-11 18 8 18z" />
    <glyph glyph-name="grave" unicode="`" horiz-adv-x="156" 
d="M61 675l90 -211q4 -10 -9 -23q-10 -11 -15 0l-90 211q-5 11 9 23q10 11 15 0z" />
    <glyph glyph-name="a" unicode="a" horiz-adv-x="206" 
d="M97 367q2 -39 13 -78q9 -36 21 -59q17 -31 28 1q5 15 27 16q9 1 13 -1t3 -7q0 -3 -1 -4q-9 -23 -29.5 -34t-37.5 -5q-19 8 -32 28q-28 -28 -56 -24q-19 4 -32 21.5t-14 40.5q-1 43 17.5 76t48.5 41q9 1 15 -6q16 3 16 -6zM88 250q0 3 -1 4q-18 43 -27 95q-15 -23 -21 -59
q-5 -29 3 -62q4 -19 22 -1q1 1 2.5 3t3 4.5t2.5 3.5q6 8 16 12z" />
    <glyph glyph-name="b" unicode="b" horiz-adv-x="136" 
d="M47 380q41 -7 65 -27t19 -46q-6 -34 -27 -62t-46 -40l4 -56q1 -11 -19 -19q-17 -6 -18 5l-9 111q-13 155 -13 307q0 18 21 27q18 7 19 -6v-3q0 -99 4 -191zM56 222q23 41 36 88q8 15 1 33.5t-25 23.5l-21 6q3 -66 9 -151z" />
    <glyph glyph-name="c" unicode="c" horiz-adv-x="171" 
d="M78 304q-7 28 -18 47l-3 7q-7 -4 -13 -53q-8 -74 13 -108q8 -12 23.5 -8.5t23.5 17.5q10 19 19 59q3 17 27 22q8 1 12.5 -1.5t3.5 -7.5q-10 -46 -34.5 -76t-58.5 -30q-23 0 -42 21t-26 52q-9 46 2 80q9 29 40 37q31 7 51 -16q17 -22 2 -44q-10 -16 -18 -6q-3 3 -4 8z" />
    <glyph glyph-name="d" unicode="d" horiz-adv-x="156" 
d="M85 546v-3q0 -112 13 -217q5 -5 0 -7l10 -69q17 17 36 13q13 -1 4 -15q-16 -20 -34 -33l15 -74q4 -19 -13 -33q-13 -11 -16 4q-7 25 -18 85q-37 -12 -53 7q-20 26 -10 63q10 36 42 56q-14 101 -16 201q0 18 21 27q17 8 19 -5zM79 210q-10 56 -14 83q-16 -24 -15 -55
q0 -15 6.5 -25.5t14.5 -8.5q3 1 8 6z" />
    <glyph glyph-name="e" unicode="e" horiz-adv-x="167" 
d="M76 271q27 47 30 67q1 9 -3 14t-11 2.5t-14 -12.5q-21 -34 -17 -83q3 -35 19 -45q7 -5 17.5 1t17.5 19q11 20 35 23q7 1 10.5 -1.5t2.5 -6.5l-3 -8q-15 -25 -38.5 -36t-44.5 -5q-22 7 -38 29t-16 49q-1 35 17.5 64t42.5 34q26 5 43 -25q16 -28 0 -64q-13 -30 -41 -35
q-8 -1 -11.5 1t-2.5 7q0 4 5 11z" />
    <glyph glyph-name="f" unicode="f" horiz-adv-x="208" 
d="M136 571q-62 -120 -58 -246q0 -5 1 -8q46 24 68 47q5 4 36 -9q29 -12 17 -21q-45 -33 -119 -56q7 -65 40 -208q6 -21 -12 -36q-12 -10 -15 4q-40 153 -48 230l-21 -7q-8 -2 -18 11q-11 13 2 17l33 12q-11 155 52 268q11 21 34 18q16 -3 10 -13q0 -1 -2 -3z" />
    <glyph glyph-name="g" unicode="g" horiz-adv-x="139" 
d="M123 235q0 -39 5 -94q11 -104 3 -158q-5 -29 -21 -54q-16 -27 -33 -21q-29 9 -35 92q-1 25 21 34q17 5 18 -7q-1 -16 -1 -101q0 22 9 68q9 48 8 72l-9 107q-25 -8 -48.5 0.5t-31.5 29.5q-20 55 16 112q12 21 39.5 23.5t46.5 -14.5q21 -19 22 -72q2 -9 -9 -17zM80 194l6 4
q-3 39 -2 64q0 8 5 16q-11 44 -21 42q-1 -1 -2 -1q-14 -12 -22 -80q-3 -29 3 -51q2 -9 12 -7.5t21 13.5z" />
    <glyph glyph-name="h" unicode="h" horiz-adv-x="161" 
d="M116 203q4 42 2 60q-4 42 -19 55q-5 4 -7 -3q-24 -63 -37 -164q-1 -9 -23 -14q-17 -3 -17 6q1 7 3 39t4 44q12 116 33 267q3 17 24 21q9 2 13.5 -0.5t3.5 -8.5q-8 -53 -23 -169q20 6 44 -9t34 -40q8 -21 5 -69q0 -14 -21 -22q-18 -4 -19 7z" />
    <glyph glyph-name="i" unicode="i" horiz-adv-x="61" 
d="M54 451q-1 -11 -1 -34q0 -2 -9.5 -4.5t-19 -2.5t-9.5 5v35q0 2 9.5 4.5t19.5 2t10 -5.5zM56 366q-9 -85 -8 -197q0 -10 -20 -16q-16 -5 -18 6q-1 133 6 203q1 10 23 13q17 2 17 -9z" />
    <glyph glyph-name="j" unicode="j" horiz-adv-x="82" 
d="M61 364l4 -95q1 -15 2.5 -56.5t2.5 -58.5q3 -214 -67 -235q-13 -4 -19 16q-5 17 4 17l6 -3q9 -6 15 1.5t12 30.5q7 26 10 74q4 59 1 113l-5 93l-4 88q0 13 20 21q18 4 18 -6zM77 468q-12 -28 -13 -48q-2 -7 -25 -8q-15 -1 -14 7q3 27 15 57q1 3 11 3.5t19 -2.5t7 -9z" />
    <glyph glyph-name="k" unicode="k" horiz-adv-x="178" 
d="M48 274q1 -39 10 -108q1 -5 -4 -9t-15 -7q-17 -7 -19 4q0 15 -4 47l-6 57q-10 94 4 192q2 16 24 21q20 3 18 -9v-3q-8 -48 -9 -99q14 29 38 67q4 2 12.5 1.5t15.5 -5t4 -9.5q-31 -51 -54 -108q57 -106 104 -161q9 -11 6 -20q-1 -3 -7 1q-64 51 -118 148z" />
    <glyph glyph-name="l" unicode="l" horiz-adv-x="67" 
d="M62 515q-14 -230 1 -391q1 -12 -15 -24q-12 -8 -13 2q-29 135 -12 407q0 10 23 13q8 1 12.5 -1t3.5 -6z" />
    <glyph glyph-name="m" unicode="m" 
d="M89 326q50 73 80 53q14 -10 20 -33q6 -28 7 -64q1 -28 4 -52q1 -13 -14 -24q-12 -9 -15 2q-5 17 -11 51q-9 62 -11 100q-1 4 -9 -8q-3 -5 -7 -13q-13 -24 -30 -60l-3 -2l1 -1q0 -5 1.5 -11.5t3 -17l2.5 -17.5l7 -40q2 -8 -13 -19q-11 -9 -14 0q-19 57 -29 132l-2 14
q-1 -6 -11 -9q7 -82 9 -113q0 -10 -20 -16q-16 -6 -18 5q-2 43 -4 62q-1 12 -5 65.5t-5 71.5q-1 5 4 9t15 8q18 6 18 -5q3 -38 4 -52q23 12 36 -1q4 -6 9 -15z" />
    <glyph glyph-name="n" unicode="n" horiz-adv-x="134" 
d="M83 341q1 1 -5 -10.5l-16 -32t-17 -36.5l-3 -4q0 -36 5 -74q1 -10 -15 -20q-11 -8 -13 2q-10 45 -11 90q-2 2 0 6q-2 63 5 123q1 11 21 12q8 1 12 -1t3 -6q-3 -23 -5 -65q32 43 54 36q14 -5 21 -38q5 -27 10 -93q2 -11 -12 -22q-11 -9 -14 1q-19 59 -20 132z" />
    <glyph glyph-name="o" unicode="o" horiz-adv-x="130" 
d="M73 318l-7 7q-3 -9 -11 -44q-12 -58 -5 -64q11 -8 23 5t14 30q4 43 -14 66zM70 337q52 -31 55 -73q2 -28 -21.5 -48t-51.5 -15q-21 4 -31 30t-4 57q13 66 49 77q14 5 15 -6q1 -6 -3 -6q-4 -2 -8 -16z" />
    <glyph glyph-name="p" unicode="p" horiz-adv-x="152" 
d="M42 314l-1 -1q-9 -176 6 -305q2 -16 -16 -26q-14 -8 -15 4q-23 143 -13 326q0 8 10 14q31 33 63 28q37 -6 62 -52q21 -40 1 -76q-12 -21 -31.5 -32.5t-38.5 -8.5q-14 2 -14 16q1 7 9 3q8 -6 18.5 1.5t18.5 23.5q13 24 11 47q-4 41 -24 58q-12 8 -24.5 2t-21.5 -22z" />
    <glyph glyph-name="q" unicode="q" horiz-adv-x="164" 
d="M159 292q-15 -135 -2 -272q2 -9 -11 -20q-7 -6 -10 0q-28 70 -24 198q-41 -22 -74 -4.5t-34 55.5q-2 66 36 96q20 16 50.5 8t48.5 -37q5 -8 6 -14q14 -7 14 -10zM114 223q2 36 4 53q-2 15 -11 36q-6 25 -16 29q-8 4 -18.5 -8t-18.5 -32q-16 -38 -11 -77q2 -10 8.5 -15
t18.5 -3.5t26 9.5q9 5 18 8z" />
    <glyph glyph-name="r" unicode="r" horiz-adv-x="183" 
d="M170 325q-43 3 -70 -32q-24 -30 -25 -69q0 -5 -10 -15q-9 -14 -22 -14q-4 0 -6 5q-16 84 -11 191q0 9 21 14q8 1 12.5 -1t3.5 -6q-3 -52 -2 -89l4 4q35 35 101 29q10 -1 13 -13q1 -5 -3 -6z" />
    <glyph glyph-name="s" unicode="s" horiz-adv-x="133" 
d="M112 335l-2 3q-10 12 -22.5 18t-15.5 0q-8 -14 0 -40q4 -13 25 -42q18 -25 27 -41q10 -21 0 -45.5t-34 -32.5q-19 -7 -45 -4q-25 3 -38 16q-14 14 17 18q21 3 21 0q-10 -7 3 -13q13 -7 28 4q4 1 5.5 7t1.5 11.5t-1 12.5v7q0 9 -6 22q-9 19 -32 47q-40 50 -19 79
q25 32 86 7q18 -7 12 -28q-3 -14 -11 -6z" />
    <glyph glyph-name="t" unicode="t" horiz-adv-x="148" 
d="M-35 355l47 25q1 55 10 128q3 22 25 28q9 3 13.5 0t3.5 -10q-9 -69 -12 -128l34 14q5 1 12.5 -4.5t9.5 -12.5t-6 -12q-3 -2 -21 -10.5t-31 -16.5q-2 -43 1 -68q7 -96 35 -117q8 -5 14 -1q14 8 36 6q11 -1 4 -8q-28 -21 -55 -20t-45 23q-15 17 -23 82q-3 26 -5 82
q-15 -8 -26 -12q-7 -3 -21 11q-13 14 0 21z" />
    <glyph glyph-name="u" unicode="u" horiz-adv-x="184" 
d="M135 353q2 -126 32 -174l4 -5q12 -13 7 -13l-4 2q-28 12 -48 41q-7 -16 -16 -19q-21 -6 -42 6t-30 34q-18 42 -30 127q-1 5 4 9t15 8q21 7 21 -3q4 -50 15 -96q6 -30 19 -63q1 -4 3 2l4 15q7 28 12 33q-13 42 -14 94q0 3 12.5 6.5t24.5 3t11 -7.5z" />
    <glyph glyph-name="v" unicode="v" horiz-adv-x="182" 
d="M63 180l-61 196q-3 10 15 21q15 8 17 -3q16 -66 45 -156q19 56 59 145q4 8 25 7q14 -2 14 -8q0 -2 -1 -3l-14 -32q-14 -32 -16 -35l-12 -29l-13 -34q-12 -32 -18 -62q-3 -11 -24 -15q-16 -3 -16 8z" />
    <glyph glyph-name="w" unicode="w" horiz-adv-x="258" 
d="M161 180q-10 -3 -12 5q-1 9 -8 53l-12 68l-4.5 23l-4 21t-2.5 14q-21 -84 -32 -167q-1 -6 -13 -11.5t-19 -2.5q-11 -3 -13 5q-3 29 -20 93q-17 65 -21 85q-2 8 13 14q18 6 20 -3q4 -29 27 -122q17 96 45 194q3 12 24 10q13 -1 12 -9l-2 -10q5 -51 31 -199q5 23 26 88
l22 70q3 11 22 12q7 0 10.5 -2t2.5 -6l-31 -98q-22 -73 -30 -111q-2 -6 -13.5 -11.5t-17.5 -2.5z" />
    <glyph glyph-name="x" unicode="x" horiz-adv-x="165" 
d="M137 162l-29 58q-6 -24 -9 -44q-1 -10 -23 -16q-8 -2 -12.5 0t-3.5 7q6 51 22 103q-44 86 -56 113q-5 12 10 24q14 11 17 -1q20 -48 42 -95q13 36 25 63q5 11 27 8q12 -2 12 -9v-3q-30 -72 -40 -107l40 -77q6 -10 -8 -24q-10 -10 -14 0z" />
    <glyph glyph-name="y" unicode="y" horiz-adv-x="150" 
d="M44 381q0 -45 7 -87q6 -38 16 -62q10 -26 25 -10q5 85 12 143q2 18 23 22q18 4 19 -7q0 -2 -1 -3q-7 -57 -12 -135q12 -3 5 -13l-6 -8l-5 -70q-2 -24 -4.5 -75.5t-4.5 -75.5q-1 -16 -21 -22q-20 -5 -20 9q7 60 14 209q-15 -3 -26 2q-30 13 -43 64q-13 47 -16 111
q-1 5 4 8.5t17 5.5q9 2 13.5 0t3.5 -6z" />
    <glyph glyph-name="z" unicode="z" horiz-adv-x="183" 
d="M28 322q72 25 133 29q7 1 15 -10q5 -9 -4 -12q-43 -55 -86 -122q40 6 78 6q8 0 14 -11q4 -10 -8 -10q-50 0 -113 -16q-6 -2 -14.5 7t-3.5 14q0 1 1 1q47 74 85 123q-37 -10 -78 -28q-7 -3 -21 11q-12 13 2 18z" />
    <glyph glyph-name="braceleft" unicode="{" horiz-adv-x="254" 
d="M180 511q-49 -50 -44 -131q7 -123 -48 -159l-6 -4q24 -18 33 -48t8.5 -51t-4.5 -74q-1 -7 -1 -15q-6 -73 9 -93q7 -11 30 -2.5t51 30.5q15 12 35 6q13 -4 3 -12q-24 -21 -53.5 -33t-50.5 -10q-26 3 -44.5 28t-18.5 58q0 51 13 124q11 65 1 74q-5 9 -15 17q-18 -6 -22 4
q-2 5 6 10q45 36 39 124q-7 121 49 166q17 14 33 4q10 -7 -3 -13z" />
    <glyph glyph-name="bar" unicode="|" horiz-adv-x="108" 
d="M103 486q0 -9 -0.5 -51.5t-0.5 -76.5q-2 -195 -6 -286q-2 -19 -17 -30q-7 -6 -9 -1q-19 67 -20 134q-1 70 6 161q6 69 8 130q0 17 21 28q16 6 18 -8z" />
    <glyph glyph-name="braceright" unicode="}" horiz-adv-x="231" 
d="M39 -17q58 -25 73 9q8 19 19 95q17 113 56 149q-58 9 -76 35q-5 7 -7 22q0 10 2 38.5t2 36.5q0 72 -2 89q-6 75 -25 73q-3 0 -7 -3q-20 -16 -37 -11q-10 1 2 15q37 27 61 19q26 -10 37 -54q9 -39 9 -111v-18q0 -49 3 -66q6 -39 46 -55q2 0 3 -1q0 1 1 1q14 10 25 2
q7 -4 -2 -12q-1 0 -1 -1q7 -5 -3 -3q-32 -28 -45 -125l-5 -42q-5 -42 -10 -56q-12 -32 -41 -45.5t-62 -4.5q-21 6 -27 21q-2 6 1 6q4 1 10 -3z" />
    <glyph glyph-name="asciitilde" unicode="~" horiz-adv-x="481" 
d="M9 167q6 92 58 125q46 27 119 -10l39 -20l73 -36q73 -36 91 -11q11 16 53 20q38 5 35 -11l-3 -8q-20 -32 -53 -44q-55 -19 -124 10q-19 7 -64 36l-45 29q-27 17 -51 20.5t-32 -9.5q-7 -15 -14 -76q-1 -11 -34 -25q-43 -18 -47 6q-1 1 -1 4z" />
    <glyph glyph-name="exclamdown" unicode="&#xa1;" horiz-adv-x="160" 
d="M155 570q-10 -34 -11 -46q-4 -5 -26 -5q-14 1 -13 8q1 17 12 48q1 4 11.5 5.5t19.5 -1.5t7 -9zM26 190v3q8 30 28 126q14 69 29 131q3 13 25 13q9 -1 13 -3.5t3 -7.5q-12 -42 -30 -131l-27 -126q-4 -13 -26 -13q-15 -2 -15 8z" />
    <glyph glyph-name="cent" unicode="&#xa2;" horiz-adv-x="179" 
d="M129 291v4q11 92 7 119q-49 -167 -77 -312l2 -4q8 -11 23 -8.5t24 18.5q15 27 35 35q14 6 14 -9q-1 -1 -1 -5q-4 -20 -19 -36.5t-33 -20.5q-25 -6 -50 5q-1 -3 -1 -9q-5 -21 -25 -28q-17 -5 -17 9q2 15 11 61q-22 36 -28 113q-7 112 15 182q12 38 45 64q33 25 64 17l9 28
q6 20 29 23q16 1 15 -9q0 -3 -1 -4q-9 -27 -19 -62q31 -39 21 -135q-3 -31 -25 -43q-17 -9 -18 7zM37 180q32 146 75 287q-12 10 -22 6q-22 -8 -38 -57q-21 -62 -22 -144q-1 -40 7 -92z" />
    <glyph glyph-name="sterling" unicode="&#xa3;" horiz-adv-x="401" 
d="M267 564q-31 34 -50 25q-28 -13 -40 -49q-15 -45 -6 -113q4 -27 10 -54q45 -6 73 -3q7 1 15 -8q5 -6 -4 -6q-29 -3 -81 5l11 -51q9 -38 6 -56q8 6 33 26.5t33 25.5q18 13 45.5 7t46.5 -27q7 -8 19 -40l12 -32q12 -23 5 -32q-2 -3 -9 4q-22 22 -38 50l-18 29.5t-13.5 19
t-13 12t-11.5 -0.5q-12 -6 -36 -28.5t-51.5 -40.5t-58.5 -21q-14 -2 -25 6q-21 5 -22 17q0 7 5 2l2 -2t2.5 -2t2.5 -2t3 -1q2 1 9 -2q11 1 31 7q5 3 7.5 7t3 10t0 11t-2 14t-1.5 15q-1 10 -14 81l-16 3q-9 2 -12 8q-1 3 3 4h3l19 -3l-7 36q-5 24 -7 44q-7 48 7 81
q15 35 51 52q38 18 72 5q21 -9 21 -29q0 -9 -6 -9q-3 0 -8 5z" />
    <glyph glyph-name="currency" unicode="&#xa4;" horiz-adv-x="286" 
d="M90 403q-29 -87 7 -127q18 -20 53 -9q33 10 52 40q16 26 12 60q-4 37 -33 58q-22 15 -50.5 13t-53.5 -20q10 1 14 -3t-1 -12zM85 265q-25 -21 -40 -37q-6 -2 -21 8q-9 6 -4 10q7 7 46 39q-35 48 -22 105l1 1q-26 -14 -31 -5q-2 3 3 11q23 31 60 45q-39 27 -56 53
q-3 5 13 15q14 10 16 1q10 -37 43 -61l2 -2q35 8 67 0q18 -5 34 -15q32 38 62 66q4 4 15.5 -3.5t6.5 -14.5q-10 -10 -60 -68v-1q44 -44 31 -87q-8 -26 -31 -46q17 -45 38 -63q6 -7 5 -14q-1 -3 -6 0q-41 18 -64 59q-44 -21 -80 -11q-14 4 -28 15z" />
    <glyph glyph-name="yen" unicode="&#xa5;" horiz-adv-x="195" 
d="M72 327q-26 6 -39 10q-7 1 -9 19q-1 7 1.5 10.5t7.5 2.5q2 0 6 -2q11 -4 33 -10q-39 65 -56 156q-2 8 15 16q19 9 21 -3q11 -77 34 -135q21 74 52 140q9 19 31 18q7 -1 10.5 -3.5t2.5 -6.5q0 -1 -2 -5q-44 -94 -64 -184q29 -2 50 2q8 2 20 -13q12 -17 -6 -18
q-34 -4 -70 0l-2 -12l-4 -30q46 7 63 10q8 2 19 -13q12 -17 -7 -18q-43 -8 -78 -12q-6 -87 7 -173q3 -21 -15 -34q-11 -11 -14 5q-22 97 -17 197l-22 -2q-6 0 -15 14t8 16l32 4l2 21q1 11 5 33z" />
    <glyph glyph-name="brokenbar" unicode="&#xa6;" horiz-adv-x="115" 
d="M98 441q-13 -77 -14 -161q0 -9 -20 -14q-18 -4 -18 5q2 101 13 170q1 9 24 9q17 -2 15 -9zM110 645q-15 -56 -18 -132q0 -4 -9.5 -8.5t-18 -4t-10.5 5.5q2 83 17 143q1 4 11.5 5.5t19.5 -1t8 -8.5z" />
    <glyph glyph-name="section" unicode="&#xa7;" horiz-adv-x="235" 
d="M230 670l-1 -5q-31 2 -57 -12.5t-39 -41.5q-15 -29 -12 -60t23 -51q1 -1 22 -18.5t28 -24.5q42 -42 35 -84q-3 -19 -25 -32t-48 -14q-22 -1 -42 3q8 -12 22 -20q19 -10 33.5 -26.5t21 -39.5t-10.5 -46q-20 -31 -62 -35q-44 -5 -61 17q-13 14 8 28q17 11 22 3q1 -1 0 -6
q-3 -13 2.5 -23t17.5 -8q13 2 25 13t17 24q24 66 -11 84q-26 15 -50 35q-28 24 -25 56q2 28 26 52t54 33q6 2 10 2q-1 1 -2 1q-82 64 -63 125q12 36 44.5 60t68.5 24q11 0 18.5 -2t10 -5t0.5 -6zM168 459q-52 -25 -64 -66q-3 -13 -2 -25q6 -23 29 -28q17 -4 35 5t23 24
q17 49 -21 90z" />
    <glyph glyph-name="dieresis" unicode="&#xa8;" horiz-adv-x="208" 
d="M203 505q-1 -13 -1 -35q0 -5 -18 -8t-20 4q0 31 1 39q0 5 23 7q16 1 15 -7zM86 513v-26t1 -25q0 -4 -18.5 -7t-19.5 4q-1 17 -1 51q1 3 19 7t19 -4z" />
    <glyph glyph-name="copyright" unicode="&#xa9;" horiz-adv-x="375" 
d="M227 550q-110 -34 -155 -132q-23 -50 -12 -107q12 -61 65 -82q57 -24 111 5q44 25 73 84q26 55 23 110q-4 73 -44 102l-21.5 14l-23.5 15l-13 9l16 -3q2 0 3 -1q76 -20 105 -77t8 -134q-18 -70 -70.5 -110.5t-121.5 -35.5q-73 6 -112 46q-24 24 -34 58.5t-3 66.5
q14 63 56.5 113t97.5 66q50 15 52 -7zM237 454q-75 -12 -86 -66q-8 -39 13 -61q9 -9 26 -7.5t33 13.5q18 13 36 6q11 -5 -2 -13q-39 -27 -76 -21q-24 4 -43.5 19t-22.5 35q-6 39 24 71q33 33 77 37q22 3 31 -9q3 -5 -5 -5q-3 0 -5 1z" />
    <glyph glyph-name="ordfeminine" unicode="&#xaa;" horiz-adv-x="253" 
d="M188 554q-11 -65 -12 -98q-1 -47 8.5 -71.5t29.5 -16.5q16 7 31 0q8 -4 -2 -10q-24 -13 -47.5 -12.5t-38.5 13.5q-11 9 -15 25q-62 -39 -87 -24q-25 20 -17 53.5t34 56.5q3 3 21 18t30 26t16 18q4 5 8 20.5t5 16.5q4 7 -0.5 15t-15.5 8q-28 -2 -30 6q-1 1 3 3q2 1 5 2
q27 -1 48 -12.5t24 -31.5q4 -2 2 -5zM138 408q-1 8 -1 30q0 25 3 52q-18 -13 -21 -16q-50 -42 -57 -85q-1 -9 9 -10q21 0 53 23q6 4 14 6z" />
    <glyph glyph-name="guillemotleft" unicode="&#xab;" horiz-adv-x="246" 
d="M151 282q-12 8 -4 13q47 43 73 61q4 4 16 -5q9 -7 3 -12l-70 -61q22 -41 46 -62q7 -6 3 -16q-1 -4 -8 -1q-42 28 -68 67q-3 5 9 16zM67 310q-7 4 -3 9q26 23 47 36q11 7 29 17q16 8 24 14q5 4 16 -7q6 -6 0 -10q-58 -35 -84 -63q10 -41 36 -70q6 -6 2 -16q-1 -6 -8 -1
q-48 34 -66 83q-1 3 7 8z" />
    <glyph glyph-name="logicalnot" unicode="&#xac;" horiz-adv-x="368" 
d="M66 369h4q172 -28 264 -22q12 0 25 -14q11 -12 -3 -15q0 -45 5 -97q0 -3 -8.5 -8.5t-16.5 -7t-10 4.5q-8 70 -8 107q-84 0 -240 24q-12 1 -20 16q-4 7 -2 10t10 2z" />
    <glyph glyph-name="registered" unicode="&#xae;" horiz-adv-x="357" 
d="M262 567l-23 9q-97 -32 -138 -108q-25 -48 -16 -102q9 -58 57 -86q24 -13 54 -14t51 11q37 23 57 87q15 54 8 105q-14 83 -50 98zM259 582q49 -16 75 -65q26 -50 15 -124q-10 -76 -54 -112q-45 -38 -119 -25q-69 12 -102 55q-43 57 -25 121q15 55 58 98.5t97 58.5
q45 13 69 -1q10 -4 -2 -6q-5 -2 -12 0zM174 405l-1 1q-3 -31 -3 -64q0 -10 -21 -14q-16 -4 -16 4q-1 81 12 156q1 5 16.5 7t21.5 -4q25 5 42.5 -5t14.5 -30q-5 -27 -35 -46q23 -57 51 -84q7 -7 5 -15q0 -4 -7 -1q-51 29 -80 92q-2 2 0 3zM174 413l2 2q17 11 24 41l5 12
q4 10 1 12q-1 0 -3 -1t-3 -1q-6 -4 -17 1q-6 -33 -9 -66z" />
    <glyph glyph-name="overscore" unicode="&#xaf;" horiz-adv-x="297" 
d="M47 536q119 -12 212 13q11 3 27 -12q17 -17 -4 -21q-96 -21 -226 -7q-13 2 -20 16q-4 7 -2 10t10 2q2 0 3 -1z" />
    <glyph glyph-name="degree" unicode="&#xb0;" horiz-adv-x="218" 
d="M137 448h3q24 17 32 51q4 21 -2.5 35t-20.5 13q-17 -1 -32 -14.5t-20 -31.5q-5 -17 1 -37t19 -25q30 -11 24 -12q-1 -1 -7 -1q-28 2 -53 21t-24 48q1 25 24 43.5t51 21.5q28 2 51.5 -9.5t28.5 -34.5q5 -24 -10 -48.5t-39 -31.5q-17 -6 -28 5q-6 5 2 7z" />
    <glyph glyph-name="plusminus" unicode="&#xb1;" horiz-adv-x="274" 
d="M57 240q45 2 87 10l49 9q10 2 19.5 3.5t15.5 3t9 1.5q11 2 21 -11q11 -15 -7 -18q-125 -25 -186 -25q-10 0 -18 14t7 14q1 -1 3 -1zM58 339h4q115 -16 172 2q8 2 26 -15q18 -18 1 -22q-26 -5 -85 -5q-28 0 -56 5l-28 4q-24 4 -25 4q-10 2 -17 14q-7 13 8 13z" />
    <glyph glyph-name="uni00B2" unicode="&#xb2;" horiz-adv-x="144" 
d="M47 561q27 22 50 30t33 -2q22 -25 -6 -94q-5 -14 -16 -34q-2 -5 -24 -42l-20 -34l64 2q7 1 10 -7q1 -4 -3 -5h-2l-78 -3q-28 -15 -37 5q-6 7 6 27t30 43t21 28q17 36 24 76l3 16.5t0 5.5q-4 0 -17 -15q-18 -18 -37 -13q-14 3 -1 16z" />
    <glyph glyph-name="uni00B3" unicode="&#xb3;" horiz-adv-x="148" 
d="M47 575q72 27 88 -1q16 -34 -26 -81q21 -4 32 -28q5 -11 1.5 -24t-12.5 -21q-21 -18 -46.5 -22.5t-44.5 6.5q-8 5 13 15q16 7 16 1q-1 -7 6 -7q15 2 28 23q1 1 1 3q3 5 3.5 15.5t0 16.5t1.5 8q-9 0 -16 4q-9 -1 -15 4.5t-1 11.5q8 8 13.5 19.5t8.5 23t5 14.5q5 15 -9 15
q-8 1 -24 -8q-11 -7 -25 1q-8 5 2 11z" />
    <glyph glyph-name="acute" unicode="&#xb4;" horiz-adv-x="131" 
d="M126 576q-17 -30 -35 -84q-1 -2 -11 -3t-19 2t-8 9q21 58 41 90q3 1 11.5 0.5t16 -5t4.5 -9.5z" />
    <glyph glyph-name="uni00B5" unicode="&#xb5;" horiz-adv-x="303" 
d="M269 360v-2q-17 -110 0 -156l3 -5q6 -10 3 -10q-1 0 -3 2q-36 23 -43 78q-9 -11 -19 -15q-36 -17 -80 18q-19 -81 -46 -246q-3 -20 -26 -28q-8 -2 -12.5 0.5t-3.5 9.5q45 295 109 474q8 21 29 22q8 1 12.5 -2t3.5 -9q-1 -1 -1 -4q-31 -84 -57 -188q14 -21 21.5 -30
t15.5 -8q18 2 39 56q8 22 25 78q15 53 21 69q5 12 26 8q14 -4 12 -12l-15 -50q-4 -13 -8.5 -30t-5.5 -20z" />
    <glyph glyph-name="paragraph" unicode="&#xb6;" horiz-adv-x="333" 
d="M326 454h-4h-35q-11 -133 -13 -316q0 -14 -20 -22q-18 -8 -18 6q0 201 10 321q2 7 5 10q-42 -1 -78 -9q-11 -237 -20 -316q-2 -16 -22 -20q-18 -3 -18 9q9 80 15 188q-48 -9 -82 4t-31 45q2 29 33.5 55t75.5 38q0 2 5 4l13 3q7 7 17 9t13 -4q72 11 144 7q10 0 13 -9
q0 -1 -3 -3zM128 319l5 112q-55 -25 -74 -65q-17 -32 -6 -49q4 -7 20 -7.5t35 6.5q9 5 20 3z" />
    <glyph glyph-name="middot" unicode="&#xb7;" horiz-adv-x="143" 
d="M138 353q-2 -15 -4 -46q0 -2 -8.5 -4.5t-18 -2.5t-11.5 5q0 34 4 54q0 4 25 1q13 -2 13 -7z" />
    <glyph glyph-name="cedilla" unicode="&#xb8;" horiz-adv-x="175" 
d="M170 -37l-25 -63l-13.5 -37t-9.5 -26q-1 -4 -11.5 -4.5t-19 3t-6.5 9.5l22 59l26 67q1 4 11.5 4.5t19 -3t6.5 -9.5z" />
    <glyph glyph-name="uni00B9" unicode="&#xb9;" horiz-adv-x="188" 
d="M180 563v-3q-32 -125 -35 -199q-2 -10 -19 -17q-16 -7 -17 3q-2 77 23 180q-35 -23 -67 -29q-7 -1 -13 6q-5 6 5 6q19 8 32 17l41 28l20 14t14 10q8 5 17 -5q6 -6 0 -10z" />
    <glyph glyph-name="ordmasculine" unicode="&#xba;" horiz-adv-x="208" 
d="M110 521q-20 -43 -24 -69t2.5 -42.5t21.5 -13.5q25 6 42 25t16 38q-2 27 -20 47q-19 21 -38 15zM78 530q2 1 10 4q31 9 62 -3.5t47 -40.5q14 -26 -2 -57q-17 -32 -49 -44q-31 -12 -61 -3.5t-38 33.5q-11 35 22 101q1 1 1 3q-2 1 6 6q1 0 2 1z" />
    <glyph glyph-name="guillemotright" unicode="&#xbb;" horiz-adv-x="240" 
d="M172 406q5 -65 39 -125q12 -1 19.5 -5t4.5 -9l-35 -46l-30 -38q-5 -2 -19.5 2.5t-10.5 12.5q33 40 51 67q-46 67 -57 133q-1 5 4 8.5t16 5.5q18 4 18 -6zM66 196q9 12 32 35t28 30h1q-40 45 -67 109q-3 7 11 18q10 9 15 1q36 -87 62 -122q4 -4 2 -14q8 -5 3 -9
q-43 -41 -54 -61q-5 -3 -21.5 0.5t-11.5 12.5z" />
    <glyph glyph-name="onequarter" unicode="&#xbc;" horiz-adv-x="255" 
d="M251 407q-18 -91 -22 -128q-2 -8 -25 -10q-15 -1 -14 7q4 40 7 59q-50 -5 -60 25q0 9 -1 13.5t4 16t7.5 16.5t9 16.5t8.5 15.5q4 10 26 4q16 -3 11 -11q-21 -46 -25 -62q-3 -13 2.5 -18t20.5 0q5 31 12 59q0 8 23 6q16 -2 16 -9zM203 552q-48 -94 -99 -225q-4 -11 -27 -9
q-13 1 -13 8v4q54 135 101 228q7 11 27 7q15 -3 11 -13zM99 544q-21 -68 -21 -118q0 -7 -18 -16q-13 -7 -15 2q-10 56 16 139q1 3 11.5 4t19.5 -2t7 -9z" />
    <glyph glyph-name="onehalf" unicode="&#xbd;" horiz-adv-x="264" 
d="M177 429q26 18 47 13t19 -29q-1 -28 -41 -66q28 1 51 0q5 0 6 -7q2 -5 -3 -5q-2 -1 -3 0q-18 4 -81 -7q-3 0 -8 5t-2 8q-1 4 3 8q27 27 36 56l3 10q-11 -6 -25 2q-8 5 -2 12zM199 536l-71 -206q-3 -12 -26 -10q-7 1 -11 4t-3 7q52 156 72 208q4 10 26 9q14 -2 14 -9
q0 -2 -1 -3zM110 552q-11 -54 -13 -98q0 -3 -9 -7.5t-17.5 -4.5t-10.5 5q-2 50 11 108q2 8 25 6q14 -2 14 -9z" />
    <glyph glyph-name="threequarters" unicode="&#xbe;" horiz-adv-x="285" 
d="M215 600q-41 -128 -53 -224q-2 -11 -22 -17q-8 -2 -12.5 0t-3.5 7q3 41 12 88q-20 -35 -70 -37q-9 -1 -14 7q-1 4 3 5h3q30 0 44 34q8 17 9 25q4 13 -7 15l-4 1q-10 0 -14.5 5t2.5 11q17 15 25 34l3 7q7 5 3 5q-5 0 -21 -16q-8 -8 -23 1q-10 5 -2 13q57 31 75 10
q9 -11 -1.5 -29.5t-32.5 -34.5q24 -11 27 -31q15 64 34 123q4 10 26 9q7 -1 11 -4t3 -7zM266 402h-4q-7 -41 -7 -86q0 -8 -19 -15q-16 -7 -17 3q-3 52 4 99q-11 1 -27 1q-2 0 -5 3q-6 1 -9.5 3t-2.5 6q13 56 20 104q2 7 25 8q15 1 14 -7q-5 -40 -19 -106h6q6 36 18 71
q3 9 24 5q13 -3 13 -9v-3q-10 -29 -16 -65q8 -5 7 -9q0 -3 -5 -3z" />
    <glyph glyph-name="questiondown" unicode="&#xbf;" horiz-adv-x="176" 
d="M170 642q-7 -24 -4 -58q1 -7 -19 -14q-16 -6 -17 3q-5 53 1 74q1 2 5 3.5t10 1.5t11.5 -0.5t9.5 -3t3 -6.5zM158 517q-22 -130 -89 -218q-41 -54 -34 -140q4 -55 24 -67q18 -8 35.5 -0.5t29.5 25.5q15 23 38 21q16 0 7 -15q-32 -49 -74 -50q-29 -1 -54 11.5t-31 33.5
q-34 113 25 190q57 75 79 190q4 25 29 31q16 4 17 -7q0 -1 -2 -5z" />
    <glyph glyph-name="Agrave" unicode="&#xc0;" 
d="M86 592q-29 49 -65 139q-5 8 11 20q10 7 14 0q1 -4 4.5 -12t9.5 -23l11 -28q23 -54 34 -75q4 -9 -7 -20q-8 -8 -12 -1zM101 230q-29 84 -48 173q-8 -91 -11 -186q44 9 59 13zM110 204q-36 -8 -69 -18q-1 -23 -1 -78q0 -20 -21 -29q-16 -7 -18 7l2 89l-25 -8
q-10 -5 -25 10q-12 11 3 17q15 5 47 13q4 194 27 328q3 20 25 24q16 4 18 -8q0 -3 -1 -4l-3 -16q21 -162 63 -295q23 4 32 5q10 1 21 -9q11 -12 -6 -15q-26 -4 -38 -7q22 -69 53 -134q11 -24 2 -39q-4 -7 -11 4q-43 78 -75 163z" />
    <glyph glyph-name="Aacute" unicode="&#xc1;" 
d="M30 607q39 55 66 111q4 6 26 2q10 -3 12 -9q0 -1 -1 -2q-30 -61 -75 -117q-4 -6 -21 3q-13 6 -7 12zM101 230q-29 84 -48 173q-8 -91 -11 -186q44 9 59 13zM110 204q-36 -8 -69 -18q-1 -23 -1 -78q0 -20 -21 -29q-16 -7 -18 7l2 89l-25 -8q-10 -5 -25 10q-12 11 3 17
q15 5 47 13q4 194 27 328q3 20 25 24q16 4 18 -8q0 -3 -1 -4l-3 -16q21 -162 63 -295q23 4 32 5q10 1 21 -9q11 -12 -6 -15q-26 -4 -38 -7q22 -69 53 -134q11 -24 2 -39q-4 -7 -11 4q-43 78 -75 163z" />
    <glyph glyph-name="Acircumflex" unicode="&#xc2;" 
d="M98 680q22 -77 40 -104q6 -10 2 -17q-2 -5 -7 0q-37 28 -56 78q-14 -16 -30 -32q-1 -2 -9 0.5t-13.5 8t-1.5 9.5q24 27 43 56q1 3 14 0q15 9 18 1zM101 230q-29 84 -48 173q-8 -91 -11 -186q44 9 59 13zM110 204q-36 -8 -69 -18q-1 -23 -1 -78q0 -20 -21 -29
q-16 -7 -18 7l2 89l-25 -8q-10 -5 -25 10q-12 11 3 17q15 5 47 13q4 194 27 328q3 20 25 24q16 4 18 -8q0 -3 -1 -4l-3 -16q21 -162 63 -295q23 4 32 5q10 1 21 -9q11 -12 -6 -15q-26 -4 -38 -7q22 -69 53 -134q11 -24 2 -39q-4 -7 -11 4q-43 78 -75 163z" />
    <glyph glyph-name="Atilde" unicode="&#xc3;" 
d="M17 624q35 -19 58 -17t34 31q3 4 11.5 4t17 -4.5t5.5 -10.5q-4 -10 -17 -32q-14 -20 -39 -18q-16 2 -35 17q-21 16 -27 18q-24 9 -8 12zM101 230q-29 84 -48 173q-8 -91 -11 -186q44 9 59 13zM110 204q-36 -8 -69 -18q-1 -23 -1 -78q0 -20 -21 -29q-16 -7 -18 7l2 89
l-25 -8q-10 -5 -25 10q-12 11 3 17q15 5 47 13q4 194 27 328q3 20 25 24q16 4 18 -8q0 -3 -1 -4l-3 -16q21 -162 63 -295q23 4 32 5q10 1 21 -9q11 -12 -6 -15q-26 -4 -38 -7q22 -69 53 -134q11 -24 2 -39q-4 -7 -11 4q-43 78 -75 163z" />
    <glyph glyph-name="Adieresis" unicode="&#xc4;" 
d="M92 632q0 -36 1 -47q0 -4 -15 -9.5t-19 0.5q-5 27 -5 53q0 5 17.5 7t20.5 -4zM37 634q-3 -22 -2 -32q0 -5 -17.5 -8t-20.5 3q-1 20 2 39q0 5 23 5q16 1 15 -7zM101 230q-29 84 -48 173q-8 -91 -11 -186q44 9 59 13zM110 204q-36 -8 -69 -18q-1 -23 -1 -78q0 -20 -21 -29
q-16 -7 -18 7l2 89l-25 -8q-10 -5 -25 10q-12 11 3 17q15 5 47 13q4 194 27 328q3 20 25 24q16 4 18 -8q0 -3 -1 -4l-3 -16q21 -162 63 -295q23 4 32 5q10 1 21 -9q11 -12 -6 -15q-26 -4 -38 -7q22 -69 53 -134q11 -24 2 -39q-4 -7 -11 4q-43 78 -75 163z" />
    <glyph glyph-name="Aring" unicode="&#xc5;" 
d="M63 602q18 -4 24 0t5 17q-4 43 -21 55q-3 2 -8 -6.5t-8 -23t-1 -25.5q0 -1 -0.5 -7t-0.5 -7q3 1 10 -3zM53 602q-3 -18 -13 -8q-22 24 -14 59q9 35 41 38q15 1 30 -13t23 -33q9 -25 -5 -45q-14 -22 -40 -17q-20 5 -22 19zM101 230q-29 84 -48 173q-8 -91 -11 -186
q44 9 59 13zM110 204q-36 -8 -69 -18q-1 -23 -1 -78q0 -20 -21 -29q-16 -7 -18 7l2 89l-25 -8q-10 -5 -25 10q-12 11 3 17q15 5 47 13q4 194 27 328q3 20 25 24q16 4 18 -8q0 -3 -1 -4l-3 -16q21 -162 63 -295q23 4 32 5q10 1 21 -9q11 -12 -6 -15q-26 -4 -38 -7
q22 -69 53 -134q11 -24 2 -39q-4 -7 -11 4q-43 78 -75 163z" />
    <glyph glyph-name="AE" unicode="&#xc6;" 
d="M101 230q-29 84 -48 173q-8 -91 -11 -186q44 9 59 13zM110 204q-36 -8 -69 -18q-1 -23 -1 -78q0 -20 -21 -29q-16 -7 -18 7l2 89l-25 -8q-10 -5 -25 10q-12 11 3 17q15 5 47 13q4 194 27 328q3 20 25 24q16 4 18 -8q0 -3 -1 -4l-3 -16q21 -162 63 -295q23 4 32 5
q10 1 21 -9q11 -12 -6 -15q-26 -4 -38 -7q22 -69 53 -134q11 -24 2 -39q-4 -7 -11 4q-43 78 -75 163z" />
    <glyph glyph-name="Ccedilla" unicode="&#xc7;" horiz-adv-x="179" 
d="M129 291v4q2 3 3 19q3 24 4 40q1 19 1 38q0 21 -4 37q-5 21 -18 34.5t-25 9.5q-22 -9 -38 -57q-21 -62 -22 -144q-1 -51 10 -110q5 -28 12 -44q1 7 5 19q1 3 11 3t19 -3.5t7 -8.5q-6 -18 -9 -39q14 3 23 19q15 27 35 35q14 6 14 -9q-1 -1 -1 -5q-4 -20 -19 -36.5
t-33 -20.5q-14 -2 -22 -1l-4 -27q0 -7 -23 -8q-16 -1 -15 6q1 21 5 41q-10 8 -14 13q-31 40 -37 127q-9 108 15 182q13 43 53 69q39 26 69 6q53 -35 41 -153q-3 -31 -25 -43q-17 -9 -18 7z" />
    <glyph glyph-name="Egrave" unicode="&#xc8;" horiz-adv-x="192" 
d="M90 532q-15 35 -40 110q-2 6 11 14.5t17 1.5q7 -17 18 -52l19 -56q1 -3 -4.5 -10t-11 -9.5t-9.5 1.5zM13 284q0 71 8 162q-14 14 2 20q0 4 1 6q2 14 24 15q8 0 12.5 -2.5t3.5 -6.5v-2q49 12 90 31q8 5 24 -12q18 -15 2 -21q-19 -8 -37 -12l-47 -12l-35 -8q-7 -75 -9 -153
q38 5 60 12q6 1 19 -15q13 -15 -3 -18q-15 -3 -42 -6q-27 -2 -34 -3q-2 -65 3 -122q41 18 69 22q6 1 14 -10t-6 -16q-17 -6 -36 -17q-22 -12 -37 -19l4 -36q2 -15 -11 -26q-8 -8 -11 2q-7 24 -12 51q-10 0 -19 15q-8 12 6 15q1 1 7 3q-8 58 -10 135q-25 20 -6 27q4 0 6 1z
" />
    <glyph glyph-name="Eacute" unicode="&#xc9;" horiz-adv-x="192" 
d="M55 551q30 34 58 77l23 -3q15 -4 9 -11q-23 -36 -65 -80q-5 -5 -20 5q-11 8 -5 12zM13 284q0 71 8 162q-14 14 2 20q0 4 1 6q2 14 24 15q8 0 12.5 -2.5t3.5 -6.5v-2q49 12 90 31q8 5 24 -12q18 -15 2 -21q-19 -8 -37 -12l-47 -12l-35 -8q-7 -75 -9 -153q38 5 60 12
q6 1 19 -15q13 -15 -3 -18q-15 -3 -42 -6q-27 -2 -34 -3q-2 -65 3 -122q41 18 69 22q6 1 14 -10t-6 -16q-17 -6 -36 -17q-22 -12 -37 -19l4 -36q2 -15 -11 -26q-8 -8 -11 2q-7 24 -12 51q-10 0 -19 15q-8 12 6 15q1 1 7 3q-8 58 -10 135q-25 20 -6 27q4 0 6 1z" />
    <glyph glyph-name="Ecircumflex" unicode="&#xca;" horiz-adv-x="192" 
d="M24 549l42 56l39 54q2 4 16 2q12 3 14 -5v-1q6 -5 2 -9l-1 -1q9 -73 38 -96q18 -13 10 -13q-1 1 -3 1q-49 12 -72 71q-34 -44 -51 -71q-4 -2 -13 -2t-16.5 4t-4.5 10zM13 284q0 71 8 162q-14 14 2 20q0 4 1 6q2 14 24 15q8 0 12.5 -2.5t3.5 -6.5v-2q49 12 90 31
q8 5 24 -12q18 -15 2 -21q-19 -8 -37 -12l-47 -12l-35 -8q-7 -75 -9 -153q38 5 60 12q6 1 19 -15q13 -15 -3 -18q-15 -3 -42 -6q-27 -2 -34 -3q-2 -65 3 -122q41 18 69 22q6 1 14 -10t-6 -16q-17 -6 -36 -17q-22 -12 -37 -19l4 -36q2 -15 -11 -26q-8 -8 -11 2q-7 24 -12 51
q-10 0 -19 15q-8 12 6 15q1 1 7 3q-8 58 -10 135q-25 20 -6 27q4 0 6 1z" />
    <glyph glyph-name="Edieresis" unicode="&#xcb;" horiz-adv-x="192" 
d="M129 568l2 -21q0 -3 -17 -6.5t-19 1.5l-3 20q0 3 17.5 6.5t19.5 -0.5zM76 568q-1 -7 -1 -20q-2 -2 -20 -3.5t-19 5.5l2 20q0 1 9.5 2.5t19 0.5t9.5 -5zM13 284q0 71 8 162q-14 14 2 20q0 4 1 6q2 14 24 15q8 0 12.5 -2.5t3.5 -6.5v-2q49 12 90 31q8 5 24 -12
q18 -15 2 -21q-19 -8 -37 -12l-47 -12l-35 -8q-7 -75 -9 -153q38 5 60 12q6 1 19 -15q13 -15 -3 -18q-15 -3 -42 -6q-27 -2 -34 -3q-2 -65 3 -122q41 18 69 22q6 1 14 -10t-6 -16q-17 -6 -36 -17q-22 -12 -37 -19l4 -36q2 -15 -11 -26q-8 -8 -11 2q-7 24 -12 51
q-10 0 -19 15q-8 12 6 15q1 1 7 3q-8 58 -10 135q-25 20 -6 27q4 0 6 1z" />
    <glyph glyph-name="Igrave" unicode="&#xcc;" horiz-adv-x="166" 
d="M102 547q-35 51 -62 99q-5 6 11 17q10 9 15 1q21 -48 53 -97q4 -6 -5 -17q-8 -9 -12 -3zM60 453l3 35q1 16 22 22q9 2 14 0t4 -9l-4 -53q3 -1 20.5 -3.5t25.5 -4.5q7 -1 9 -17q1 -5 -1 -8t-7 -2q-3 0 -5 1q-13 5 -43 10q-8 -140 3 -268q27 0 51 -3q6 -1 9 -15
q3 -11 -6 -11q-3 0 -5 1q-28 5 -50 1q-8 -17 -22 -19q-7 -1 -9 8l-5 -4q-2 -1 -12 6.5t-15.5 15.5t3.5 15l25 3q-14 134 -6 275q-6 1 -14 1q-8 2 -12 14q-5 11 7 11q2 0 3 -1q3 0 9.5 -0.5t7.5 -0.5z" />
    <glyph glyph-name="Iacute" unicode="&#xcd;" horiz-adv-x="187" 
d="M80 570q38 37 68 84q5 6 23 -1q15 -4 10 -12q-33 -49 -78 -88q-5 -5 -19 5q-10 6 -4 12zM60 453l3 35q1 16 22 22q9 2 14 0t4 -9l-4 -53q3 -1 20.5 -3.5t25.5 -4.5q7 -1 9 -17q1 -5 -1 -8t-7 -2q-3 0 -5 1q-13 5 -43 10q-8 -140 3 -268q27 0 51 -3q6 -1 9 -15
q3 -11 -6 -11q-3 0 -5 1q-28 5 -50 1q-8 -17 -22 -19q-7 -1 -9 8l-5 -4q-2 -1 -12 6.5t-15.5 15.5t3.5 15l25 3q-14 134 -6 275q-6 1 -14 1q-8 2 -12 14q-5 11 7 11q2 0 3 -1q3 0 9.5 -0.5t7.5 -0.5z" />
    <glyph glyph-name="Icircumflex" unicode="&#xce;" horiz-adv-x="166" 
d="M23 551q48 72 73 104q1 3 11 1q13 4 15 -3q1 -1 1 -4q5 -5 1 -9q9 -49 28 -71q8 -8 5 -15q-1 -3 -6 0q-32 16 -51 52q-14 -19 -45 -68q-6 -6 -24 2q-13 4 -8 11zM60 453l3 35q1 16 22 22q9 2 14 0t4 -9l-4 -53q3 -1 20.5 -3.5t25.5 -4.5q7 -1 9 -17q1 -5 -1 -8t-7 -2
q-3 0 -5 1q-13 5 -43 10q-8 -140 3 -268q27 0 51 -3q6 -1 9 -15q3 -11 -6 -11q-3 0 -5 1q-28 5 -50 1q-8 -17 -22 -19q-7 -1 -9 8l-5 -4q-2 -1 -12 6.5t-15.5 15.5t3.5 15l25 3q-14 134 -6 275q-6 1 -14 1q-8 2 -12 14q-5 11 7 11q2 0 3 -1q3 0 9.5 -0.5t7.5 -0.5z" />
    <glyph glyph-name="Idieresis" unicode="&#xcf;" horiz-adv-x="166" 
d="M157 575l-4 -22q0 -4 -18 -6.5t-20 3.5q0 15 4 30q0 1 4 2t10 1.5t11.5 0t9.5 -2.5t3 -6zM72 581q-1 -5 -1.5 -10t0 -6t-1 -3t-2.5 -2.5t-5 -3.5q-20 -11 -25 -4q-5 20 -3 33q0 1 4 2t10 1.5t11.5 0.5t9.5 -2t3 -6zM60 453l3 35q1 16 22 22q9 2 14 0t4 -9l-4 -53
q3 -1 20.5 -3.5t25.5 -4.5q7 -1 9 -17q1 -5 -1 -8t-7 -2q-3 0 -5 1q-13 5 -43 10q-8 -140 3 -268q27 0 51 -3q6 -1 9 -15q3 -11 -6 -11q-3 0 -5 1q-28 5 -50 1q-8 -17 -22 -19q-7 -1 -9 8l-5 -4q-2 -1 -12 6.5t-15.5 15.5t3.5 15l25 3q-14 134 -6 275q-6 1 -14 1
q-8 2 -12 14q-5 11 7 11q2 0 3 -1q3 0 9.5 -0.5t7.5 -0.5z" />
    <glyph glyph-name="Eth" unicode="&#xd0;" horiz-adv-x="186" 
d="M11 458q1 9 1 29q1 18 23 25q10 2 15 0t4 -9l-2 -33q19 2 32 -5q61 -28 89 -119q20 -66 -4 -130q-13 -36 -37.5 -63.5t-51.5 -34.5l-11 -3l2 -16q3 -19 -17 -31q-14 -10 -16 6q-29 209 -27 359l-11 -12q-16 -24 -38 -27q-11 -2 -11 8q2 6 4 9q27 32 56 47zM67 133
q31 17 57 72q23 48 19 101q-6 80 -40 121q-21 25 -52 24q-4 -142 16 -318z" />
    <glyph glyph-name="Ntilde" unicode="&#xd1;" horiz-adv-x="229" 
d="M45 580q41 38 75 9q4 -3 11.5 -10t11.5 -10l11 -8t11 -4t11 2q8 3 22 -6q10 -6 0 -9q-49 -14 -83 20l-4 4q-26 26 -30 4q-3 -9 -24 -6q-18 3 -12 14zM23 148q5 82 10 155q7 102 9 147q0 5 4 9q-1 2 -1 7q-2 12 17 19q16 7 17 -3q30 -190 73 -346q-5 186 30 332
q4 18 26 19q16 1 16 -10v-3q-43 -162 -34 -372q1 -9 -6.5 -18t-16.5 -12q-2 -9 -4.5 -13t-6.5 -3q-3 0 -4 4q-46 93 -80 258l-4.5 -67.5l-4 -57t-1.5 -30.5q-2 -14 -20 -21q-19 -7 -19 6z" />
    <glyph glyph-name="Ograve" unicode="&#xd2;" horiz-adv-x="178" 
d="M86 559q-34 30 -48 53q-2 2 5.5 8t14.5 8.5t10 -2.5q6 -28 28 -50q4 -4 -2 -15q-3 -7 -8 -2zM78 486l-3 -4q-36 -76 -38 -168q0 -78 18 -136q20 -62 40 -59q13 3 25 67q13 68 14 141q4 149 -36 177q-5 4 -39 13q-3 1 0 2q2 1 9 1q33 2 60.5 -26t37.5 -73q10 -43 6 -108
q-13 -202 -73 -208q-40 -4 -69 58q-28 60 -31 141q-5 113 30 169q16 28 41 23q13 -2 8 -10z" />
    <glyph glyph-name="Oacute" unicode="&#xd3;" horiz-adv-x="178" 
d="M66 571q28 25 61 70q7 4 25 -4q10 -5 5 -11q-34 -45 -71 -73q-5 -5 -17 6q-9 7 -3 12zM78 486l-3 -4q-36 -76 -38 -168q0 -78 18 -136q20 -62 40 -59q13 3 25 67q13 68 14 141q4 149 -36 177q-5 4 -39 13q-3 1 0 2q2 1 9 1q33 2 60.5 -26t37.5 -73q10 -43 6 -108
q-13 -202 -73 -208q-40 -4 -69 58q-28 60 -31 141q-5 113 30 169q16 28 41 23q13 -2 8 -10z" />
    <glyph glyph-name="Ocircumflex" unicode="&#xd4;" horiz-adv-x="178" 
d="M109 637q15 -81 47 -96q13 -6 15 -11q0 -4 -6 -2q-50 6 -79 65l-43 -48q-1 -2 -9 0.5t-14 7.5t-2 9q30 33 54 64q0 1 3 1q5 7 18 12q15 5 16 -2zM78 486l-3 -4q-36 -76 -38 -168q0 -78 18 -136q20 -62 40 -59q13 3 25 67q13 68 14 141q4 149 -36 177q-5 4 -39 13
q-3 1 0 2q2 1 9 1q33 2 60.5 -26t37.5 -73q10 -43 6 -108q-13 -202 -73 -208q-40 -4 -69 58q-28 60 -31 141q-5 113 30 169q16 28 41 23q13 -2 8 -10z" />
    <glyph glyph-name="Otilde" unicode="&#xd5;" horiz-adv-x="178" 
d="M16 576q31 33 66 4q21 -17 42 11q7 12 29 7q14 -4 7 -14q-16 -18 -35.5 -25t-33.5 -1t-30 17q-7 7 -7 -3q1 -4 -4.5 -6.5t-16.5 -1.5q-9 0 -13.5 3.5t-3.5 8.5zM78 486l-3 -4q-36 -76 -38 -168q0 -78 18 -136q20 -62 40 -59q13 3 25 67q13 68 14 141q4 149 -36 177
q-5 4 -39 13q-3 1 0 2q2 1 9 1q33 2 60.5 -26t37.5 -73q10 -43 6 -108q-13 -202 -73 -208q-40 -4 -69 58q-28 60 -31 141q-5 113 30 169q16 28 41 23q13 -2 8 -10z" />
    <glyph glyph-name="Odieresis" unicode="&#xd6;" horiz-adv-x="178" 
d="M61 579q0 -4 -0.5 -8t-1 -7t-0.5 -5v-3q0 -2 -9 -4t-18.5 -2t-10.5 4q0 18 1 25q0 4 19.5 5.5t19.5 -5.5zM127 577q-1 -5 -2.5 -10.5t-2.5 -8.5v-2q0 -3 -17 -9q-18 -5 -19 2q-1 13 3 34q0 1 4 1.5t10 1t12 0t9.5 -2.5t2.5 -6zM78 486l-3 -4q-36 -76 -38 -168
q0 -78 18 -136q20 -62 40 -59q13 3 25 67q13 68 14 141q4 149 -36 177q-5 4 -39 13q-3 1 0 2q2 1 9 1q33 2 60.5 -26t37.5 -73q10 -43 6 -108q-13 -202 -73 -208q-40 -4 -69 58q-28 60 -31 141q-5 113 30 169q16 28 41 23q13 -2 8 -10z" />
    <glyph glyph-name="multiply" unicode="&#xd7;" horiz-adv-x="177" 
d="M106 346q18 -62 42 -131q4 -15 -10 -28q-10 -7 -14 2l-42 120l-28 -50q-6 -10 -27 -7q-15 3 -11 13l53 87q-9 28 -34 118q-5 14 14 25q14 9 17 -3l27 -102l43 64q8 11 27 4q13 -4 8 -13z" />
    <glyph glyph-name="Oslash" unicode="&#xd8;" horiz-adv-x="218" 
d="M76 512q-38 -91 -37 -192q0 -50 7 -96q40 149 80 256q-11 42 -28 55q-6 5 -39 15q-6 1 2 3h7q40 0 69 -43q23 56 38 85q7 17 27 12q14 -4 10 -16q-28 -57 -52 -127q6 -18 9 -37q9 -48 6 -116q-13 -232 -73 -237q-26 -2 -48 29l-7 -28q-5 -18 -27 -21q-17 -3 -17 8
q0 3 1 4l12 47l12 43q-25 71 -28 154q-6 120 28 188q16 31 41 28q10 -1 11 -7q0 -3 -4 -7zM136 394q-28 -90 -72 -253q18 -56 35 -53q15 3 25 78q12 83 13 165q0 44 -1 63z" />
    <glyph glyph-name="Ugrave" unicode="&#xd9;" horiz-adv-x="151" 
d="M73 518q-24 40 -31 77q0 6 16.5 10.5t19.5 -1.5q4 -43 15 -67q3 -6 -8 -18q-7 -7 -12 -1zM144 457q-38 -222 1 -366q5 -20 -4 -33q-6 -7 -10 3q-14 34 -20 53q-25 -18 -52 -13.5t-42 28.5q-6 9 -11 32q0 2 -1.5 13t-2.5 13q0 23 -2 29q-4 56 0 114q6 87 20 134
q4 15 28 12q13 -1 13 -9q0 -2 -1 -3q-15 -54 -21 -131q-5 -59 -2 -94q6 -101 30 -117q5 -5 10 0q13 8 30 7q-34 133 -4 319q3 15 24 19q9 1 13.5 -1.5t3.5 -8.5z" />
    <glyph glyph-name="Uacute" unicode="&#xda;" horiz-adv-x="151" 
d="M70 524q25 24 38 44q5 5 23 -4q11 -6 6 -11q-9 -12 -41 -44q-5 -6 -20 3q-12 6 -6 12zM144 457q-38 -222 1 -366q5 -20 -4 -33q-6 -7 -10 3q-14 34 -20 53q-25 -18 -52 -13.5t-42 28.5q-6 9 -11 32q0 2 -1.5 13t-2.5 13q0 23 -2 29q-4 56 0 114q6 87 20 134q4 15 28 12
q13 -1 13 -9q0 -2 -1 -3q-15 -54 -21 -131q-5 -59 -2 -94q6 -101 30 -117q5 -5 10 0q13 8 30 7q-34 133 -4 319q3 15 24 19q9 1 13.5 -1.5t3.5 -8.5z" />
    <glyph glyph-name="Ucircumflex" unicode="&#xdb;" horiz-adv-x="166" 
d="M103 611q19 -54 47 -65q8 -3 11 -9q1 -2 0 -3t-5 0q-48 8 -73 46q-26 -28 -40 -41q-5 -5 -19 6q-10 7 -4 12q23 24 55 62q5 5 21 -4q6 0 7 -4zM144 457q-38 -222 1 -366q5 -20 -4 -33q-6 -7 -10 3q-14 34 -20 53q-25 -18 -52 -13.5t-42 28.5q-6 9 -11 32q0 2 -1.5 13
t-2.5 13q0 23 -2 29q-4 56 0 114q6 87 20 134q4 15 28 12q13 -1 13 -9q0 -2 -1 -3q-15 -54 -21 -131q-5 -59 -2 -94q6 -101 30 -117q5 -5 10 0q13 8 30 7q-34 133 -4 319q3 15 24 19q9 1 13.5 -1.5t3.5 -8.5z" />
    <glyph glyph-name="Udieresis" unicode="&#xdc;" horiz-adv-x="151" 
d="M118 547l-4 -24q0 -1 -10 -2t-19.5 0.5t-9.5 6.5l4 24q0 1 9.5 2t19.5 -0.5t10 -6.5zM68 566l-3 -20q0 -4 -24 -3q-15 0 -14 6l2 20q0 1 9.5 2.5t19.5 0.5t10 -6zM144 457q-38 -222 1 -366q5 -20 -4 -33q-6 -7 -10 3q-14 34 -20 53q-25 -18 -52 -13.5t-42 28.5
q-6 9 -11 32q0 2 -1.5 13t-2.5 13q0 23 -2 29q-4 56 0 114q6 87 20 134q4 15 28 12q13 -1 13 -9q0 -2 -1 -3q-15 -54 -21 -131q-5 -59 -2 -94q6 -101 30 -117q5 -5 10 0q13 8 30 7q-34 133 -4 319q3 15 24 19q9 1 13.5 -1.5t3.5 -8.5z" />
    <glyph glyph-name="Yacute" unicode="&#xdd;" horiz-adv-x="167" 
d="M68 542q24 28 51 68q6 7 25 0q13 -4 8 -12q-23 -34 -54 -70q-7 -7 -24 1q-12 6 -6 13zM162 492q-51 -296 -66 -403q-3 -17 -24 -25q-9 -2 -13.5 0t-3.5 9q14 105 28 190q-23 29 -40 75l-19 51l-15 42q-3 7 13 17q12 9 15 1q0 -1 54 -138l29 167q3 19 26 24q9 2 13 -0.5
t3 -9.5z" />
    <glyph glyph-name="Thorn" unicode="&#xde;" horiz-adv-x="230" 
d="M97 470q43 10 69 0q25 -9 42.5 -27t17.5 -36q0 -33 -36 -56t-86 -26q-1 0 -2 -1q2 -91 1 -127q0 -19 -21 -28q-19 -4 -20 9q2 115 1 142q0 14 -2 62t-3 83l-4 147q0 21 21 29q16 6 18 -8q0 -71 4 -163zM98 455l4 -118q28 0 54.5 17.5t31.5 37.5q9 33 -13 56
q-22 25 -63 10z" />
    <glyph glyph-name="germandbls" unicode="&#xdf;" horiz-adv-x="258" 
d="M67 151q-36 192 -22 308q6 54 34 115q27 59 64 69q20 6 40 -24q20 -29 25 -69q6 -49 -18 -89q-9 -16 -25 -29q38 6 58 -11q16 -13 24.5 -35t6.5 -44q-1 -22 -14 -40t-32 -26q-27 -11 -74 6q-25 10 -31 23q-3 5 2 5q4 0 10 -3q42 -16 66.5 -10t30.5 28q9 30 1 62
q-4 18 -17.5 27.5t-28.5 2.5q-16 -9 -29 -1q-4 4 3 10q-8 5 -1 17q21 38 27 86t-4 79q-5 23 -23 5q-9 -8 -17 -25q-22 -43 -27 -71q-28 -152 -2 -323q5 -35 -11 -51q-11 -11 -16 8z" />
    <glyph glyph-name="agrave" unicode="&#xe0;" horiz-adv-x="206" 
d="M94 423q-45 31 -64 70q-1 3 6 9t14.5 8t10.5 -3q11 -41 38 -67q6 -6 2 -15q-2 -5 -7 -2zM97 367q2 -39 13 -78q9 -36 21 -59q17 -31 28 1q5 15 27 16q9 1 13 -1t3 -7q0 -3 -1 -4q-9 -23 -29.5 -34t-37.5 -5q-19 8 -32 28q-28 -28 -56 -24q-19 4 -32 21.5t-14 40.5
q-1 43 17.5 76t48.5 41q9 1 15 -6q16 3 16 -6zM88 250q0 3 -1 4q-18 43 -27 95q-15 -23 -21 -59q-5 -29 3 -62q4 -19 22 -1q1 1 2.5 3t3 4.5t2.5 3.5q6 8 16 12z" />
    <glyph glyph-name="aacute" unicode="&#xe1;" horiz-adv-x="206" 
d="M54 439q20 19 53 61q7 8 24 1q14 -5 7 -13q-24 -33 -58 -65q-7 -6 -22 3q-10 7 -4 13zM97 367q2 -39 13 -78q9 -36 21 -59q17 -31 28 1q5 15 27 16q9 1 13 -1t3 -7q0 -3 -1 -4q-9 -23 -29.5 -34t-37.5 -5q-19 8 -32 28q-28 -28 -56 -24q-19 4 -32 21.5t-14 40.5
q-1 43 17.5 76t48.5 41q9 1 15 -6q16 3 16 -6zM88 250q0 3 -1 4q-18 43 -27 95q-15 -23 -21 -59q-5 -29 3 -62q4 -19 22 -1q1 1 2.5 3t3 4.5t2.5 3.5q6 8 16 12z" />
    <glyph glyph-name="acircumflex" unicode="&#xe2;" horiz-adv-x="206" 
d="M110 498q17 -47 38 -72q6 -6 0 -16q-3 -7 -8 -2q-30 26 -48 54q-22 -30 -36 -59q-2 -1 -11.5 -1.5t-18 3t-5.5 9.5q18 34 57 86q1 4 17 -2q13 8 15 0zM97 367q2 -39 13 -78q9 -36 21 -59q17 -31 28 1q5 15 27 16q9 1 13 -1t3 -7q0 -3 -1 -4q-9 -23 -29.5 -34t-37.5 -5
q-19 8 -32 28q-28 -28 -56 -24q-19 4 -32 21.5t-14 40.5q-1 43 17.5 76t48.5 41q9 1 15 -6q16 3 16 -6zM88 250q0 3 -1 4q-18 43 -27 95q-15 -23 -21 -59q-5 -29 3 -62q4 -19 22 -1q1 1 2.5 3t3 4.5t2.5 3.5q6 8 16 12z" />
    <glyph glyph-name="atilde" unicode="&#xe3;" horiz-adv-x="206" 
d="M12 428q12 21 30.5 29.5t27.5 -0.5q6 -3 14.5 -9l12.5 -9t12 -5t12 2q7 4 23 -4q10 -7 1 -11q-44 -17 -76 11q-11 10 -13 9t-5 -15q-2 -11 -23 -11q-17 0 -17 10q0 2 1 3zM97 367q2 -39 13 -78q9 -36 21 -59q17 -31 28 1q5 15 27 16q9 1 13 -1t3 -7q0 -3 -1 -4
q-9 -23 -29.5 -34t-37.5 -5q-19 8 -32 28q-28 -28 -56 -24q-19 4 -32 21.5t-14 40.5q-1 43 17.5 76t48.5 41q9 1 15 -6q16 3 16 -6zM88 250q0 3 -1 4q-18 43 -27 95q-15 -23 -21 -59q-5 -29 3 -62q4 -19 22 -1q1 1 2.5 3t3 4.5t2.5 3.5q6 8 16 12z" />
    <glyph glyph-name="adieresis" unicode="&#xe4;" horiz-adv-x="206" 
d="M93 456q-1 -20 0 -24q0 -4 -15.5 -10t-18.5 0q-5 25 -4 32q0 3 8.5 5.5t18 2t11.5 -5.5zM42 451l-3 -18q0 -1 -4 -1.5t-10 0l-11.5 1t-9.5 2.5t-3 5l3 18h4q5 1 10.5 1t11 -1t9.5 -2.5t3 -4.5zM97 367q2 -39 13 -78q9 -36 21 -59q17 -31 28 1q5 15 27 16q9 1 13 -1t3 -7
q0 -3 -1 -4q-9 -23 -29.5 -34t-37.5 -5q-19 8 -32 28q-28 -28 -56 -24q-19 4 -32 21.5t-14 40.5q-1 43 17.5 76t48.5 41q9 1 15 -6q16 3 16 -6zM88 250q0 3 -1 4q-18 43 -27 95q-15 -23 -21 -59q-5 -29 3 -62q4 -19 22 -1q1 1 2.5 3t3 4.5t2.5 3.5q6 8 16 12z" />
    <glyph glyph-name="aring" unicode="&#xe5;" horiz-adv-x="206" 
d="M57 439h5q31 8 35 25q8 32 -9 38q-9 4 -23.5 -6.5t-16.5 -21.5q-6 -20 9 -35zM97 367q2 -39 13 -78q9 -36 21 -59q17 -31 28 1q5 15 27 16q9 1 13 -1t3 -7q0 -3 -1 -4q-9 -23 -29.5 -34t-37.5 -5q-19 8 -32 28q-28 -28 -56 -24q-19 4 -32 21.5t-14 40.5q-1 43 17.5 76
t48.5 41q9 1 15 -6q16 3 16 -6zM84 427q14 -6 5 -8h-4q-24 -2 -46.5 10t-28.5 32q-4 19 15 36q20 17 44 19q23 2 43 -8.5t24 -29.5q4 -17 -12.5 -32t-39.5 -19zM88 250q0 3 -1 4q-18 43 -27 95q-15 -23 -21 -59q-5 -29 3 -62q4 -19 22 -1q1 1 2.5 3t3 4.5t2.5 3.5q6 8 16 12
z" />
    <glyph glyph-name="ae" unicode="&#xe6;" horiz-adv-x="206" 
d="M118 309q36 14 41 29q4 10 2.5 25.5t-9.5 17.5q-18 2 -32.5 -20t-15.5 -49q2 -13 6 -23q9 -36 21 -59q17 -31 28 1q5 15 27 16q9 1 13 -1t3 -7q0 -3 -1 -4q-9 -23 -29.5 -34t-37.5 -5q-19 8 -32 28q-28 -28 -56 -24q-19 4 -32 21.5t-14 40.5q-1 43 17.5 76t48.5 41
q9 1 15 -6q12 2 14 -2q16 20 42 25q21 3 41.5 -12t21.5 -36q1 -15 -15.5 -29.5t-40.5 -20.5q-25 -6 -34 4q-4 4 5 6q1 1 3 1zM88 250q0 3 -1 4q-18 43 -27 95q-15 -23 -21 -59q-5 -29 3 -62q4 -19 22 -1q1 1 2.5 3t3 4.5t2.5 3.5q6 8 16 12z" />
    <glyph glyph-name="ccedilla" unicode="&#xe7;" horiz-adv-x="168" 
d="M83 297l-3 7l-6 17.5t-6 15.5l-5 12t-3.5 7.5t-2.5 1.5q-11 -5 -15 -53q-8 -65 9 -100q1 4 1 14q2 7 23 10q17 1 16 -8l-3 -31q11 5 17 15q11 21 20 60q5 18 24 22q8 1 11.5 -1.5t2.5 -7.5q-22 -93 -76 -104q-1 -3 -1 -10q0 -2 -10 -5t-19.5 -2.5t-9.5 6.5l2 18
q-30 19 -41 64q-9 43 2 79q10 30 38 37t47 -16q17 -23 4 -44q-9 -14 -16 -4z" />
    <glyph glyph-name="egrave" unicode="&#xe8;" horiz-adv-x="167" 
d="M81 424q-28 30 -35 42q-2 5 8.5 14t15.5 4q12 -29 23 -42q5 -5 -3 -16q-5 -8 -9 -2zM76 271q27 47 30 67q1 9 -3 14t-11 2.5t-14 -12.5q-21 -34 -17 -83q3 -35 19 -45q7 -5 17.5 1t17.5 19q11 20 35 23q7 1 10.5 -1.5t2.5 -6.5l-3 -8q-15 -25 -38.5 -36t-44.5 -5
q-22 7 -38 29t-16 49q-1 35 17.5 64t42.5 34q26 5 43 -25q16 -28 0 -64q-13 -30 -41 -35q-8 -1 -11.5 1t-2.5 7q0 4 5 11z" />
    <glyph glyph-name="eacute" unicode="&#xe9;" horiz-adv-x="167" 
d="M56 420q20 24 42 46q2 2 10 -0.5t13 -7.5t1 -9q-10 -10 -39 -44q-5 -6 -22 3q-11 6 -5 12zM76 271q27 47 30 67q1 9 -3 14t-11 2.5t-14 -12.5q-21 -34 -17 -83q3 -35 19 -45q7 -5 17.5 1t17.5 19q11 20 35 23q7 1 10.5 -1.5t2.5 -6.5l-3 -8q-15 -25 -38.5 -36t-44.5 -5
q-22 7 -38 29t-16 49q-1 35 17.5 64t42.5 34q26 5 43 -25q16 -28 0 -64q-13 -30 -41 -35q-8 -1 -11.5 1t-2.5 7q0 4 5 11z" />
    <glyph glyph-name="ecircumflex" unicode="&#xea;" horiz-adv-x="174" 
d="M102 475q18 -59 57 -75q9 -5 10 -10q1 -2 0 -3t-5 0q-47 9 -79 50l-33 -34q-2 -1 -9.5 1.5t-13 7.5t-1.5 9q28 30 48 54q1 1 8 0q16 9 18 0zM76 271q27 47 30 67q1 9 -3 14t-11 2.5t-14 -12.5q-21 -34 -17 -83q3 -35 19 -45q7 -5 17.5 1t17.5 19q11 20 35 23
q7 1 10.5 -1.5t2.5 -6.5l-3 -8q-15 -25 -38.5 -36t-44.5 -5q-22 7 -38 29t-16 49q-1 35 17.5 64t42.5 34q26 5 43 -25q16 -28 0 -64q-13 -30 -41 -35q-8 -1 -11.5 1t-2.5 7q0 4 5 11z" />
    <glyph glyph-name="edieresis" unicode="&#xeb;" horiz-adv-x="167" 
d="M128 439q-5 -16 -4 -19q0 -3 -14.5 -10t-17.5 -1q-7 19 -2 37q0 4 24 2q15 -3 14 -9zM74 453q-1 -5 -1.5 -9.5t-1 -7.5t-1 -5t-0.5 -3v-2q0 -4 -15 -11q-16 -8 -17 -1q-6 17 -3 40q3 5 25 6q15 1 14 -7zM76 271q27 47 30 67q1 9 -3 14t-11 2.5t-14 -12.5q-21 -34 -17 -83
q3 -35 19 -45q7 -5 17.5 1t17.5 19q11 20 35 23q7 1 10.5 -1.5t2.5 -6.5l-3 -8q-15 -25 -38.5 -36t-44.5 -5q-22 7 -38 29t-16 49q-1 35 17.5 64t42.5 34q26 5 43 -25q16 -28 0 -64q-13 -30 -41 -35q-8 -1 -11.5 1t-2.5 7q0 4 5 11z" />
    <glyph glyph-name="igrave" unicode="&#xec;" horiz-adv-x="66" 
d="M47 424q-27 30 -34 53q-2 8 14 18q12 7 15 -1q13 -43 19 -51q4 -5 -4 -18q-6 -7 -10 -1zM56 366q-9 -85 -8 -197q0 -10 -20 -16q-16 -5 -18 6q-1 133 6 203q1 10 23 13q17 2 17 -9z" />
    <glyph glyph-name="iacute" unicode="&#xed;" horiz-adv-x="108" 
d="M26 424q20 31 49 66q4 4 18.5 -3t9.5 -14q-31 -38 -44 -62h-11t-17 4t-5 9zM56 366q-9 -85 -8 -197q0 -10 -20 -16q-16 -5 -18 6q-1 133 6 203q1 10 23 13q17 2 17 -9z" />
    <glyph glyph-name="icircumflex" unicode="&#xee;" horiz-adv-x="112" 
d="M-12 433q32 36 47 55q4 7 23 -2q12 -4 6 -12q0 -1 -1 -2q11 -38 37 -54q6 -4 7 -10q0 -3 -2 -3t-4 1q-38 11 -60 40q-1 -1 -4.5 -5l-9 -10l-12.5 -13q-5 -6 -22 2q-11 7 -5 13zM56 366q-9 -85 -8 -197q0 -10 -20 -16q-16 -5 -18 6q-1 133 6 203q1 10 23 13q17 2 17 -9z
" />
    <glyph glyph-name="idieresis" unicode="&#xef;" horiz-adv-x="82" 
d="M78 447q-1 -5 -2 -9t-1.5 -5.5t-0.5 -2.5q0 -4 -15 -11q-15 -8 -17 0q-6 17 -3 30q0 2 9.5 3.5t19.5 0.5t10 -6zM33 457l-3 -24q0 -1 -10 -2.5t-19.5 -0.5t-9.5 6l3 24q0 1 10 2.5t19.5 0.5t9.5 -6zM56 366q-9 -85 -8 -197q0 -10 -20 -16q-16 -5 -18 6q-1 133 6 203
q1 10 23 13q17 2 17 -9z" />
    <glyph glyph-name="eth" unicode="&#xf0;" horiz-adv-x="185" 
d="M70 382q-42 -39 -49 -65q-13 -48 6 -82q12 -20 33.5 -27.5t39.5 2.5q34 20 36 73q0 34 -11 70q-11 34 -23 61l-36 71q-23 -16 -24 -17q-8 -4 -18 6q-8 7 -1 11l32 22q-17 31 -27 57q-12 29 7 45q14 12 20 -1l2 -4q8 -39 26 -78l36 27q7 4 20 -6q8 -7 1 -11l-46 -32
q6 -14 26 -50q36 -64 55 -113q17 -45 -11 -98q-15 -30 -43 -44t-55 -9q-28 5 -52 25.5t-33 48.5q-8 24 0.5 53.5t30.5 50.5q34 34 62 32q14 0 5 -10q-2 -2 -9 -8z" />
    <glyph glyph-name="ntilde" unicode="&#xf1;" horiz-adv-x="165" 
d="M14 451q9 11 22.5 13t19.5 -3q12 -5 25 -13q17 -11 43 18q10 10 29 4q15 -5 4 -14q-31 -28 -59 -24q-28 6 -45 21q2 -2 -4 -4q-23 -11 -32 -4q-5 1 -3 6zM46 261l-3 -4q0 -35 5 -72q2 -11 -15 -21q-12 -8 -15 2q-20 95 -7 219q1 10 24 13q8 1 12 -1t3 -7q-4 -42 -5 -61
q30 41 54 32q15 -5 21 -38q4 -27 10 -93q2 -12 -14 -23q-12 -10 -15 2q-25 70 -20 132l-3 -8q-4 -8 -13 -29z" />
    <glyph glyph-name="ograve" unicode="&#xf2;" horiz-adv-x="130" 
d="M74 403q-25 55 -28 80q-1 5 7.5 10t16.5 5.5t12 -4.5q3 -37 17 -70q4 -8 -10 -21q-11 -9 -15 0zM73 318l-7 7q-3 -9 -11 -44q-12 -58 -5 -64q11 -8 23 5t14 30q4 43 -14 66zM70 337q52 -31 55 -73q2 -28 -21.5 -48t-51.5 -15q-21 4 -31 30t-4 57q13 66 49 77q14 5 15 -6
q1 -6 -3 -6q-4 -2 -8 -16z" />
    <glyph glyph-name="oacute" unicode="&#xf3;" horiz-adv-x="145" 
d="M48 405l60 88q7 4 24 -3q11 -4 7 -11q-10 -16 -23 -35l-21.5 -32l-13.5 -21q-7 -4 -26 4q-11 4 -7 10zM73 318l-7 7q-3 -9 -11 -44q-12 -58 -5 -64q11 -8 23 5t14 30q4 43 -14 66zM70 337q52 -31 55 -73q2 -28 -21.5 -48t-51.5 -15q-21 4 -31 30t-4 57q13 66 49 77
q14 5 15 -6q1 -6 -3 -6q-4 -2 -8 -16z" />
    <glyph glyph-name="ocircumflex" unicode="&#xf4;" horiz-adv-x="142" 
d="M105 482q2 -62 23 -85q6 -7 8 -10t1 -4q-3 0 -5 1q-35 12 -53 51l-18 -39q-2 -5 -25 -1q-12 3 -12 8q0 1 1 2q21 44 42 80v15q0 4 9.5 7t19.5 2t10 -7v-4q8 -5 4 -10q-4 -4 -5 -6zM73 318l-7 7q-3 -9 -11 -44q-12 -58 -5 -64q11 -8 23 5t14 30q4 43 -14 66zM70 337
q52 -31 55 -73q2 -28 -21.5 -48t-51.5 -15q-21 4 -31 30t-4 57q13 66 49 77q14 5 15 -6q1 -6 -3 -6q-4 -2 -8 -16z" />
    <glyph glyph-name="otilde" unicode="&#xf5;" horiz-adv-x="161" 
d="M20 414q9 22 27.5 25.5t30.5 -10.5q27 -23 39 -1q5 12 28 7q17 -3 9 -12q-13 -18 -36 -23.5t-33 2.5q-22 12 -28 23l2 -6q2 -5 -9 -10q-23 -11 -29 0q-2 2 -1 5zM73 318l-7 7q-3 -9 -11 -44q-12 -58 -5 -64q11 -8 23 5t14 30q4 43 -14 66zM70 337q52 -31 55 -73
q2 -28 -21.5 -48t-51.5 -15q-21 4 -31 30t-4 57q13 66 49 77q14 5 15 -6q1 -6 -3 -6q-4 -2 -8 -16z" />
    <glyph glyph-name="odieresis" unicode="&#xf6;" horiz-adv-x="130" 
d="M114 417l2 -29q0 -2 -8.5 -4.5t-17 -3t-11.5 3.5l-2 28q0 4 17.5 7.5t19.5 -2.5zM67 419v-23q0 -2 -9 -4t-18.5 -1.5t-10.5 4.5v22q0 2 9 4t18.5 2t10.5 -4zM73 318l-7 7q-3 -9 -11 -44q-12 -58 -5 -64q11 -8 23 5t14 30q4 43 -14 66zM70 337q52 -31 55 -73
q2 -28 -21.5 -48t-51.5 -15q-21 4 -31 30t-4 57q13 66 49 77q14 5 15 -6q1 -6 -3 -6q-4 -2 -8 -16z" />
    <glyph glyph-name="divide" unicode="&#xf7;" horiz-adv-x="255" 
d="M8 352l7 -3q101 -31 208 -17q10 2 23 -14q14 -15 -6 -17q-102 -10 -229 18q-9 2 -11 20q-1 7 1 10.5t7 2.5z" />
    <glyph glyph-name="oslash" unicode="&#xf8;" horiz-adv-x="130" 
d="M73 318l-7 7q-3 -9 -11 -44q-12 -58 -5 -64q11 -8 23 5t14 30q4 43 -14 66zM70 337q52 -31 55 -73q2 -28 -21.5 -48t-51.5 -15q-21 4 -31 30t-4 57q13 66 49 77q14 5 15 -6q1 -6 -3 -6q-4 -2 -8 -16z" />
    <glyph glyph-name="ugrave" unicode="&#xf9;" horiz-adv-x="184" 
d="M80 404q-44 47 -47 98q0 4 9.5 7.5t19.5 3t10 -6.5q-1 -49 18 -83q5 -8 -1 -18q-4 -6 -9 -1zM135 353q2 -126 32 -174l4 -5q12 -13 7 -13l-4 2q-28 12 -48 41q-7 -16 -16 -19q-21 -6 -42 6t-30 34q-18 42 -30 127q-1 5 4 9t15 8q21 7 21 -3q4 -50 15 -96q6 -30 19 -63
q1 -4 3 2l4 15q7 28 12 33q-13 42 -14 94q0 3 12.5 6.5t24.5 3t11 -7.5z" />
    <glyph glyph-name="uacute" unicode="&#xfa;" horiz-adv-x="184" 
d="M62 428q22 24 41 57q5 7 24 0q15 -4 10 -12q-19 -29 -47 -60q-6 -7 -22 2q-12 6 -6 13zM135 353q2 -126 32 -174l4 -5q12 -13 7 -13l-4 2q-28 12 -48 41q-7 -16 -16 -19q-21 -6 -42 6t-30 34q-18 42 -30 127q-1 5 4 9t15 8q21 7 21 -3q4 -50 15 -96q6 -30 19 -63
q1 -4 3 2l4 15q7 28 12 33q-13 42 -14 94q0 3 12.5 6.5t24.5 3t11 -7.5z" />
    <glyph glyph-name="ucircumflex" unicode="&#xfb;" horiz-adv-x="184" 
d="M91 471q16 -48 36 -71q6 -6 4 -14q-2 -6 -7 -1q-34 19 -54 54l-29 -29q-2 -1 -9.5 2t-13 8t-1.5 9q31 31 44 47q2 3 17 -3q12 5 13 -2zM135 353q2 -126 32 -174l4 -5q12 -13 7 -13l-4 2q-28 12 -48 41q-7 -16 -16 -19q-21 -6 -42 6t-30 34q-18 42 -30 127q-1 5 4 9t15 8
q21 7 21 -3q4 -50 15 -96q6 -30 19 -63q1 -4 3 2l4 15q7 28 12 33q-13 42 -14 94q0 3 12.5 6.5t24.5 3t11 -7.5z" />
    <glyph glyph-name="udieresis" unicode="&#xfc;" horiz-adv-x="184" 
d="M115 443l3 -24q0 -4 -17.5 -8t-19.5 2l-3 24q0 3 17.5 6.5t19.5 -0.5zM58 450l-5 -24q1 -3 -11 -12t-15 -3q-12 22 -8 42q3 6 26 4q14 -1 13 -7zM135 353q2 -126 32 -174l4 -5q12 -13 7 -13l-4 2q-28 12 -48 41q-7 -16 -16 -19q-21 -6 -42 6t-30 34q-18 42 -30 127
q-1 5 4 9t15 8q21 7 21 -3q4 -50 15 -96q6 -30 19 -63q1 -4 3 2l4 15q7 28 12 33q-13 42 -14 94q0 3 12.5 6.5t24.5 3t11 -7.5z" />
    <glyph glyph-name="yacute" unicode="&#xfd;" horiz-adv-x="150" 
d="M63 428q15 14 44 48q6 6 23 -3q11 -6 5 -13q-18 -21 -49 -48q-6 -6 -20 4q-9 8 -3 12zM44 381q0 -45 7 -87q6 -38 16 -62q10 -26 25 -10q5 85 12 143q2 18 23 22q18 4 19 -7q0 -2 -1 -3q-7 -57 -12 -135q12 -3 5 -13l-6 -8l-5 -70q-2 -24 -4.5 -75.5t-4.5 -75.5
q-1 -16 -21 -22q-20 -5 -20 9q7 60 14 209q-15 -3 -26 2q-30 13 -43 64q-13 47 -16 111q-1 5 4 8.5t17 5.5q9 2 13.5 0t3.5 -6z" />
    <glyph glyph-name="thorn" unicode="&#xfe;" horiz-adv-x="203" 
d="M74 381q53 26 88 -12q43 -45 36 -109q-7 -71 -57 -97q-18 -9 -40.5 -7t-39.5 15q-3 -62 -5 -187q0 -30 -21 -43q-14 -9 -17 5v5q0 359 38 644q3 28 27 39q16 6 17 -7q2 -1 0 -6q-14 -98 -26 -240zM64 241q3 -2 5 -9q2 -32 13 -51t26 -13q32 12 49 77q10 39 -4 81
q-12 33 -29.5 44.5t-31.5 -3.5q-8 -9 -20 -11q-6 -76 -8 -115z" />
    <glyph glyph-name="ydieresis" unicode="&#xff;" horiz-adv-x="150" 
d="M123 459l-2 -32q0 -3 -19 -5t-19 5q1 11 1 32q0 1 4 2.5t10 2l11.5 1t9.5 -1t4 -4.5zM62 458l2 -29q0 -3 -17.5 -6t-19.5 2l-2 28l1 1q1 0 3 1t4.5 2t5.5 2t5.5 1.5t5.5 1t5.5 0.5t4 -1t2.5 -3zM44 381q0 -45 7 -87q6 -38 16 -62q10 -26 25 -10q5 85 12 143q2 18 23 22
q18 4 19 -7q0 -2 -1 -3q-7 -57 -12 -135q12 -3 5 -13l-6 -8l-5 -70q-2 -24 -4.5 -75.5t-4.5 -75.5q-1 -16 -21 -22q-20 -5 -20 9q7 60 14 209q-15 -3 -26 2q-30 13 -43 64q-13 47 -16 111q-1 5 4 8.5t17 5.5q9 2 13.5 0t3.5 -6z" />
    <glyph glyph-name="quoteleft" unicode="&#x2018;" horiz-adv-x="144" 
d="M31 420q28 93 74 169q5 8 24 2q14 -5 9 -14q-41 -68 -68 -157q-3 -10 -25 -10q-7 1 -11 3.5t-3 6.5z" />
    <glyph glyph-name="quoteright" unicode="&#x2019;" horiz-adv-x="155" 
d="M117 435q-13 55 -47 132q-4 7 10 19q12 9 15 0l3.5 -7t6.5 -15l7 -18q28 -62 38 -96q2 -8 -15 -17q-17 -8 -18 2z" />
    <glyph glyph-name="quotedblleft" unicode="&#x201c;" horiz-adv-x="225" 
d="M170 414q-11 96 14 167q4 9 25 4q15 -4 11 -12q-22 -62 -16 -145q1 -7 -16 -16q-17 -8 -18 2zM104 413q-25 110 4 174q4 6 18 0t10 -14q-20 -47 0 -144q1 -7 -16 -17q-14 -8 -16 1z" />
    <glyph glyph-name="quotedblright" unicode="&#x201d;" horiz-adv-x="209" 
d="M203 527q7 -99 -17 -183q-2 -5 -12.5 -6.5t-19.5 1.5t-7 10q5 17 8 29q-8 -11 -27 -10q-14 0 -12 9q14 106 4 188q-1 10 15 20q14 8 17 -2q16 -94 5 -198q13 58 10 128q0 11 18 18q17 6 18 -4z" />
    <glyph glyph-name="Euro" unicode="&#x20ac;" horiz-adv-x="267" 
d="M243 489q-62 -58 -90 -150l-3 -10l29 9q9 3 16 -6q5 -6 -3 -9q-15 -5 -45 -13q-4 -25 -3 -53q22 6 58 18q8 2 16 -6q5 -6 -4 -8q-45 -13 -70 -21q1 -7 1 -20q5 -49 17 -75q10 -21 26.5 -29t31.5 4q16 14 36 9q13 -4 1 -14q-23 -17 -49.5 -19.5t-43.5 8.5q-34 20 -48 76
q-6 24 -9 48l-40 -13q-9 -3 -17 6q-5 5 4 8l52 17q-2 30 1 54l-60 -10q-9 -1 -14 7q-1 4 3 5h3q33 6 70 15q1 1 1 4q19 110 94 171q22 19 42 11q14 -6 -3 -14z" />
    <glyph glyph-name="uniF8FE" unicode="&#xf8fe;" horiz-adv-x="300" 
 />
    <glyph glyph-name="NULL" horiz-adv-x="0" 
 />
    <glyph glyph-name="CR" horiz-adv-x="333" 
 />
    </font>
</defs>
</svg>
