<?xml version="1.0" standalone="no"?>
<!DOCTYPE svg PUBLIC "-//W3C//DTD SVG 1.1//EN" "http://www.w3.org/Graphics/SVG/1.1/DTD/svg11.dtd" >
<svg>
<metadata>
Created by FontForge 20090622 at Wed Mar 22 04:51:39 2017
 By deploy user
PereEsquerr
</metadata>
<defs>
<font id="Selfish-Bold" horiz-adv-x="211" >
  <font-face 
    font-family="Selfish"
    font-weight="700"
    font-stretch="normal"
    units-per-em="1000"
    panose-1="0 0 0 0 0 0 0 0 0 0"
    ascent="800"
    descent="-200"
    x-height="353"
    cap-height="511"
    bbox="-53.5294 -168.923 489.167 757"
    underline-thickness="50"
    underline-position="-100"
    unicode-range="U+0020-U+F8FE"
  />
<missing-glyph horiz-adv-x="364" 
d="M298 0h-265v666h265v-666zM66 633v-600h199v600h-199z" />
    <glyph glyph-name=".notdef" horiz-adv-x="364" 
d="M298 0h-265v666h265v-666zM66 633v-600h199v600h-199z" />
    <glyph glyph-name=".null" horiz-adv-x="0" 
 />
    <glyph glyph-name="nonmarkingreturn" horiz-adv-x="333" 
 />
    <glyph glyph-name="space" unicode=" " horiz-adv-x="300" 
 />
    <glyph glyph-name="exclam" unicode="!" horiz-adv-x="215" 
d="M152 130q-11 -39 -12 -82q-2 -6 -23 -10.5t-23 5.5q0 53 14 98q5 5 31 1q17 -4 13 -12zM211 533q-28 -159 -41 -309q-1 -12 -24 -20q-11 -3 -17.5 -1t-5.5 9q12 155 39 315q3 14 28 18q11 1 16.5 -2t4.5 -10z" />
    <glyph glyph-name="quotedbl" unicode="&#x22;" horiz-adv-x="213" 
d="M209 502q-13 -69 -14 -130q-2 -8 -23 -13t-23 6q2 75 13 139q2 9 27 8q20 0 20 -10zM144 538q-10 -77 -17 -147q-1 -4 -13 -8t-23.5 -3t-10.5 8q8 79 17 149q1 4 13 7.5t23.5 2t10.5 -8.5z" />
    <glyph glyph-name="numbersign" unicode="#" horiz-adv-x="369" 
d="M306 374q31 3 55 3q7 0 -9 -13q-7 -4 -5 -6q-14 4 -46 1q-12 -32 -22 -79q21 5 63 11q15 3 21 -7q4 -6 -6 -7l-82 -15q-11 -51 -15 -103q-1 -13 -23 -22q-21 -7 -22 6q3 61 13 112l-39 -6q-10 -45 -16 -100q-1 -14 -26 -22q-11 -4 -16.5 -2t-4.5 10q5 51 17 109
q-12 0 -17 -1q-15 -2 -20 9q-3 4 5 6h3l32 3q8 37 18 72l-59 -10q-9 -1 -15 8q-2 4 -0.5 6t6.5 1l73 14q24 82 64 158q9 15 31 8q17 -5 11 -17q-33 -61 -57 -140l40 6q18 52 37 89q6 13 29 7q19 -4 13 -17q-21 -43 -31 -72zM252 351l-39 -8q-14 -50 -20 -76l39 6q7 37 20 78
z" />
    <glyph glyph-name="dollar" unicode="$" horiz-adv-x="214" 
d="M135 525l-4 -85q28 4 42 -8q8 -6 -5 -6q-2 -2 -6 0l-32 -10q-1 -94 0 -196q58 -26 75 -49q12 -16 -3.5 -44.5t-45.5 -49.5q-7 -6 -22 -11q1 -34 5 -84q1 -11 -19 -25q-18 -11 -19 2q-7 52 -11 99h-11q-37 0 -44 10q-4 4 4 5h8q23 0 42 6q-6 89 -7 146q-44 23 -70 42
q-32 29 -25 62q11 57 96 95l4 97q0 15 29 13q10 0 15 -2.5t4 -6.5zM130 199l2 -96q20 19 32 38q6 10 -3.5 26.5t-30.5 31.5zM82 241q-2 71 0 145q-8 -7 -24 -26q-24 -31 -25.5 -59t21.5 -44q19 -12 28 -16z" />
    <glyph glyph-name="percent" unicode="%" horiz-adv-x="291" 
d="M228 117q12 24 9 52l-1 9q-10 -14 -18 -51q-7 -34 -11 -41q5 5 19 -8q10 -10 2 -10q-29 3 -40 32.5t-1 60.5t35 39q17 8 34 -8.5t20 -41t-11 -47.5q-11 -14 -31 -3q-17 9 -6 17zM75 350q6 11 11 27.5t8 28.5l2 13q-40 -67 -31 -93q0 -2 4.5 -7t7.5 -10t1 -5t-6 3
q-26 10 -34 41t3 59.5t33 33.5q23 8 38 -11t14 -49t-17 -47q-10 -11 -29 -1q-16 7 -5 17zM284 562q-24 -56 -52 -136l-21 -60t-22 -66l-46 -147l-41 -134q-7 -22 -34 -27q-19 -4 -19 10q-1 3 0 6l53 170q73 243 130 379q9 21 36 23q18 2 18 -10q0 -2 -2 -8z" />
    <glyph glyph-name="ampersand" unicode="&#x26;" horiz-adv-x="273" 
d="M147 357l3 -12q12 35 19 66q10 46 9 78t-13 31q-21 0 -27 -76q-3 -38 9 -87zM238 177q26 -39 17 -39q-3 0 -20 12q-4 3 -7 7q-40 -73 -66 -105q-19 -25 -53 -24q-33 1 -44 30q-7 19 -1 44q2 11 10 32t8 22q12 30 23 61l27 75q-19 39 -31 79q-12 39 -9 82t22 65
q14 16 43 18t49 -11q14 -8 18.5 -32t-1.5 -47q-16 -72 -49 -168q12 -26 31 -54l9 -13q28 30 49 25q14 -3 -1 -23q-10 -13 -24 -36zM161 242l-31 -87q-10 -27 -18 -90l-2 -17q10 13 40 66q20 35 46 75l2 3q-30 40 -37 50z" />
    <glyph glyph-name="quotesingle" unicode="'" horiz-adv-x="101" 
d="M97 569q-6 -83 -6 -121q0 -10 -22 -16q-23 -8 -23 6q-1 45 4 120q1 12 23 19q26 8 24 -8z" />
    <glyph glyph-name="parenleft" unicode="(" horiz-adv-x="183" 
d="M158 556q-41 -137 -40 -283q2 -179 51 -281q15 -30 8 -33q-1 -1 -8 4q-91 82 -97 307q-4 159 37 285q6 19 33 16q17 -2 17 -11q0 -3 -1 -4z" />
    <glyph glyph-name="parenright" unicode=")" horiz-adv-x="155" 
d="M89 565q65 -158 62 -252q-1 -13 -5 -43q-11 -67 -16 -83l-11 -39q0 -3 -2 -8.5t-5 -16.5l-6 -21l-6 -21t-5 -15.5t-2 -6.5q-7 -24 -32 -31q-21 -8 -21 9q0 3 1 6l15 50l15 54l12 45q15 56 19 92q13 100 -33 235q-10 30 2 50q10 15 18 -4z" />
    <glyph glyph-name="asterisk" unicode="*" horiz-adv-x="274" 
d="M125 381q-34 52 -35 54q-5 10 5 23q9 12 15 3q13 -18 35 -52l34 48q6 8 28 1q17 -6 11 -16q-20 -27 -39 -56q42 3 75 2q9 0 15 -8q3 -6 -4 -7h-3q-61 0 -93 -3q24 -37 49 -83q5 -10 -11 -24q-13 -11 -17 -1q-21 43 -42 79l-36 -61q-4 -9 -29 -4q-19 4 -14 15l45 71
q-7 -1 -26 -5q-11 -3 -18 7q-5 6 5 9q36 6 50 8z" />
    <glyph glyph-name="plus" unicode="+" horiz-adv-x="227" 
d="M81 301v70q0 15 21 25q23 11 23 -5l3 -87q41 1 85 -4q9 -2 9 -26q2 -26 -15 -24l-9 3q-19 10 -68 7q3 -87 -6 -110q-1 -1 0 -7q1 -12 -2 -13q-1 0 -5 2q-34 24 -36 125q-12 -1 -33 -1q-8 0 -18 18q-13 24 8 24h5q5 0 38 3z" />
    <glyph glyph-name="comma" unicode="," horiz-adv-x="130" 
d="M125 182l-20 -98q-5 -22 -12.5 -60.5t-10.5 -52.5q-1 -6 -13.5 -9t-24 0t-9.5 11q11 46 23 111q12 68 20 98q2 12 27 11q10 0 15.5 -3t4.5 -8z" />
    <glyph glyph-name="hyphen" unicode="-" horiz-adv-x="310" 
d="M60 286l67 3q89 4 143 11q10 2 27 -18q22 -25 -7 -28q-34 -4 -107 -6q-71 -2 -105 -6q-11 -2 -26 16q-20 24 8 28z" />
    <glyph glyph-name="period" unicode="." horiz-adv-x="103" 
d="M93 178q4 -26 5 -39q0 -5 -19.5 -10t-23.5 2q-4 25 -5 40q0 4 20 9.5t23 -2.5z" />
    <glyph glyph-name="slash" unicode="/" horiz-adv-x="257" 
d="M18 -18q46 258 185 537q9 17 34 16q17 -1 15 -12q0 -4 -1 -5q-135 -269 -186 -516q-3 -17 -26 -28q-21 -10 -21 8z" />
    <glyph glyph-name="zero" unicode="0" horiz-adv-x="186" 
d="M105 201q24 81 28 121q6 51 -1 78t-23.5 42.5t-28.5 5.5q-48 -38 -43 -162q5 -103 29 -132q2 -2 14 -6q22 -8 24 -12q1 -1 -1.5 -2t-7.5 -2h-2q-42 -4 -69 44q-26 48 -33 115q-11 110 43 161q18 16 47 18t47 -8q38 -14 50 -74q11 -60 -11 -140q-14 -51 -44 -68
q-20 -11 -21 5q0 5 3 16z" />
    <glyph glyph-name="one" unicode="1" horiz-adv-x="132" 
d="M23 132h23v1v46v46q-1 -1 -1 -2q-4 -12 -30 -11q-9 0 -13.5 3t-3.5 9q37 116 48 158q0 42 1 61q0 9 16.5 16.5t25.5 3.5q10 1 14.5 -1.5t3.5 -8.5q-6 -38 -15 -74q-2 -87 0 -230q0 -9 -13 -18q25 -2 44 -9q7 -3 4 -15q-1 -10 -10 -5q-4 3 -9.5 5.5t-9.5 4t-10.5 2.5
l-10 1.5t-12 1t-11 0.5h-12.5h-13q-6 0 -11 8q-4 7 5 7z" />
    <glyph glyph-name="two" unicode="2" horiz-adv-x="279" 
d="M1 323q14 64 45 114q34 57 61 72q24 9 47 -5t26 -41q7 -72 -14 -158q-20 -83 -63 -153q102 39 145 60q10 4 22 -5q11 -8 -1 -13q-31 -15 -97 -39q-57 -21 -83 -32q-4 -1 -11 0q-19 -11 -32 -1q-7 6 0 16q77 110 92 285q1 11 -0.5 34.5t-1.5 25.5q2 15 -9 3
q-1 -1 -2.5 -3.5t-4 -6l-4.5 -6.5q-51 -82 -64 -125q-6 -23 -29 -34q-19 -10 -22 12z" />
    <glyph glyph-name="three" unicode="3" horiz-adv-x="226" 
d="M13 396q19 52 51 78q18 15 46 25t47 10t24 -8q18 -72 -56 -173q18 5 32 2q31 -5 49.5 -30t13.5 -56q-8 -45 -49 -91q-30 -31 -61.5 -45.5t-55.5 -5.5q-16 6 -4 25q10 15 16 9l2 -4q6 -22 40 8q8 7 26 28q29 37 39 75q15 54 3 65q-26 21 -78 -21q-4 -5 -12 -6q-7 -3 -17 0
q-7 2 -9 4q-8 7 -4 14q45 63 89 180q4 10 -4 10q-16 -2 -43 -29q-26 -24 -36 -57q-5 -14 -27 -20q-11 -2 -17 1t-5 12z" />
    <glyph glyph-name="four" unicode="4" horiz-adv-x="148" 
d="M143 397v-2q-21 -127 -21 -321q0 -10 -23 -18t-23 5q0 159 9 256q-13 -6 -47 -17q-10 -15 -15 -7q-22 47 -8 100l8 31l12 33l12 29q3 9 28 5q9 -2 13.5 -5t3.5 -7q0 -1 -1 -2q-7 -23 -17 -71q-10 -47 -22 -77q5 2 36 19q4 32 7 47q2 14 28 12q20 0 20 -10z" />
    <glyph glyph-name="five" unicode="5" horiz-adv-x="200" 
d="M45 503l3 3q51 25 101 34q7 1 12 -7q4 -7 -5 -9q-37 -8 -78 -32q-11 -85 -15 -145q30 21 62 23q28 0 51 -22q24 -22 18 -53q-24 -123 -113 -170q-19 -10 -30 -1q-7 5 4 13q52 32 92 157q7 21 4.5 40t-14.5 21q-17 3 -36 -11.5t-26 -34.5q-7 -11 -33 -9q-27 -10 -27 5
q3 84 16 188q1 6 14 10z" />
    <glyph glyph-name="six" unicode="6" horiz-adv-x="146" 
d="M114 511q-43 -91 -60 -179q-11 -54 -13 -110q20 14 38 15q24 1 42 -24.5t20 -57.5t-13 -60q-10 -15 -29 -18.5t-36 0.5t-28 11q-8 6 -12 10q-19 -43 -27 -4q-6 27 2 60v1q-10 54 -1 112q20 149 66 240q12 24 39 21q14 -3 14 -11q0 -2 -2 -6zM42 162l4 -30q4 -34 22 -40
q14 -4 23 32l2 6q15 61 5 78q-6 4 -15.5 1.5t-21 -16t-19.5 -31.5z" />
    <glyph glyph-name="seven" unicode="7" horiz-adv-x="185" 
d="M-6 443q94 60 136 103q3 5 23 -3q16 1 18 -8q17 -11 6 -19l-12 -11q-23 -95 -34 -162l25 8q4 2 12.5 -5t11 -14.5t-7.5 -13.5q-22 -10 -49 -25q-14 -99 -20 -183q-2 -18 -24 -28q-21 -7 -22 8q5 92 16 175l-22 -11q-8 -3 -24 13q-20 18 -2 26l55 28q10 71 27 143l-38 -24
l-43 -28q-7 -4 -26 9t-6 22z" />
    <glyph glyph-name="eight" unicode="8" horiz-adv-x="204" 
d="M134 489q-74 -20 -92 -63q-7 -16 2 -41t30 -50l14 -17l9 15l23 36l24 37l15 29q18 33 14 47q0 12 -18 30q-7 11 -7 12q1 1 15 -5q53 -23 31 -94q-15 -47 -62 -130l-8 -14q38 -42 54 -74q12 -23 5 -53q-6 -28 -30 -36q-25 -7 -54.5 -2t-41.5 19q-42 49 15 156q-3 3 -23 21
t-27 25q-28 30 -34 55q-8 35 22 68q31 34 72 43q43 9 66 -7q11 -8 -1 -8q-3 -1 -13 1zM106 250q-36 -69 -30 -98q1 -10 24 -16t36 1q4 6 4 9.5t-3 13t-3 13.5q-4 41 -28 77z" />
    <glyph glyph-name="nine" unicode="9" horiz-adv-x="214" 
d="M157 488h-2q-51 -31 -65 -85q-9 -33 1 -63q6 -15 24 -14q9 39 42 162zM160 500l3 13q1 7 30 4q9 -2 13 -4.5t3 -6.5q-22 -90 -37 -165q18 -5 4 -17q-6 -4 -9 -5q-20 -94 -30 -163q-2 -6 -17 -19q-13 -10 -15 -1q-13 64 6 169l-18 3q-23 7 -38 28t-14 46q1 39 26.5 72.5
t64.5 48.5q16 6 28 -3z" />
    <glyph glyph-name="colon" unicode=":" horiz-adv-x="117" 
d="M107 186q-3 -20 -3 -36q0 -3 -12 -6.5t-22 -3.5t-12 6q0 28 3 45q0 5 26 5q21 -1 20 -10zM112 304q0 -3 -0.5 -17.5t-0.5 -19.5q-6 -6 -36 -6q-6 -1 -8.5 1.5t-2 7.5t1 11.5l1 12.5t-0.5 10q0 3 23 5.5t23 -5.5z" />
    <glyph glyph-name="semicolon" unicode=";" horiz-adv-x="146" 
d="M126 148q-50 -114 -67 -180q-3 -9 -29 -11q-10 0 -15 2.5t-4 6.5q15 62 70 190q4 9 29 5q17 -3 17 -11q0 -1 -1 -2zM141 294q-5 -32 -5 -52q0 -6 -22 -10.5t-23 5.5q-1 33 4 61q2 6 28 5q19 0 18 -9z" />
    <glyph glyph-name="less" unicode="&#x3c;" horiz-adv-x="223" 
d="M216 324q-107 -72 -147 -127q-1 -1 -11 -2q98 -64 124 -87q6 -4 -5 -20q-9 -12 -15 -3q-30 41 -115 93q-7 3 -6 15q-11 0 -16 2t-2 7q25 38 64 67l35 27l39 27q27 18 34 23q4 3 18 -8q11 -8 3 -14z" />
    <glyph glyph-name="equal" unicode="=" horiz-adv-x="204" 
d="M76 258q43 -5 99 1q7 0 19 -18q17 -23 -9 -25q-50 -4 -110 4q-8 2 -15 19q-4 11 -1.5 16t12.5 4q3 0 5 -1zM64 310q38 1 107 -3q6 0 15 -16q14 -23 -12 -21q-61 2 -103 1q-7 0 -17 15q-16 24 10 24z" />
    <glyph glyph-name="greater" unicode="&#x3e;" horiz-adv-x="221" 
d="M167 235q-45 42 -90 91q-7 6 1 20q6 11 13 4q46 -51 94 -99l6 6q8 5 18.5 -3.5t4.5 -16.5q-2 -2 -4.5 -4t-5 -5t-4.5 -5q-1 -9 -8 -9q-11 -13 -89 -118q-5 -8 -26 1q-17 8 -10 16q61 84 100 122z" />
    <glyph glyph-name="question" unicode="?" horiz-adv-x="274" 
d="M172 153q-5 -47 -3 -79q0 -8 -20.5 -14.5t-23.5 3.5q-5 51 0 86q0 5 11.5 9t23.5 3t12 -8zM73 429q16 29 23 40q28 45 65 57q29 11 67 -11q38 -20 41 -52q3 -33 -14 -71q-16 -37 -40 -77q-25 -41 -32 -63q-5 -17 -27 -29q-20 -11 -18 6q2 41 43 121t44 90q5 18 -9 48
q-14 29 -30 26q-11 -1 -25 -17q-16 -19 -39 -66q-9 -17 -34 -17q-8 -1 -12.5 2t-3.5 9q0 3 1 4z" />
    <glyph glyph-name="at" unicode="@" horiz-adv-x="348" 
d="M225 277q-5 -28 -7 -74q-1 -20 6 -24t18 12q53 71 55 157q0 28 -13 55t-34 43q-25 18 -55 20t-55 -16q-83 -61 -97 -186q-7 -62 16 -125q16 -44 44 -71.5t51 -19.5q77 26 74 15q-2 -6 -15 -13q-76 -43 -143 9q-48 37 -65 120q-25 135 33 220q30 45 84 66q54 22 103 11
q40 -9 74 -46q35 -37 43 -84q10 -66 -45 -147q-35 -51 -81 -43q-8 2 -14 5q-1 -4 -6 -7q-60 -38 -98 -13q-18 12 -23.5 42t4.5 56q13 40 43 68.5t67 35.5q18 3 27 -9q2 -4 1 -5.5t-6 -0.5h-3q-50 -17 -75 -74q-15 -37 -14 -72q0 -18 10.5 -23.5t28.5 6.5q13 9 32 6
q-22 25 -18 65q5 42 32 61q18 12 22 -3q1 -4 -1 -17z" />
    <glyph glyph-name="A" unicode="A" horiz-adv-x="205" 
d="M96 231q-25 71 -41 141q-6 -83 -8 -152q11 2 49 11zM108 199l-62 -15q-1 -23 -1 -76q0 -20 -24 -30q-22 -7 -23 8l2 84q-3 -1 -8.5 -3.5t-8.5 -3t-8 -1t-10 2.5t-11 9q-16 15 2 22q22 8 45 12q4 190 26 327q3 20 28 24q22 4 22 -10v-3l-4 -23q19 -149 61 -285q17 4 29 5
q12 2 23 -11q13 -15 -7 -18q-24 -4 -35 -7q21 -63 52 -130q11 -23 0 -41q-6 -11 -14 3q-44 79 -74 160z" />
    <glyph glyph-name="B" unicode="B" horiz-adv-x="202" 
d="M109 398q6 19 7 25q11 56 -7 67q-9 6 -23 -8t-26 -39q-4 -11 -15 -18q0 -36 1 -53q17 17 38 23q12 4 25 3zM84 359l15 21q-19 -9 -33 -36zM52 312l-4 -14q4 -74 16 -155l2 1q3 2 5 3q25 19 46 54q33 57 34 105q2 32 -15 58l-15 -16q-26 -29 -69 -36zM149 383
q37 -22 46 -62q14 -62 -36 -129q-41 -54 -92 -67l9 -45q5 -23 -12 -40q-11 -13 -16 4q-12 42 -20 79q-5 1 -13 5q-12 9 -9.5 22.5t14.5 19.5q-24 142 -20 344q0 20 23 31q21 9 23 -8q0 -35 -1 -51q20 20 37 21q26 4 50 -14t30.5 -47t-13.5 -63z" />
    <glyph glyph-name="C" unicode="C" horiz-adv-x="184" 
d="M127 296l1 2q0 3 0.5 7.5t0.5 9.5q3 25 4 39q2 19 2 38q0 21 -4 36q-4 21 -16.5 35t-24.5 9q-18 -8 -35 -57q-21 -62 -22 -143q-1 -55 9 -110q9 -44 21 -63q6 -12 20.5 -8.5t22.5 18.5q14 27 38 35q17 7 17 -11v-5q-5 -21 -21.5 -38t-33.5 -20q-51 -9 -78 24
q-30 36 -38 129q-9 111 14 183q15 45 55 70q41 26 74 6q56 -35 44 -155q-3 -30 -28 -43q-19 -10 -22 6q-1 3 0 6z" />
    <glyph glyph-name="D" unicode="D" horiz-adv-x="192" 
d="M6 451l2 36q2 18 25 25q23 8 23 -7v-3l-2 -40q27 1 50 -14q30 -20 51.5 -58t29.5 -84q16 -84 -33 -143q-27 -31 -81 -42l2 -21q2 -20 -19 -32q-18 -10 -21 5l-6 42q-3 0 -5 -1q-34 -2 -41 10q-3 3 3 4q2 1 7 1q11 -1 35 1q-21 167 -20 292q-1 -1 -1 -2q-15 -24 -40 -27
q-8 -1 -12 1.5t-3 9.5l3 10q24 24 53 37zM68 139q25 9 36 22q33 36 38 106q3 67 -30 131q-23 47 -51 54l-7 2q-5 -152 14 -315z" />
    <glyph glyph-name="E" unicode="E" horiz-adv-x="195" 
d="M67 479q52 14 85 31q8 3 28 -15q20 -19 3 -26q-19 -7 -39 -12q-11 -3 -28 -7t-33 -7t-20 -4q-6 -60 -8 -148q33 4 56 12q5 2 20 -15q19 -21 -1 -24q-25 -5 -41 -6l-35 -3q0 -66 4 -114q32 15 66 20q8 2 16 -12q7 -13 -8 -19q-14 -6 -34 -18q-19 -12 -36 -19l3 -31
q1 -14 -13 -28q-11 -11 -14 1q-10 31 -13 51q-14 7 -18 17.5t9 16.5q1 1 3 1q-9 55 -11 136q-22 20 -2 28h2q0 73 8 164q-8 13 2 17q0 4 1 7q1 7 13 11.5t23.5 3t11.5 -8.5z" />
    <glyph glyph-name="F" unicode="F" horiz-adv-x="202" 
d="M17 130q-9 116 -5 204q-25 29 2 34q2 28 8 74q-7 6 -12.5 12.5t-8 14t0.5 13.5t13 8l16 4q2 10 14.5 15.5t24 3.5t11.5 -10q31 5 87 10q10 0 23 -19q19 -27 -11 -30q-58 -6 -111 -24q-6 -38 -8 -62q22 5 52 14q6 2 24 -18q26 -31 -2 -38q-34 -9 -78 -13q-4 -76 2 -170
q2 -17 -21 -29q-20 -10 -21 6z" />
    <glyph glyph-name="G" unicode="G" horiz-adv-x="192" 
d="M173 458q-113 -50 -118 -145q-5 -90 44 -155q-3 126 -3 183q0 17 23 25t24 -5v-3q0 -125 3 -244q26 -17 17 -17q-5 0 -9 1l-7 2q1 -50 1 -127q0 -17 -23 -26q-23 -7 -24 9q2 74 -1 165q-44 27 -72.5 71.5t-32.5 97.5q-5 63 36 114q42 54 108 72q29 8 45 -6q11 -8 -4 -11
q-2 -1 -7 -1z" />
    <glyph glyph-name="H" unicode="H" horiz-adv-x="169" 
d="M111 237q-1 -67 6 -124q1 -16 -15 -31q-13 -10 -16 2q-16 70 -18 156l-21 3v-31q1 -13 -20 -24q-19 -10 -21 4q-3 28 -3 59l-9 2q-8 2 -13 17q-2 8 -0.5 11.5t7.5 2.5q4 0 6 -1l9 -2q1 105 27 210q3 13 28 12q20 -2 20 -11q0 -1 -1 -2q-26 -110 -30 -217l20 -2
q1 93 21 206q3 14 28 17q12 1 17 -1.5t4 -9.5q-21 -122 -25 -212q8 0 26 2q7 1 20 -15q16 -17 -5 -19q-26 -2 -42 -2z" />
    <glyph glyph-name="I" unicode="I" horiz-adv-x="171" 
d="M56 460l2 29q1 15 26 22q11 2 17 -0.5t5 -9.5l-4 -47q21 -2 45 -8q6 -1 11 -24q5 -26 -14 -23q-1 0 -7 2q-13 5 -37 10q-6 -130 3 -248q34 -2 50 -4q7 -1 12 -21q3 -12 0 -17.5t-13 -4.5q-4 0 -5 1q-18 7 -42.5 1t-33.5 -20q0 -4 -22 15q-39 33 -14 48q9 1 24 1
q-11 124 -6 255q-7 0 -10 1q-6 2 -15 21q-5 12 -2.5 18t13.5 5q4 0 5 -1q2 0 6.5 -0.5t5.5 -0.5z" />
    <glyph glyph-name="J" unicode="J" horiz-adv-x="252" 
d="M97 471q78 0 114 10q6 2 24 -19q28 -33 -2 -36q-21 -3 -48 -3q-10 -144 -25 -219q-6 -33 -17 -59t-27 -43t-38.5 -2.5t-47.5 63.5q-14 28 -7 55q9 29 36 29q35 0 44 -11q3 -3 -4 -4q-2 -1 -9 -1q-53 -3 -42 -20l19 -45q14 -32 24 -47q5 -7 22 85q16 85 26 221
q-15 1 -36 1q-6 0 -18 18q-17 27 12 27z" />
    <glyph glyph-name="K" unicode="K" horiz-adv-x="214" 
d="M91 290q83 -128 118 -216q5 -12 -21 -26t-30 2q-23 98 -107 226l-14 -116q-1 -14 -24 -21q-23 -5 -23 9q6 64 38 306q2 14 26 20q12 3 17.5 0.5t4.5 -10.5l-9 -68l-9 -71q6 4 11 -1q50 70 71 128q3 8 30 9q10 -1 14.5 -3.5t3.5 -6.5q-26 -73 -97 -161z" />
    <glyph glyph-name="L" unicode="L" horiz-adv-x="142" 
d="M14 139q-16 0 -15 12q5 27 22 170l16 139q2 15 27 19q11 1 16.5 -1.5t4.5 -9.5l-17 -144l-19 -158q35 0 58 6q5 2 21 -19q23 -29 -4 -32q-25 -2 -49 -1q-37 2 -44 1q-1 0 -4 2.5t-7 7t-6 8.5z" />
    <glyph glyph-name="M" unicode="M" horiz-adv-x="225" 
d="M36 105q-19 257 -16 377q0 17 22 23q20 5 20 -8v-7q1 -1 1 -4q15 -112 50 -223l18 217v3v1q-1 16 19 27q19 8 20 -5v-5q3 -1 3 -7q0 -13 -1 -20q14 -177 48 -354q4 -18 -15 -32q-13 -10 -16 4q-20 91 -33 179l-7 -69q0 -8 -10.5 -14.5t-20.5 -6.5q-8 -5 -12 4
q-23 54 -43 119q3 -62 12 -179q1 -14 -19 -25q-18 -9 -20 5z" />
    <glyph glyph-name="N" unicode="N" horiz-adv-x="231" 
d="M22 148q0 88 1 155q0 26 0.5 58.5t1 53t0.5 33.5q0 6 7 13q7 13 25 16q8 1 10 -5q37 -174 83 -310q-2 172 31 307q5 17 28 18q18 1 18 -11q0 -2 -1 -3q-43 -162 -34 -371q0 -9 -7.5 -18.5t-17.5 -12.5q-5 -7 -9 0q-3 1 -5 8v1q-49 91 -88 237q-2 -152 -2 -154
q0 -15 -21 -22q-20 -8 -20 7z" />
    <glyph glyph-name="O" unicode="O" horiz-adv-x="183" 
d="M80 484l-4 -3q-35 -78 -37 -167q0 -77 18 -135q18 -62 38 -59q13 3 23 67q11 69 14 140q4 148 -34 176q-6 4 -39 14q-7 3 1 4q2 1 8 1q34 2 63 -26.5t40 -74.5q11 -43 6 -108q-13 -204 -78 -210q-42 -3 -72 59q-30 61 -33 142q-4 116 30 171q18 28 45 22q15 -4 11 -13z
" />
    <glyph glyph-name="P" unicode="P" horiz-adv-x="165" 
d="M38 510q30 13 54 7q21 -4 41 -32t26 -60q10 -51 -26 -98q-42 -55 -87 -66q1 -84 7 -179q1 -12 -18 -25q-17 -13 -19 2q-18 117 -17 387q-12 -2 -19.5 2.5t-3.5 14.5q14 16 23 23v1v1q0 9 15 17.5t24 4.5zM45 282q29 26 55 72q15 27 15 65q0 25 -7.5 48.5t-18.5 31.5
q-16 10 -45 -14q0 -172 1 -203z" />
    <glyph glyph-name="Q" unicode="Q" horiz-adv-x="285" 
d="M44 34q54 32 106 -4q29 -21 82 8q17 9 40 -3q20 -11 -1 -20q-61 -29 -106 -16q-21 6 -46 19q-18 11 -19 -5q-2 -5 -17.5 -5.5t-30 7.5t-8.5 19zM115 444q-43 -101 -47 -144q-5 -59 -2 -108.5t12 -82t19 -31.5q18 1 38 77q20 78 20 142q1 107 -32 177q-2 4 -16 26l-5 8.5
t-3 5t0 1.5q1 1 12 -4q43 -23 66 -87q23 -63 24 -139q1 -64 -18 -133t-55 -88q-29 -15 -64 19q-35 35 -47 90q-7 33 0 97q8 75 30 130q19 49 53 66q18 9 20 -5q0 -5 -5 -17z" />
    <glyph glyph-name="R" unicode="R" horiz-adv-x="233" 
d="M32 86q-13 272 -7 402q0 16 24 24q23 8 24 -6q1 -2 0 -3q-1 -12 -1 -36q58 -18 63 -63q3 -23 -11.5 -45t-39.5 -35q63 -132 142 -261q8 -14 -4 -31q-8 -13 -16 0q-81 134 -135 237l6 -161q0 -18 -23 -28q-22 -8 -22 6zM69 345h1q14 16 19 48q6 45 -18 60q-2 -66 -2 -108z
" />
    <glyph glyph-name="S" unicode="S" horiz-adv-x="169" 
d="M129 369q-4 20 -11.5 42t-15 40.5t-15.5 34t-13.5 23t-6.5 6.5q-37 -55 33 -192q2 -7 12 -25l14 -28q22 -43 29 -82q4 -19 0 -53q-4 -33 -22 -51q-24 -25 -61 -22t-49 30q-16 34 15 44q20 4 24 -3q-10 -51 6 -58q9 -4 19.5 10.5t14.5 34.5q17 81 -8 138q-7 16 -29 59
q-44 87 -55 148q-3 18 2.5 37t17.5 28q21 15 45 14t40 -16q12 -12 23 -35q13 -27 25 -78q8 -33 -16 -49q-15 -9 -18 3z" />
    <glyph glyph-name="T" unicode="T" horiz-adv-x="245" 
d="M14 456q1 0 45 13l50 15q42 13 77 35q6 4 35 -16q6 -4 10.5 -8.5t6.5 -7.5t2.5 -6t-1.5 -5.5t-6 -3.5q-19 -8 -106 -32q-21 -202 -19 -375q0 -18 -22 -28q-22 -9 -22 6q-6 173 14 382q-21 -9 -28 -14q-4 -3 -19 5.5t-22 19t5 20.5z" />
    <glyph glyph-name="U" unicode="U" horiz-adv-x="152" 
d="M147 457q-38 -224 0 -365q4 -19 -6 -35q-8 -12 -13 2q-14 32 -19 49q-26 -15 -53 -9.5t-43 28.5q-4 6 -12 33q-3 21 -3 26q-2 10 -2 29q-4 52 -1 115q6 89 20 135q5 15 31 12q9 -1 13.5 -4t3.5 -7q0 -2 -1 -3q-14 -57 -20 -130q-5 -59 -2 -93q6 -102 27 -117q5 -3 9 0
q9 7 27 6q-35 133 -5 320q3 15 28 19q12 1 17 -1.5t4 -9.5z" />
    <glyph glyph-name="V" unicode="V" horiz-adv-x="183" 
d="M56 100q-1 -1 -2 0q-7 1 -7 10q0 1 1 1q-29 56 -40 133q-4 39 -6 66l-2 72q0 12 -0.5 27t-1 24.5t-0.5 15.5q-1 14 19 22q17 5 18 -7q2 -54 12 -157l6 -58t5 -45.5t2 -22.5q28 144 70 285q4 14 30 16q10 0 14.5 -3t3.5 -8v-3q-57 -187 -84 -346q-1 -9 -14.5 -16.5
t-23.5 -5.5z" />
    <glyph glyph-name="W" unicode="W" horiz-adv-x="254" 
d="M45 482v-5q-9 -69 -10 -91l-3 -83q-1 -39 8 -89q8 -42 22 -71q-5 8 0 35l15 82q14 72 16 92v41q0 10 8 20q2 22 27 28q10 3 16 1t5 -8q-1 -23 -7 -71q2 -109 23 -222q2 -3 3 4q13 37 31 171q3 26 29 35q19 7 21 -7q2 -2 0 -5q-6 -39 -15.5 -80.5t-21.5 -79t-26 -59
t-26 -15.5q-37 18 -53 77q-20 -66 -44 -63q-34 4 -53 63t-19.5 131.5t3.5 139.5q3 24 29 35q20 8 22 -6z" />
    <glyph glyph-name="X" unicode="X" horiz-adv-x="196" 
d="M86 241q24 -102 50 -178q5 -14 -3 -28q-4 -7 -10 1q-33 52 -60 135q-4 -13 -5 -22q-3 -13 -25 -22q-21 -7 -22 7q10 52 32 109q-25 102 -46 237q-2 13 20 23q21 11 23 -4q14 -100 31 -185q24 56 72 145q7 13 33 11q21 -2 14 -15q-77 -143 -104 -214z" />
    <glyph glyph-name="Y" unicode="Y" horiz-adv-x="170" 
d="M165 495v-3q-49 -274 -67 -403q-2 -17 -25 -25q-22 -7 -23 6v3q15 111 28 191q-23 29 -40 75l-19 49q-11 29 -14 42q-3 7 12.5 17t21.5 2l24 -60.5l25 -63.5l28 154q3 18 27 24q22 4 22 -8z" />
    <glyph glyph-name="Z" unicode="Z" horiz-adv-x="246" 
d="M64 446q20 9 140 71q2 1 10 -2q10 0 15.5 -3.5t3.5 -10.5q17 -17 1 -25l-12 -6q-71 -187 -117 -356q42 14 75 21q9 0 18.5 -13.5t-5.5 -21.5q-7 -2 -55 -19q-42 -16 -56 -19q-3 -1 -12.5 6t-12.5 15q-6 4 -4 12q46 177 109 345q-34 -16 -74 -32q-8 -3 -24 12q-17 19 0 26
z" />
    <glyph glyph-name="bracketleft" unicode="[" horiz-adv-x="208" 
d="M196 466l-102 15q-9 -136 2 -405q0 -2 -1 -4q25 -5 70 1q7 0 12 -8q4 -7 -5 -8q-52 -7 -87 0q-9 -9 -12 -3q-24 45 -33 140q-3 36 -2 96l3 87l5 95q0 13 23 18q-4 5 -3 7t8 1l53 -9q33 -6 64 -8q7 -2 11 -8q4 -5 -2 -7h-4z" />
    <glyph glyph-name="backslash" unicode="\" horiz-adv-x="206" 
d="M88 534q58 -278 113 -465q4 -13 -11 -28q-12 -12 -16 0q-51 133 -124 470q-1 13 18 25q17 10 20 -2z" />
    <glyph glyph-name="bracketright" unicode="]" horiz-adv-x="199" 
d="M62 45q38 -12 72 -9q-32 152 10 419q2 8 13 12q-81 3 -110 3q-9 0 -14 9q-1 4 4 5q1 1 3 1q25 0 141 -4q9 0 13 -9q3 -4 -3 -6q2 -2 1 -6q-38 -241 -25 -408q1 -8 -10 -22q8 -8 -3 -10q-43 -4 -92 9q-6 1 -8 12q0 7 8 4z" />
    <glyph glyph-name="asciicircum" unicode="^" horiz-adv-x="266" 
d="M55 305q24 44 59 100l45 70q4 7 24 4q10 3 13 -3q10 -4 6 -12l-2 -4q23 -94 61 -175q5 -11 -8 -24q-11 -13 -17 -2q-44 83 -67 155q-50 -77 -69 -116q-2 -5 -14.5 -6.5t-23 2t-7.5 11.5z" />
    <glyph glyph-name="underscore" unicode="_" horiz-adv-x="482" 
d="M48 -65h6q14 0 76.5 -1.5t113.5 -2.5q140 -3 207 -6q12 0 22 -19q14 -24 -9 -24h-5q-16 0 -80.5 2t-115.5 3q-126 1 -201 5q-12 0 -23 20q-13 23 9 23z" />
    <glyph glyph-name="grave" unicode="`" horiz-adv-x="158" 
d="M63 676l90 -211q5 -11 -11 -24q-13 -13 -18 -1l-91 210q-5 11 12 25q13 12 18 1z" />
    <glyph glyph-name="a" unicode="a" 
d="M99 367q1 -40 13 -78q22 -69 37 -66q5 2 8 9q5 14 30 15q11 1 16 -1.5t4 -8.5q-1 -1 -1 -4q-11 -24 -32.5 -34t-41.5 -4q-18 7 -30 24q-29 -26 -56 -20q-21 4 -35.5 21.5t-15.5 41.5q-1 44 18.5 77.5t52.5 41.5q9 2 16 -8q9 2 13.5 0t3.5 -6zM84 250q0 1 -1 2
q-17 42 -26 88q-11 -20 -15 -51q-3 -21 2 -60q3 -21 22 4q1 2 5 6q4 6 13 11z" />
    <glyph glyph-name="b" unicode="b" horiz-adv-x="139" 
d="M46 574v-3q0 -122 3 -191q41 -7 65.5 -27t19.5 -46q-7 -34 -27.5 -62t-46.5 -40l5 -56q1 -5 -4.5 -10t-16.5 -9q-22 -9 -24 5l-9 111q-13 168 -13 307q0 20 25 27q22 7 23 -6zM59 224l1 5q2 5 4.5 12.5l5.5 16.5q12 34 17 53q13 45 -20 55q-5 1 -9 2.5t-6 1.5l-2 1
q3 -66 9 -147z" />
    <glyph glyph-name="c" unicode="c" horiz-adv-x="176" 
d="M76 303q-8 26 -17 47q-3 6 -2 7q-5 -7 -11 -53q-9 -86 12 -106q15 -15 34 7t29 61q5 17 31 21q11 2 15.5 -0.5t3.5 -9.5q-10 -48 -35.5 -78t-62.5 -29q-24 0 -44.5 21.5t-27.5 52.5q-11 46 1 82q10 31 44 38q35 8 55 -17q18 -20 2 -44q-13 -19 -23 -9q-2 2 -4 9z" />
    <glyph glyph-name="d" unicode="d" horiz-adv-x="160" 
d="M88 545v-2q0 -121 12 -221q1 -1 1 -2l9 -66q20 15 39 8q10 -4 3 -16q-18 -21 -35 -33l14 -72q3 -19 -14 -33t-21 3q-11 45 -18 82q-36 -9 -52 9q-21 26 -12 63q11 39 42 58q-14 101 -16 201q0 19 24 28q23 8 24 -7zM71 205l4 3q-5 25 -13 75q-9 -17 -9 -45
q1 -16 5.5 -25.5t12.5 -7.5z" />
    <glyph glyph-name="e" unicode="e" horiz-adv-x="172" 
d="M74 272q21 36 29 67q3 15 -6 15t-17 -13q-23 -35 -16 -82q4 -27 20 -35t29 12q12 19 39 21q8 1 12 -2t3 -8q0 -3 -3 -8q-15 -25 -40.5 -36t-47.5 -5q-24 7 -41 29.5t-17 50.5q-1 36 18.5 66t45.5 34q27 4 47 -26q19 -30 1 -68q-13 -30 -43 -33q-10 -1 -14.5 1.5t-3.5 8.5
q0 4 5 11z" />
    <glyph glyph-name="f" unicode="f" horiz-adv-x="215" 
d="M141 574l-3 -5q-57 -94 -57 -244v-4q41 21 62 45q5 5 41 -11q37 -15 23 -26q-47 -33 -123 -55q8 -71 39 -203q4 -21 -13 -37q-16 -14 -21 3q-37 151 -48 225q-1 0 -6 -2.5t-6.5 -2.5t-6 0.5t-8.5 3.5t-9 9q-15 16 3 21l29 11q-11 156 53 270q13 20 37 16q19 -3 14 -14z
" />
    <glyph glyph-name="g" unicode="g" horiz-adv-x="142" 
d="M86 26l-2 -24q9 44 8 63q-4 60 -8 104q-27 -6 -49.5 3t-30.5 31q-21 57 15 114q13 21 43 24t50 -15q23 -16 25 -73q1 -10 -11 -19q-1 -35 4 -92q10 -106 3 -159q-5 -30 -21 -55q-17 -27 -35 -21q-31 10 -37 93q-1 25 23 34q20 8 22 -5q1 -1 1 -3zM79 195l2 2q-3 40 -2 65
q0 11 7 19q-5 19 -10 28t-9 8q-17 -17 -20 -78q-3 -50 17 -52q5 0 15 8z" />
    <glyph glyph-name="h" unicode="h" horiz-adv-x="166" 
d="M114 204q1 59 -16 105q-3 5 -4 5q-11 -19 -22 -66q-2 -8 -8 -49q0 -1 -4 -26q-1 -20 -3 -22q-2 -11 -26 -15q-11 -2 -16.5 0t-4.5 8q1 7 3.5 43t4.5 50q6 62 32 257q3 17 27 21q11 1 17 -1.5t5 -9.5q-8 -52 -23 -164q22 2 46 -13.5t33 -38.5t6 -71q0 -14 -24 -22
q-23 -6 -23 9z" />
    <glyph glyph-name="i" unicode="i" horiz-adv-x="63" 
d="M56 451v-34q0 -2 -11.5 -5t-23 -2.5t-11.5 6.5v34q0 2 11.5 4.5t23 2t11.5 -5.5zM59 366q-9 -85 -8 -197q0 -10 -24 -16q-21 -6 -21 6q-1 128 5 204q1 10 27 13q21 2 21 -10z" />
    <glyph glyph-name="j" unicode="j" horiz-adv-x="84" 
d="M64 364q1 -15 3 -65q3 -49 3 -74v-69q0 -58 -15 -136q-13 -63 -53 -102q-2 -4 -11 10q-12 24 -1 24q3 0 5 -1q5 -2 11.5 10.5t11.5 37.5t8 56q5 43 1 113l-5 93l-4 88q0 15 24 22q22 4 22 -7zM79 467q-10 -24 -13 -48q0 -3 -12 -6t-23.5 -1.5t-10.5 8.5q3 28 16 58
q2 3 13 3.5t22 -4t8 -10.5z" />
    <glyph glyph-name="k" unicode="k" horiz-adv-x="178" 
d="M51 261q3 -41 9 -95q1 -9 -20 -17q-24 -9 -24 5q-2 4 -6 57l-6 77q-6 71 5 164q1 15 28 20q11 2 17 -1t5 -10q0 -1 -1 -2q-7 -48 -8 -87q16 31 33 56q4 2 14 1.5t19 -6t5 -11.5q-31 -51 -54 -108q58 -109 101 -158q8 -10 6 -21q-2 -8 -10 -1q-61 48 -113 137z" />
    <glyph glyph-name="l" unicode="l" horiz-adv-x="70" 
d="M65 515q-14 -213 0 -391q1 -10 -16 -24q-15 -12 -18 0q-29 137 -13 409q0 11 27 14q20 1 20 -8z" />
    <glyph glyph-name="m" unicode="m" horiz-adv-x="207" 
d="M61 312q-2 -6 -12 -7q7 -81 9 -111q0 -10 -21.5 -16t-24.5 5l-3 61q-1 12 -3 38.5t-3 35.5l-5 64q-1 5 4 9t17 8q23 7 24 -5l3 -49q22 9 36 -3q4 -4 8 -11q49 69 80 50q16 -10 22 -34q5 -20 7 -65q1 -40 3 -51q2 -13 -16 -26q-14 -12 -19 2q-20 66 -22 150q1 5 -8.5 -15
t-29.5 -66l-4 -2q2 -7 4 -23.5t4 -26.5l6 -35q1 -7 -15 -20q-14 -11 -17 -1q-25 74 -24 144z" />
    <glyph glyph-name="n" unicode="n" horiz-adv-x="136" 
d="M44 255q2 -47 5 -70q1 -10 -16 -21q-15 -10 -18 1q-20 94 -7 221q2 9 24 12q11 2 16 -0.5t4 -8.5q-3 -18 -5 -56q28 37 52 29q17 -6 23 -39q2 -9 4 -29q1 -9 2.5 -33t3.5 -31q2 -11 -15 -23q-13 -10 -18 1q-29 84 -20 131q-3 -18 -30 -79z" />
    <glyph glyph-name="o" unicode="o" horiz-adv-x="133" 
d="M71 316l-2 4q-5 -18 -9 -40q-18 -52 -9 -61q9 -8 19.5 5t11.5 28q3 44 -11 64zM73 336q54 -31 55 -72q2 -29 -23 -49q-24 -20 -53 -15q-22 4 -33 31t-5 58q14 66 52 78q14 5 15 -9q1 -6 -3 -7q-2 0 -5 -15z" />
    <glyph glyph-name="p" unicode="p" horiz-adv-x="149" 
d="M46 312l-2 -3q-9 -173 6 -300q1 -14 -19 -27q-16 -10 -19 3q-24 147 -14 327q0 9 13 16q33 32 65 27q21 -4 39.5 -18t24.5 -34q13 -39 -10 -78q-23 -38 -61 -41q-6 -1 -9 2.5t-4 10.5q-2 11 4 12q2 0 5 -3q7 -7 16.5 1.5t15.5 24.5q12 29 11 43q-5 41 -22 57q-10 8 -22 2
t-18 -22z" />
    <glyph glyph-name="q" unicode="q" horiz-adv-x="167" 
d="M162 292q-14 -125 -3 -271q0 -7 -12 -21q-8 -10 -13 -2q-32 69 -27 195q-28 -12 -46 -9q-24 2 -43 21.5t-19 43.5q-2 69 38 99q21 16 53 7.5t53 -37.5q4 -7 6 -16q7 -2 10.5 -4.5t2.5 -5.5zM108 223q2 29 6 60q-14 54 -24 57q-6 4 -16 -8.5t-17 -31.5q-13 -38 -12 -75
q1 -10 7 -15t17.5 -3.5t25.5 9.5q5 4 13 7z" />
    <glyph glyph-name="r" unicode="r" horiz-adv-x="184" 
d="M170 324q-42 3 -68 -32q-20 -28 -23 -67q-2 -6 -12 -16q-4 -6 -12 -10.5t-14 -5t-8 5.5l-2 11q-4 12 -4 26q-11 67 -6 156q0 8 24 13q10 2 15.5 0t4.5 -7q-2 -56 -2 -80q39 33 103 26q10 -1 13 -14q2 -8 -3 -8z" />
    <glyph glyph-name="s" unicode="s" horiz-adv-x="136" 
d="M108 336q-6 7 -14 12.5t-13.5 6.5t-7.5 -1q-4 -12 2 -37q5 -15 24 -42q18 -23 28 -41q11 -21 -0.5 -47t-35.5 -34q-20 -7 -46 -4t-40 16q-15 13 17 18q9 1 29 1q-12 -5 -2 -10q14 -8 26 5q4 4 4 10.5t-1.5 14.5t-1.5 9q3 19 -36 68q-45 54 -21 83q26 34 93 8
q17 -7 13 -29q-5 -15 -12 -12q-3 2 -5 5z" />
    <glyph glyph-name="t" unicode="t" horiz-adv-x="152" 
d="M-36 358l44 23q1 64 9 127q3 21 27 28q23 8 23 -8v-3q-8 -57 -13 -123q18 8 32 12q8 2 19.5 -12.5t-2.5 -22.5l-19.5 -10t-31.5 -17q0 -46 2 -64q7 -97 33 -116q7 -5 12 -1q13 8 38 5q19 -2 7 -10q-31 -22 -59.5 -20.5t-48.5 23.5q-9 11 -13 24q-6 17 -11 59q-3 24 -5 75
l-19 -8q-7 -3 -23 13q-17 17 -1 26z" />
    <glyph glyph-name="u" unicode="u" horiz-adv-x="186" 
d="M139 353q0 -53 4 -86q3 -5 2 -10v-1q8 -50 22 -76l4 -4q15 -18 8 -17q-1 0 -5 2q-27 10 -46 34q-8 -11 -15 -12q-23 -7 -46.5 5.5t-33.5 34.5q-17 41 -30 129q-1 10 24 18q24 8 24 -4q5 -57 14 -95q3 -13 10 -36.5t8 -26.5q1 1 1 2q2 18 6 34q1 3 7 11q-15 45 -16 96
q-1 4 14 7.5t30 2.5t14 -8z" />
    <glyph glyph-name="v" unicode="v" horiz-adv-x="186" 
d="M64 173q-4 2 -5 5q-53 165 -61 197q-3 11 17 22q19 10 22 -2q14 -61 42 -149q19 53 56 137q5 11 31 8q16 -1 16 -11q0 -2 -1 -3l-15 -32l-15 -35l-12 -30l-13 -33q-12 -29 -18 -61q-1 -7 -20 -13q-16 -5 -24 0z" />
    <glyph glyph-name="w" unicode="w" horiz-adv-x="262" 
d="M160 180q-13 -4 -15 5q-5 31 -27 159q-18 -75 -28 -147q-1 -6 -15 -12t-22 -3q-16 -3 -16 6q-3 28 -20 94l-22 84q-1 7 13 13q22 11 27 0v-2q5 -37 25 -112q18 97 43 185q3 12 26 10q9 -1 13 -4t3 -8l-4 -14q5 -46 30 -183q13 48 23 81q5 14 10 29.5l8 24.5t4 14
q3 10 26 12q16 0 15 -9q-15 -51 -31 -100q-23 -75 -30 -109q-1 -6 -15 -12t-21 -2z" />
    <glyph glyph-name="x" unicode="x" horiz-adv-x="167" 
d="M133 160l-25 51q-4 -18 -6 -35q-1 -10 -27 -16q-11 -3 -16 -1.5t-4 8.5q6 53 22 104q-31 60 -55 111q-5 13 14 26q16 12 20 -1q17 -45 37 -87l23 56q4 10 29 7q17 -3 17 -11q0 -2 -1 -3q-26 -64 -39 -107l39 -75q6 -13 -10 -26q-13 -12 -18 -1z" />
    <glyph glyph-name="y" unicode="y" horiz-adv-x="153" 
d="M47 381q-1 -37 7 -86q8 -39 15.5 -56t17.5 -15q4 83 12 142q2 18 27 22q22 4 22 -9v-3q-7 -57 -12 -134q14 -4 6 -15q-2 -4 -8 -10q-13 -204 -13 -217q-1 -16 -25 -23q-22 -6 -24 8v3q7 63 14 205q-13 -1 -23 3q-30 12 -45 65q-14 52 -17 112q-1 5 5.5 8.5t19.5 5.5
q22 5 21 -6z" />
    <glyph glyph-name="z" unicode="z" horiz-adv-x="185" 
d="M27 324q73 25 134 29q9 0 16 -13q7 -10 -4 -13q-37 -48 -82 -117q24 3 73 5q7 0 14 -12q7 -13 -9 -13q-47 -2 -111 -18q-4 -1 -13 7t-9 14q-1 4 0 8q46 71 79 113q-25 -7 -67 -25q-6 -3 -21 12q-17 17 0 23z" />
    <glyph glyph-name="braceleft" unicode="{" horiz-adv-x="258" 
d="M181 510q-48 -52 -43 -130q9 -126 -49 -160l-5 -3q18 -15 28 -31.5t12 -44t1.5 -42t-3.5 -56.5q-1 -6 -1 -14q-5 -75 7 -92q6 -11 29 -2.5t50 30.5q14 11 36 5q18 -4 6 -15q-56 -47 -107 -42q-28 3 -48 28.5t-20 59.5q0 41 7 87q7 50 12 69q4 18 -1 40q-3 8 -13 18
q-19 -5 -23 5q-3 5 5 13q41 32 36 120q-4 62 6.5 103t44.5 67q16 13 34 2q14 -8 -1 -15z" />
    <glyph glyph-name="bar" unicode="|" horiz-adv-x="110" 
d="M106 486q-1 -27 -1 -128q0 -185 -6 -286q-2 -18 -19 -31q-11 -10 -13 -1q-22 65 -23 133q-2 71 6 162q8 83 10 131q0 17 23 28q22 7 23 -8z" />
    <glyph glyph-name="braceright" unicode="}" horiz-adv-x="232" 
d="M31 -12l9 -4q58 -25 70 9q8 21 19 95q15 108 54 147q-57 8 -77 35q-5 7 -7 22q0 10 2 39t2 37q0 71 -2 89q-6 71 -19 71q-3 0 -6 -3q-17 -16 -37 -11q-16 3 -2 18q36 17 63.5 7.5t38.5 -42.5q7 -23 8 -44q1 -10 1 -20q1 -3 1 -26v-22v-26.5v-24.5t0.5 -20t2.5 -19.5
t5 -15t8 -14t12.5 -10t17.5 -8.5q1 0 2 -1q0 1 1 1q16 12 27 1q5 -7 -2 -14q5 -3 0 -3q-2 -2 -4 0q-16 -15 -24 -41t-17 -84l-5 -42q-5 -42 -11 -57q-11 -30 -42 -43.5t-65 -5.5q-22 6 -27 21q-4 9 3 9z" />
    <glyph glyph-name="asciitilde" unicode="~" horiz-adv-x="493" 
d="M4 166q5 97 61 129q46 26 122 -11l39 -20l72 -36q72 -35 86 -10q7 12 62 14q15 0 24.5 -1t14.5 -3.5t4 -7.5q-2 -4 -5 -7q-67 -57 -149 -35q-72 20 -149 66q-28 16 -50.5 19t-27.5 -11q-4 -14 -5 -41q-1 -19 -1 -30q-2 -9 -26 -20q-25 -13 -46.5 -13t-25.5 18z" />
    <glyph glyph-name="exclamdown" unicode="&#xa1;" horiz-adv-x="163" 
d="M158 570q-8 -28 -12 -46q0 -2 -12 -4t-23.5 -0.5t-10.5 8.5q1 14 12 49q1 3 13.5 4.5t23.5 -1.5t9 -10zM23 191v3q8 29 28 125q18 87 30 132q3 14 28 13q10 0 15 -3.5t4 -9.5q-13 -55 -29 -131q-20 -96 -28 -126q-3 -13 -29 -13q-19 0 -19 10z" />
    <glyph glyph-name="cent" unicode="&#xa2;" horiz-adv-x="184" 
d="M127 296q8 77 8 97q-45 -154 -72 -295q7 -10 21 -7t22 18q14 27 38 35q17 7 17 -11v-5q-5 -21 -21.5 -38t-33.5 -20q-25 -4 -47 3q-1 -2 -1 -6q-4 -19 -27 -27q-22 -8 -23 7q0 2 1 3q6 38 10 57q-23 40 -29 116q-9 111 14 183q13 39 46 64q36 26 66 19l8 26q6 19 32 22
q10 1 15.5 -1.5t4.5 -9.5q0 -3 -1 -4l-20 -60q31 -40 22 -135q-3 -30 -28 -43q-19 -10 -22 6q-1 3 0 6zM37 195q30 137 72 273q-11 8 -19 4q-18 -8 -35 -57q-21 -62 -22 -143q-1 -31 4 -77z" />
    <glyph glyph-name="sterling" unicode="&#xa3;" horiz-adv-x="402" 
d="M266 563q-31 34 -49 25q-28 -15 -38 -49q-14 -43 -5 -112q4 -28 10 -53q43 -6 70 -3q8 1 15 -9q8 -8 -3 -8q-29 -3 -79 5q6 -26 10 -49q5 -35 -12 -65l42 32q24 20 38 30q19 13 47 7t48 -27q10 -12 21 -41l4 -10.5t3 -8.5l2 -6t2 -5v-1q10 -22 4 -34q-3 -5 -11 3
q-19 20 -39 51q-12 21 -17 29t-12.5 18.5t-13 12.5t-10.5 -1q-15 -8 -59 -50q-38 -36 -88 -39q-15 0 -25 5q-20 3 -21 19q-1 5 1.5 6t4.5 -4q6 -9 28 -6l12 2q12 5 14 11q1 5 1 11q0 3 -2.5 18.5t-2.5 18.5q-1 21 -14 80l-11 2q-10 1 -13 10q-1 4 4 4q1 1 3 1l14 -3l-7 35
q-5 24 -7 44q-7 52 7 82q15 35 54 53q38 18 75 4q21 -8 21 -29q-1 -6 -2.5 -9t-5.5 -2q-3 0 -8 5z" />
    <glyph glyph-name="currency" unicode="&#xa4;" horiz-adv-x="289" 
d="M92 402q-27 -86 6 -125q16 -19 51 -8q33 10 51 39q16 26 12 60q-5 37 -31 56q-21 15 -49 13t-50 -18q9 -1 12 -5.5t-2 -11.5zM84 262q-29 -25 -38 -35q0 -1 -5 0t-11.5 4.5t-10.5 7.5q-7 6 -3 10l46 37q-35 49 -23 101q-30 -10 -30 2q0 5 4 10q23 31 59 45q-35 24 -53 50
q-3 5 16 17q17 11 19 1q9 -38 40 -60l2 -2q32 7 67 -1q14 -3 32 -14q32 38 61 65q3 3 11.5 -0.5t14 -9.5t1.5 -11l-58 -67q44 -46 31 -89q-9 -27 -33 -46q17 -43 35 -60q7 -7 6 -16q-1 -4 -8 -1q-43 17 -65 57q-42 -18 -78 -9q-18 5 -29 14z" />
    <glyph glyph-name="yen" unicode="&#xa5;" horiz-adv-x="197" 
d="M53 266l3 -6l1 -1l1 -1v2zM62 294l4 31q-7 1 -34 8q-8 1 -10 23q-1 8 2 12.5t8 3.5q4 0 8 -3l25 -9q-38 68 -54 152q-1 4 4 8.5t16 9.5q22 9 23 -4q11 -69 30 -124q20 70 50 131q9 20 35 17q17 -2 15 -12q0 -3 -1 -5q-44 -96 -64 -181q23 -2 46 3q8 2 22 -16
q16 -19 -6 -22q-40 -4 -69 0q0 -6 -1 -9l-4 -29l60 10q8 2 19 -13q12 -17 -7 -18q-42 -8 -75 -12q-6 -83 6 -172q3 -20 -16 -35q-15 -13 -20 4q-22 97 -17 198l-17 -2q-6 0 -15 14q-8 13 8 16l27 4z" />
    <glyph glyph-name="brokenbar" unicode="&#xa6;" horiz-adv-x="117" 
d="M101 440q-12 -67 -14 -160q0 -5 -12 -10.5t-22 -5.5t-12 7q2 101 13 171q2 10 28 9q10 0 15 -3t4 -8zM112 644q-16 -64 -17 -131q-2 -8 -23 -12.5t-23 5.5q2 81 18 145q1 4 13.5 5t23.5 -2t8 -10z" />
    <glyph glyph-name="section" unicode="&#xa7;" horiz-adv-x="246" 
d="M238 660l-9 4q-31 2 -55.5 -12.5t-38.5 -41.5t-12 -59t22 -50q3 -2 13.5 -11l20.5 -18t16 -15q43 -39 36 -85q-4 -20 -26 -32.5t-48 -13.5q-22 -1 -40 3q7 -11 19 -18q19 -11 34 -27t22.5 -40t-10.5 -48q-20 -30 -64 -35t-63 18q-13 14 11 28q20 12 26 4q2 -1 0 -6
q-5 -10 -0.5 -20.5t15.5 -8.5q13 2 24 13t15 25q23 61 -8 80q-35 21 -52 34q-31 25 -28 59q2 29 27 53.5t57 33.5q4 0 5 1q-83 65 -64 125q12 38 46 62t72 23q28 0 39 -18q4 -7 -2 -7zM166 458q-49 -26 -59 -66v-1q0 -3 -1 -5q-4 -14 2.5 -27.5t22.5 -17.5q17 -4 33.5 5.5
t21.5 24.5q15 49 -20 87z" />
    <glyph glyph-name="dieresis" unicode="&#xa8;" 
d="M206 505q-2 -26 -2 -35q0 -2 -11.5 -6t-21.5 -4t-12 6q-1 23 1 39q0 3 12 5.5t23.5 1.5t10.5 -7zM89 513v-51q0 -2 -11.5 -5.5t-21.5 -4t-12 6.5v26t-1 25q0 1 12 4.5t22 4t12 -5.5z" />
    <glyph glyph-name="copyright" unicode="&#xa9;" horiz-adv-x="380" 
d="M227 549q-108 -33 -153 -132q-22 -49 -12 -105q12 -60 64 -82q58 -24 109 6q47 28 72 83q26 55 23 109q-3 71 -42 101l-42 28l-17 12h3q4 0 17 -3q78 -20 108 -78q32 -60 10 -136q-20 -72 -72 -112t-125 -34q-75 6 -115 45q-24 24 -35 59t-4 68q14 64 57.5 114t100.5 67
q40 12 65 -2q11 -6 1 -8q-5 -2 -13 0zM237 453q-72 -12 -84 -65q-7 -38 12 -60q8 -9 24 -8t33 14q17 12 36 5q16 -6 1 -16q-39 -26 -78 -19q-26 4 -46.5 19t-24.5 35q-6 41 26 73q32 33 80 38q20 2 30 -10q6 -6 -3 -7q-3 0 -6 1z" />
    <glyph glyph-name="ordfeminine" unicode="&#xaa;" horiz-adv-x="256" 
d="M191 553q-11 -59 -13 -98q-1 -46 8 -69.5t27 -15.5q14 6 33 -2q12 -6 -1 -13q-55 -28 -92 2q-9 8 -14 22q-57 -35 -85 -20q-29 22 -20.5 57t35.5 56l24 19q35 29 43 44l7 13q0 4 1 6q0 2 3 4q9 27 -11 32q-30 8 -31 10t6 3q2 1 3 1q28 -1 49.5 -13t24.5 -32q4 -1 3 -6z
M133 408q-1 8 -1 30q0 15 2 45q-9 -6 -14 -11q-45 -38 -55 -83q-1 -9 8 -9q18 1 50 24q4 2 10 4z" />
    <glyph glyph-name="guillemotleft" unicode="&#xab;" horiz-adv-x="247" 
d="M150 282q-13 9 -6 16q53 45 74 61q5 5 19 -8q11 -8 3 -14q-5 -4 -38 -33l-31 -26q20 -38 45 -61q5 -5 2 -17q-1 -7 -9 -2q-43 26 -70 66q-4 4 11 18zM64 310q-9 6 -4 11q25 21 50 37l52 30q6 4 18 -8q9 -7 1 -12q-56 -34 -82 -63q9 -40 34 -68q6 -7 1 -18q-3 -7 -9 -2
q-50 34 -70 84q-1 5 9 9z" />
    <glyph glyph-name="logicalnot" unicode="&#xac;" horiz-adv-x="370" 
d="M64 371h6q167 -27 263 -22q10 1 24 -13l2 -2q15 -15 0 -20q0 -54 4 -93q-1 -3 -11 -9t-19 -8t-12 5q-6 42 -8 104q-84 0 -235 25q-13 1 -22 18q-8 15 8 15z" />
    <glyph glyph-name="registered" unicode="&#xae;" horiz-adv-x="362" 
d="M274 581h-7q47 -18 71 -63q27 -49 16 -126t-56 -114q-45 -38 -122 -24q-71 14 -105 55q-20 25 -27.5 58.5t1.5 64.5q16 57 59 100.5t99 58.5q46 12 70 -2q11 -5 1 -8zM244 576q-100 -31 -140 -109q-23 -47 -16 -101q7 -58 54 -85q24 -14 54 -15t50 12q41 25 55 87
q13 62 4 117q-11 62 -43 84q-6 5 -18 10zM207 409q22 -55 49 -82q8 -8 6 -17q-2 -5 -8 -2q-51 28 -79 83q-2 -34 -2 -49q0 -8 -23 -15q-22 -7 -22 5q-3 75 12 157q2 5 18.5 7t24.5 -3q28 2 45.5 -8t14.5 -29q-5 -28 -36 -47zM177 418q12 10 19 40q1 6 8 16l1 4l-4 -3
q-5 -4 -16 1q-6 -36 -8 -58z" />
    <glyph glyph-name="overscore" unicode="&#xaf;" horiz-adv-x="300" 
d="M48 538q114 -12 210 14q11 3 29 -15q22 -20 -3 -25q-96 -21 -229 -7q-12 1 -21 18q-7 16 7 16q4 0 7 -1z" />
    <glyph glyph-name="degree" unicode="&#xb0;" horiz-adv-x="223" 
d="M137 449h3q23 18 29 50q5 21 -0.5 34.5t-19.5 12.5q-17 -1 -31 -14.5t-19 -31.5t0.5 -37t17.5 -23q26 -11 26 -14q0 -2 -9 -1q-29 2 -56 20q-28 19 -26 50q1 26 25.5 45t54.5 22q30 2 54.5 -9.5t30.5 -36.5q6 -24 -10.5 -49t-41.5 -34q-19 -4 -31 7q-8 8 3 9z" />
    <glyph glyph-name="plusminus" unicode="&#xb1;" horiz-adv-x="278" 
d="M54 242h3q29 0 87 11l47 8l45 9q9 1 23 -14q15 -17 -8 -22q-125 -26 -186 -24q-10 0 -20 16t9 16zM62 340q116 -16 171 3q7 3 28 -17q25 -23 2 -28q-46 -7 -83 -4l-37 3l-41 6l-36 5q-8 2 -17 17q-9 16 10 16q2 0 3 -1z" />
    <glyph glyph-name="uni00B2" unicode="&#xb2;" horiz-adv-x="146" 
d="M45 563q64 47 87 27q22 -24 -6 -96q-13 -32 -26 -53l-33 -55l61 2q5 2 10 -8q4 -5 -5 -7q-10 -1 -37 -1.5t-40 -0.5q-31 -19 -43 7q-6 6 6.5 26.5t30.5 43.5t21 29q11 23 23 74q2 8 6 17l1 3l-4 -4l-10 -11q-16 -17 -37 -13q-17 5 -5 20z" />
    <glyph glyph-name="uni00B3" unicode="&#xb3;" horiz-adv-x="147" 
d="M46 577q73 25 91 -3q18 -37 -29 -84q21 -12 29 -33t-5 -39q-14 -20 -45.5 -24t-49.5 9q-6 4 14 14q22 9 22 3q-1 -6 1 -6q10 0 22 19l4 9q1 3 2 11.5t2.5 15t4.5 8.5q-9 -5 -22 5q-8 2 -12.5 8t-0.5 12q13 15 18 33l6 21q8 14 -5 14q-7 0 -21 -9q-14 -8 -27 2q-9 7 1 14z
" />
    <glyph glyph-name="acute" unicode="&#xb4;" horiz-adv-x="133" 
d="M128 575q-16 -31 -34 -83q-1 -3 -13.5 -3.5t-23 3t-8.5 9.5q18 55 42 92q6 4 28 -4q15 -7 9 -14z" />
    <glyph glyph-name="uni00B5" unicode="&#xb5;" horiz-adv-x="307" 
d="M39 3v3q44 291 110 475q8 20 32 21q19 1 19 -12q0 -3 -1 -5q-31 -85 -57 -189q11 -18 19 -26.5t14 -7.5q17 2 36 56q4 8 14 39v3q0 1 1 2l14 47q13 46 17 56q4 12 29 7q17 -3 17 -11q0 -2 -1 -3l-15 -51l-16 -57q-14 -103 -2 -147q0 -1 3 -5q6 -12 4 -12l-5 1
q-35 23 -45 71q-8 -6 -13 -8q-35 -16 -79 14q-19 -83 -45 -241q-3 -20 -28 -28q-22 -7 -22 8z" />
    <glyph glyph-name="paragraph" unicode="&#xb6;" horiz-adv-x="334" 
d="M325 453h-3q-11 1 -33 1q-12 -139 -12 -316q0 -14 -23 -22q-23 -9 -23 6q0 201 10 322l4 8q-37 -3 -70 -9q-9 -229 -19 -316q-2 -14 -26 -19q-11 -2 -17 0.5t-5 9.5q9 76 15 184q-48 -8 -81.5 6.5t-31.5 46.5q2 30 34.5 55.5t77.5 38.5q0 3 6 4l12 3q20 13 33 6
q67 9 143 6q8 0 13 -9q3 -6 -4 -6zM123 320l5 107q-49 -25 -67 -62q-15 -30 -7 -47q3 -7 19 -7t34 7q10 2 16 2z" />
    <glyph glyph-name="middot" unicode="&#xb7;" horiz-adv-x="145" 
d="M141 352q-4 -17 -4 -45q0 -1 -12 -4.5t-22 -4t-12 6.5q0 35 4 55q0 1 5 1.5t12 0.5t14 -0.5t11.5 -3t3.5 -6.5z" />
    <glyph glyph-name="cedilla" unicode="&#xb8;" horiz-adv-x="177" 
d="M172 -38l-24 -63l-23 -63q-4 -8 -29 -3q-16 4 -16 11q0 1 1 2q5 17 21 59l26 68q3 3 15 3.5t22 -3.5t7 -11z" />
    <glyph glyph-name="uni00B9" unicode="&#xb9;" horiz-adv-x="190" 
d="M182 561v-1q-30 -118 -35 -199q0 -9 -22 -18q-20 -9 -20 3q-3 71 20 173q-33 -19 -60 -23q-8 -2 -14 8q-4 7 6 7q27 12 78 50v1q1 4 11 7l17 12q7 3 16.5 -5t2.5 -15z" />
    <glyph glyph-name="ordmasculine" unicode="&#xba;" horiz-adv-x="212" 
d="M112 519q-18 -37 -23 -68q-4 -26 1.5 -42t19.5 -12q25 6 40.5 24.5t14.5 37.5q0 24 -18 45t-34 17q-1 -1 -1 -2zM67 525q-1 3 6 7q34 15 71.5 3t56.5 -44q15 -26 -2 -59q-16 -33 -52 -46q-32 -12 -64 -2.5t-41 35.5q-12 35 23 103q0 1 2 3z" />
    <glyph glyph-name="guillemotright" unicode="&#xbb;" horiz-adv-x="244" 
d="M174 406q5 -66 39 -124q13 -2 21 -6.5t5 -10.5q-7 -11 -35 -46l-30 -38q-3 -2 -13 -0.5t-18.5 7.5t-4.5 12q35 42 50 64q-47 70 -59 134q-1 5 11 10t22.5 5t11.5 -7zM88 390q33 -82 61 -122q3 -5 2 -14q11 -8 5 -13q-43 -39 -54 -61l-27 3q-18 5 -11 14q11 15 35 39
l24 25q-38 41 -67 108q-3 7 11.5 18t20.5 3z" />
    <glyph glyph-name="onequarter" unicode="&#xbc;" horiz-adv-x="258" 
d="M253 406q-13 -60 -21 -127q-1 -4 -13 -7.5t-23.5 -2.5t-10.5 8q4 35 7 55q-50 -3 -60 28q-5 3 0 18.5t7 20t11 20.5t11 21q4 8 29 4q16 -4 15 -12q0 -2 -1 -3q-17 -36 -24 -61q-5 -8 -1 -14t16 -3q5 31 12 60q1 7 27 6q10 -1 15 -4t4 -7zM205 551q-47 -95 -99 -225
q-4 -10 -29 -9q-10 1 -14.5 3.5t-3.5 7.5q0 2 1 3q56 140 101 229q6 12 31 6q19 -4 13 -15zM102 543q-22 -71 -22 -117q0 -5 -20 -16q-17 -11 -19 1q-11 61 16 142q1 3 13.5 3.5t23 -3t8.5 -10.5z" />
    <glyph glyph-name="onehalf" unicode="&#xbd;" horiz-adv-x="265" 
d="M175 430q27 18 49.5 12.5t20.5 -30.5q-1 -26 -39 -64q27 2 47 0q5 0 7 -9q2 -6 -5 -6h-2q-19 5 -81 -6q-3 -1 -8 4.5t-3 9.5q-1 1 -0.5 3t1.5 5l1 3q23 24 33 55l2 4q-12 0 -20.5 6t-2.5 13zM201 535q-10 -26 -71 -206q-3 -11 -29 -9q-18 2 -18 10q0 2 1 3q52 158 72 208
q5 11 30 8q8 -2 12.5 -4.5t3.5 -6.5q0 -2 -1 -3zM113 552q-11 -54 -13 -98q0 -3 -11.5 -8t-21.5 -6t-12 6q-2 53 11 110q2 8 29 6q18 -2 18 -10z" />
    <glyph glyph-name="threequarters" unicode="&#xbe;" horiz-adv-x="287" 
d="M72 565q58 31 78 10q10 -11 -1 -30.5t-33 -34.5q16 -7 23 -19q10 46 32 112q3 11 29 9q18 -2 18 -10q0 -2 -1 -3q-9 -27 -23 -77q2 3 14 5.5t23 1t10 -7.5l-8 -50q1 8 5 17q2 5 14.5 5.5t22.5 -4t7 -11.5q-10 -29 -16 -65q10 -10 3 -12h-3h-2q-8 -43 -6 -84
q0 -10 -22 -17q-21 -7 -22 4q-3 51 4 98h-22q-1 0 -6 5q-8 0 -12.5 2.5t-3.5 7.5q13 54 20 104q-22 -82 -29 -145q-2 -11 -26 -17q-11 -3 -16 -1.5t-4 8.5q3 41 10 74q-24 -22 -63 -24q-9 -1 -14 8q-3 6 4 7h3q26 0 40 35q1 5 3.5 10.5t4.5 9t3 7t-0.5 5.5t-5.5 3q0 2 -5 2
q-10 1 -14.5 7t1.5 13q18 14 24 34l-10 -9q-8 -8 -24 1q-14 8 -4 16z" />
    <glyph glyph-name="questiondown" unicode="&#xbf;" horiz-adv-x="180" 
d="M172 642q-8 -24 -3 -58q0 -3 -4 -6.5t-10 -6t-12.5 -4t-11.5 -0.5t-6 6q-5 56 2 76q0 6 26 4q20 -3 19 -11zM161 516q-22 -129 -91 -219q-39 -52 -32 -138q5 -56 22 -66q16 -8 33 -0.5t29 25.5q14 21 39 20q10 0 13 -3t1 -10l-2 -4q-33 -50 -77 -50q-31 -1 -56.5 11.5
t-33.5 34.5q-18 61 -9.5 109t35.5 84q55 74 77 188q6 28 32 32q19 4 21 -8q0 -4 -1 -6z" />
    <glyph glyph-name="Agrave" unicode="&#xc0;" horiz-adv-x="205" 
d="M85 591q-30 50 -66 139q-5 8 13 22q13 10 17 0l28 -66l30 -71q4 -7 -7 -22q-9 -11 -15 -2zM96 231q-25 71 -41 141q-6 -83 -8 -152q11 2 49 11zM108 199l-62 -15q-1 -23 -1 -76q0 -20 -24 -30q-22 -7 -23 8l2 84q-3 -1 -8.5 -3.5t-8.5 -3t-8 -1t-10 2.5t-11 9
q-16 15 2 22q22 8 45 12q4 190 26 327q3 20 28 24q22 4 22 -10v-3l-4 -23q19 -149 61 -285q17 4 29 5q12 2 23 -11q13 -15 -7 -18q-24 -4 -35 -7q21 -63 52 -130q11 -23 0 -41q-6 -11 -14 3q-44 79 -74 160z" />
    <glyph glyph-name="Aacute" unicode="&#xc1;" horiz-adv-x="205" 
d="M28 609q34 44 66 110q4 4 28 0q18 -2 16 -9q0 -1 -1 -3q-30 -61 -75 -117q-3 -2 -13.5 0t-18 7t-2.5 12zM96 231q-25 71 -41 141q-6 -83 -8 -152q11 2 49 11zM108 199l-62 -15q-1 -23 -1 -76q0 -20 -24 -30q-22 -7 -23 8l2 84q-3 -1 -8.5 -3.5t-8.5 -3t-8 -1t-10 2.5
t-11 9q-16 15 2 22q22 8 45 12q4 190 26 327q3 20 28 24q22 4 22 -10v-3l-4 -23q19 -149 61 -285q17 4 29 5q12 2 23 -11q13 -15 -7 -18q-24 -4 -35 -7q21 -63 52 -130q11 -23 0 -41q-6 -11 -14 3q-44 79 -74 160z" />
    <glyph glyph-name="Acircumflex" unicode="&#xc2;" horiz-adv-x="205" 
d="M100 680q21 -74 39 -103q5 -8 2 -18q-1 -7 -9 -2q-36 25 -57 72l-25 -27q-2 -1 -11 2.5t-15.5 9.5t-2.5 10q29 32 42 57q2 2 17 -1q17 11 20 0zM96 231q-25 71 -41 141q-6 -83 -8 -152q11 2 49 11zM108 199l-62 -15q-1 -23 -1 -76q0 -20 -24 -30q-22 -7 -23 8l2 84
q-3 -1 -8.5 -3.5t-8.5 -3t-8 -1t-10 2.5t-11 9q-16 15 2 22q22 8 45 12q4 190 26 327q3 20 28 24q22 4 22 -10v-3l-4 -23q19 -149 61 -285q17 4 29 5q12 2 23 -11q13 -15 -7 -18q-24 -4 -35 -7q21 -63 52 -130q11 -23 0 -41q-6 -11 -14 3q-44 79 -74 160z" />
    <glyph glyph-name="Atilde" unicode="&#xc3;" horiz-adv-x="205" 
d="M17 625q36 -18 57 -16t33 30q3 4 13 3.5t20 -6t7 -11.5q-23 -53 -60 -50q-15 1 -36 18q-21 16 -26 18q-8 3 -11.5 6.5t3.5 7.5zM96 231q-25 71 -41 141q-6 -83 -8 -152q11 2 49 11zM108 199l-62 -15q-1 -23 -1 -76q0 -20 -24 -30q-22 -7 -23 8l2 84q-3 -1 -8.5 -3.5
t-8.5 -3t-8 -1t-10 2.5t-11 9q-16 15 2 22q22 8 45 12q4 190 26 327q3 20 28 24q22 4 22 -10v-3l-4 -23q19 -149 61 -285q17 4 29 5q12 2 23 -11q13 -15 -7 -18q-24 -4 -35 -7q21 -63 52 -130q11 -23 0 -41q-6 -11 -14 3q-44 79 -74 160z" />
    <glyph glyph-name="Adieresis" unicode="&#xc4;" horiz-adv-x="205" 
d="M94 632q0 -24 2 -46q0 -5 -18.5 -11.5t-22.5 0.5q-6 25 -6 55q0 2 11 5t22 3t12 -6zM40 634q-3 -21 -3 -31q0 -2 -11.5 -6.5t-21.5 -5t-12 5.5q-1 22 2 40q0 2 12 4t23.5 0.5t10.5 -7.5zM96 231q-25 71 -41 141q-6 -83 -8 -152q11 2 49 11zM108 199l-62 -15
q-1 -23 -1 -76q0 -20 -24 -30q-22 -7 -23 8l2 84q-3 -1 -8.5 -3.5t-8.5 -3t-8 -1t-10 2.5t-11 9q-16 15 2 22q22 8 45 12q4 190 26 327q3 20 28 24q22 4 22 -10v-3l-4 -23q19 -149 61 -285q17 4 29 5q12 2 23 -11q13 -15 -7 -18q-24 -4 -35 -7q21 -63 52 -130q11 -23 0 -41
q-6 -11 -14 3q-44 79 -74 160z" />
    <glyph glyph-name="Aring" unicode="&#xc5;" horiz-adv-x="205" 
d="M64 603q17 -4 21.5 -0.5t3.5 15.5q-3 43 -19 55q-1 1 -2.5 -0.5t-2.5 -4.5q-12 -22 -10 -49q1 -5 0 -12q4 0 9 -4zM53 599q-4 -18 -15 -7q-24 26 -15 61q9 36 44 39q15 1 32 -12.5t25 -32.5q11 -26 -6 -49q-16 -22 -44 -16q-15 3 -21 17zM96 231q-25 71 -41 141
q-6 -83 -8 -152q11 2 49 11zM108 199l-62 -15q-1 -23 -1 -76q0 -20 -24 -30q-22 -7 -23 8l2 84q-3 -1 -8.5 -3.5t-8.5 -3t-8 -1t-10 2.5t-11 9q-16 15 2 22q22 8 45 12q4 190 26 327q3 20 28 24q22 4 22 -10v-3l-4 -23q19 -149 61 -285q17 4 29 5q12 2 23 -11q13 -15 -7 -18
q-24 -4 -35 -7q21 -63 52 -130q11 -23 0 -41q-6 -11 -14 3q-44 79 -74 160z" />
    <glyph glyph-name="AE" unicode="&#xc6;" horiz-adv-x="205" 
d="M96 231q-25 71 -41 141q-6 -83 -8 -152q11 2 49 11zM108 199l-62 -15q-1 -23 -1 -76q0 -20 -24 -30q-22 -7 -23 8l2 84q-3 -1 -8.5 -3.5t-8.5 -3t-8 -1t-10 2.5t-11 9q-16 15 2 22q22 8 45 12q4 190 26 327q3 20 28 24q22 4 22 -10v-3l-4 -23q19 -149 61 -285q17 4 29 5
q12 2 23 -11q13 -15 -7 -18q-24 -4 -35 -7q21 -63 52 -130q11 -23 0 -41q-6 -11 -14 3q-44 79 -74 160z" />
    <glyph glyph-name="Ccedilla" unicode="&#xc7;" horiz-adv-x="184" 
d="M127 296l1 2q0 3 0.5 7.5t0.5 9.5q3 25 4 39q2 19 2 38q0 21 -4 36q-4 21 -16.5 35t-24.5 9q-18 -8 -35 -57q-21 -62 -22 -143q-2 -61 9 -110q3 -16 8 -32l2 9q3 2 14 2.5t22 -3.5t8 -10q-6 -24 -8 -36q11 5 18 17q14 27 38 35q17 7 17 -11v-5q-5 -21 -21.5 -38
t-33.5 -20q-14 -2 -22 -2l-3 -25q0 -2 -12 -5.5t-23.5 -2.5t-10.5 8l4 40q-6 5 -11 11q-30 36 -38 129q-9 111 14 183q15 45 55 70q41 26 74 6q56 -35 44 -155q-3 -30 -28 -43q-19 -10 -22 6q-1 3 0 6z" />
    <glyph glyph-name="Egrave" unicode="&#xc8;" horiz-adv-x="195" 
d="M88 531q-17 38 -41 110q-1 3 7 10.5t16 10.5t12 -3q5 -12 19 -54l18 -54q1 -3 -6 -11t-14 -11.5t-11 2.5zM67 479q52 14 85 31q8 3 28 -15q20 -19 3 -26q-19 -7 -39 -12q-11 -3 -28 -7t-33 -7t-20 -4q-6 -60 -8 -148q33 4 56 12q5 2 20 -15q19 -21 -1 -24q-25 -5 -41 -6
l-35 -3q0 -66 4 -114q32 15 66 20q8 2 16 -12q7 -13 -8 -19q-14 -6 -34 -18q-19 -12 -36 -19l3 -31q1 -14 -13 -28q-11 -11 -14 1q-10 31 -13 51q-14 7 -18 17.5t9 16.5q1 1 3 1q-9 55 -11 136q-22 20 -2 28h2q0 73 8 164q-8 13 2 17q0 4 1 7q1 7 13 11.5t23.5 3t11.5 -8.5z
" />
    <glyph glyph-name="Eacute" unicode="&#xc9;" horiz-adv-x="195" 
d="M53 553q29 31 58 76q2 1 13 -0.5t20 -6t5 -10.5q-25 -38 -67 -80q-2 -3 -11.5 0.5t-16 9.5t-1.5 11zM67 479q52 14 85 31q8 3 28 -15q20 -19 3 -26q-19 -7 -39 -12q-11 -3 -28 -7t-33 -7t-20 -4q-6 -60 -8 -148q33 4 56 12q5 2 20 -15q19 -21 -1 -24q-25 -5 -41 -6
l-35 -3q0 -66 4 -114q32 15 66 20q8 2 16 -12q7 -13 -8 -19q-14 -6 -34 -18q-19 -12 -36 -19l3 -31q1 -14 -13 -28q-11 -11 -14 1q-10 31 -13 51q-14 7 -18 17.5t9 16.5q1 1 3 1q-9 55 -11 136q-22 20 -2 28h2q0 73 8 164q-8 13 2 17q0 4 1 7q1 7 13 11.5t23.5 3t11.5 -8.5z
" />
    <glyph glyph-name="Ecircumflex" unicode="&#xca;" horiz-adv-x="195" 
d="M22 550l41 56q27 36 40 55q3 3 18 0q15 4 17 -5v-1q8 -5 3 -11l-2 -3q9 -69 35 -91q23 -17 10 -15h-3q-48 10 -73 64q-31 -39 -46 -64q-4 -2 -14.5 -1.5t-19.5 5t-6 11.5zM67 479q52 14 85 31q8 3 28 -15q20 -19 3 -26q-19 -7 -39 -12q-11 -3 -28 -7t-33 -7t-20 -4
q-6 -60 -8 -148q33 4 56 12q5 2 20 -15q19 -21 -1 -24q-25 -5 -41 -6l-35 -3q0 -66 4 -114q32 15 66 20q8 2 16 -12q7 -13 -8 -19q-14 -6 -34 -18q-19 -12 -36 -19l3 -31q1 -14 -13 -28q-11 -11 -14 1q-10 31 -13 51q-14 7 -18 17.5t9 16.5q1 1 3 1q-9 55 -11 136
q-22 20 -2 28h2q0 73 8 164q-8 13 2 17q0 4 1 7q1 7 13 11.5t23.5 3t11.5 -8.5z" />
    <glyph glyph-name="Edieresis" unicode="&#xcb;" horiz-adv-x="195" 
d="M131 568l3 -20q0 -3 -20.5 -8t-23.5 2l-2 20q0 3 20.5 8t22.5 -2zM79 568l-2 -20q0 -1 -11.5 -3t-23 -1t-11.5 6l2 21l11 2q35 7 35 -5zM67 479q52 14 85 31q8 3 28 -15q20 -19 3 -26q-19 -7 -39 -12q-11 -3 -28 -7t-33 -7t-20 -4q-6 -60 -8 -148q33 4 56 12q5 2 20 -15
q19 -21 -1 -24q-25 -5 -41 -6l-35 -3q0 -66 4 -114q32 15 66 20q8 2 16 -12q7 -13 -8 -19q-14 -6 -34 -18q-19 -12 -36 -19l3 -31q1 -14 -13 -28q-11 -11 -14 1q-10 31 -13 51q-14 7 -18 17.5t9 16.5q1 1 3 1q-9 55 -11 136q-22 20 -2 28h2q0 73 8 164q-8 13 2 17q0 4 1 7
q1 7 13 11.5t23.5 3t11.5 -8.5z" />
    <glyph glyph-name="Igrave" unicode="&#xcc;" horiz-adv-x="168" 
d="M100 546q-35 51 -62 99q-3 7 11.5 17.5t19.5 3.5q21 -49 53 -97q4 -6 -8 -20q-9 -11 -14 -3zM55 455l3 34q1 15 26 22q11 2 17 -0.5t5 -9.5l-4 -52q20 -3 44 -8q6 -1 9 -18q2 -14 -8 -14q-1 0 -7 2q-17 6 -40 9q-8 -137 3 -262q27 0 49 -3q6 -1 10 -17q2 -7 0 -11t-8 -3
h-5q-24 7 -50 1q-7 -9 -17 -14t-15 -1l-1 -1q-1 -2 -13.5 7.5t-18.5 19t5 18.5l21 2q-12 130 -6 270q-3 1 -9 1q-7 1 -13 16q-3 8 -0.5 11.5t9.5 2.5q1 -1 14 -2z" />
    <glyph glyph-name="Iacute" unicode="&#xcd;" horiz-adv-x="191" 
d="M79 571q38 38 67 84q3 2 13.5 1.5t20 -6t5.5 -11.5q-33 -49 -79 -89q-6 -4 -22 6q-12 9 -5 15zM55 455l3 34q1 15 26 22q11 2 17 -0.5t5 -9.5l-4 -52q20 -3 44 -8q6 -1 9 -18q2 -14 -8 -14q-1 0 -7 2q-17 6 -40 9q-8 -137 3 -262q27 0 49 -3q6 -1 10 -17q2 -7 0 -11
t-8 -3h-5q-24 7 -50 1q-7 -9 -17 -14t-15 -1l-1 -1q-1 -2 -13.5 7.5t-18.5 19t5 18.5l21 2q-12 130 -6 270q-3 1 -9 1q-7 1 -13 16q-3 8 -0.5 11.5t9.5 2.5q1 -1 14 -2z" />
    <glyph glyph-name="Icircumflex" unicode="&#xce;" horiz-adv-x="168" 
d="M128 637h-1q7 -44 26 -67q7 -8 5 -17q-1 -4 -8 0q-30 14 -50 45l-24 -36l-18 -27q-3 -2 -13 -1t-19 7t-5 12q34 53 61 89q0 1 4 5l8 10q2 3 13 0q17 5 18 -4q0 -4 1 -5q5 -7 2 -11zM55 455l3 34q1 15 26 22q11 2 17 -0.5t5 -9.5l-4 -52q20 -3 44 -8q6 -1 9 -18
q2 -14 -8 -14q-1 0 -7 2q-17 6 -40 9q-8 -137 3 -262q27 0 49 -3q6 -1 10 -17q2 -7 0 -11t-8 -3h-5q-24 7 -50 1q-7 -9 -17 -14t-15 -1l-1 -1q-1 -2 -13.5 7.5t-18.5 19t5 18.5l21 2q-12 130 -6 270q-3 1 -9 1q-7 1 -13 16q-3 8 -0.5 11.5t9.5 2.5q1 -1 14 -2z" />
    <glyph glyph-name="Idieresis" unicode="&#xcf;" horiz-adv-x="168" 
d="M160 575q-4 -15 -4 -22q0 -4 -22 -7.5t-23 4.5q-1 15 3 31q0 2 12 3t23.5 -1t10.5 -8zM75 581q-3 -17 -3 -18q2 -3 -18 -12q-20 -7 -21 0q-6 21 -4 34q0 2 12 3.5t23.5 0t10.5 -7.5zM55 455l3 34q1 15 26 22q11 2 17 -0.5t5 -9.5l-4 -52q20 -3 44 -8q6 -1 9 -18
q2 -14 -8 -14q-1 0 -7 2q-17 6 -40 9q-8 -137 3 -262q27 0 49 -3q6 -1 10 -17q2 -7 0 -11t-8 -3h-5q-24 7 -50 1q-7 -9 -17 -14t-15 -1l-1 -1q-1 -2 -13.5 7.5t-18.5 19t5 18.5l21 2q-12 130 -6 270q-3 1 -9 1q-7 1 -13 16q-3 8 -0.5 11.5t9.5 2.5q1 -1 14 -2z" />
    <glyph glyph-name="Eth" unicode="&#xd0;" horiz-adv-x="189" 
d="M6 457l2 30q2 18 25 25q23 8 23 -7v-3q-1 -10 -1 -31q16 1 30 -5q30 -13 53.5 -44.5t36.5 -74.5q21 -72 -3 -132q-14 -35 -38.5 -61.5t-53.5 -36.5l-9 -3l2 -14q3 -19 -19 -32q-20 -11 -21 5q-29 203 -27 348l-3 -3q-16 -24 -40 -25q-7 -1 -11 2t-3 8l3 10q28 30 54 44z
M69 136q27 18 51 71q21 47 18 99q-4 77 -37 119q-19 25 -47 24q-5 -146 15 -313z" />
    <glyph glyph-name="Ntilde" unicode="&#xd1;" horiz-adv-x="233" 
d="M43 581q43 37 78 9q4 -3 12 -10l11.5 -10t10.5 -7.5t10 -3.5t10 1q8 5 25 -8q10 -7 0 -11q-50 -13 -87 21l-9 8q-15 13 -18 8q-1 -2 -2 -8q-2 -9 -24 -6q-10 1 -14.5 5t-3.5 9q0 2 1 3zM21 148q1 56 9 156q7 102 9 146q0 3 3 6l-2 9q-3 9 19 20q21 9 23 -3l2 -11
q1 -2 1 -6v-4q30 -176 64 -305q-3 174 30 313q5 17 30 18q20 2 20 -12q0 -2 -1 -3q-43 -160 -34 -370q1 -9 -7.5 -18.5t-18.5 -12.5q-6 -18 -14 -18q-3 0 -5 5q-42 83 -74 226q-7 -92 -8 -121q-2 -15 -24 -22t-22 7z" />
    <glyph glyph-name="Ograve" unicode="&#xd2;" horiz-adv-x="183" 
d="M85 558q-34 29 -50 54q-1 2 7.5 8.5t17 9t12.5 -2.5q4 -26 25 -50q4 -2 -1 -16q-5 -9 -11 -3zM80 484l-4 -3q-35 -78 -37 -167q0 -77 18 -135q18 -62 38 -59q13 3 23 67q11 69 14 140q4 148 -34 176q-6 4 -39 14q-7 3 1 4q2 1 8 1q34 2 63 -26.5t40 -74.5q11 -43 6 -108
q-13 -204 -78 -210q-42 -3 -72 59q-30 61 -33 142q-4 116 30 171q18 28 45 22q15 -4 11 -13z" />
    <glyph glyph-name="Oacute" unicode="&#xd3;" horiz-adv-x="183" 
d="M65 572q29 26 61 71q1 2 11.5 -0.5t19 -8t4.5 -10.5q-35 -46 -73 -73q-7 -5 -20 7q-11 9 -3 14zM80 484l-4 -3q-35 -78 -37 -167q0 -77 18 -135q18 -62 38 -59q13 3 23 67q11 69 14 140q4 148 -34 176q-6 4 -39 14q-7 3 1 4q2 1 8 1q34 2 63 -26.5t40 -74.5
q11 -43 6 -108q-13 -204 -78 -210q-42 -3 -72 59q-30 61 -33 142q-4 116 30 171q18 28 45 22q15 -4 11 -13z" />
    <glyph glyph-name="Ocircumflex" unicode="&#xd4;" horiz-adv-x="183" 
d="M111 637q17 -82 45 -95q13 -6 16 -13q0 -3 -4 -3h-2q-51 6 -81 59q-18 -22 -39 -43q-1 -1 -10.5 2t-16.5 9t-3 11q36 39 54 64l3 1q10 8 21.5 11.5t16.5 -3.5zM80 484l-4 -3q-35 -78 -37 -167q0 -77 18 -135q18 -62 38 -59q13 3 23 67q11 69 14 140q4 148 -34 176
q-6 4 -39 14q-7 3 1 4q2 1 8 1q34 2 63 -26.5t40 -74.5q11 -43 6 -108q-13 -204 -78 -210q-42 -3 -72 59q-30 61 -33 142q-4 116 30 171q18 28 45 22q15 -4 11 -13z" />
    <glyph glyph-name="Otilde" unicode="&#xd5;" horiz-adv-x="178" 
d="M14 576q35 35 69 5q19 -17 39 12q7 10 31 5q22 -5 11 -16q-36 -39 -74 -25q-13 4 -32 20q-1 1 -1 -1v-1q6 -9 -10 -11q-3 -1 -7 -1q-15 -1 -21.5 1.5t-5.5 9.5q0 1 1 2zM78 486l-3 -4q-36 -76 -38 -168q0 -78 18 -136q20 -62 40 -59q13 3 25 67q13 68 14 141
q4 149 -36 177q-5 4 -39 13q-3 1 0 2q2 1 9 1q33 2 60.5 -26t37.5 -73q10 -43 6 -108q-13 -202 -73 -208q-40 -4 -69 58q-28 60 -31 141q-5 113 30 169q16 28 41 23q13 -2 8 -10z" />
    <glyph glyph-name="Odieresis" unicode="&#xd6;" horiz-adv-x="183" 
d="M64 579q0 -5 -0.5 -10.5t-1 -8.5t-0.5 -4t-12 -4t-22 -3.5t-12 5.5q0 19 1 26q1 4 24 5.5t23 -6.5zM127 577q-1 -5 -2.5 -10.5t-2.5 -8.5v-2q0 -3 -17 -9q-18 -5 -19 2q-1 13 3 34q0 1 4 1.5t10 1t12 0t9.5 -2.5t2.5 -6zM80 484l-4 -3q-35 -78 -37 -167q0 -77 18 -135
q18 -62 38 -59q13 3 23 67q11 69 14 140q4 148 -34 176q-6 4 -39 14q-7 3 1 4q2 1 8 1q34 2 63 -26.5t40 -74.5q11 -43 6 -108q-13 -204 -78 -210q-42 -3 -72 59q-30 61 -33 142q-4 116 30 171q18 28 45 22q15 -4 11 -13z" />
    <glyph glyph-name="multiply" unicode="&#xd7;" horiz-adv-x="180" 
d="M109 343q18 -60 41 -127q5 -14 -12 -29q-14 -12 -18 1q-23 61 -39 110q-16 -28 -23 -42q-5 -10 -30 -5q-19 4 -14 15q22 40 51 84q-7 22 -34 119q-3 13 16 26q18 12 21 -2q10 -40 26 -98q9 15 40 61q7 10 30 2q17 -6 10 -15q-22 -32 -65 -100z" />
    <glyph glyph-name="Oslash" unicode="&#xd8;" horiz-adv-x="221" 
d="M78 511q-37 -87 -37 -191q0 -41 6 -83q44 158 77 245q-9 38 -26 52q-4 4 -39 16q-8 4 4 5h5q39 0 69 -39q18 44 36 81q7 16 29 10q19 -6 13 -18q-25 -51 -51 -125q7 -16 10 -37q9 -50 5 -116q-14 -235 -77 -239q-24 -2 -45 22l-5 -20q-4 -18 -31 -21q-11 -2 -16 0.5
t-4 9.5v3l5 18q5 17 8 29l10 40q-25 68 -28 157q-5 129 28 190q16 31 44 27q13 -1 13 -10q0 -3 -3 -6zM134 331v41q-26 -87 -66 -236q17 -50 31 -47q12 3 23 78q12 86 12 164z" />
    <glyph glyph-name="Ugrave" unicode="&#xd9;" horiz-adv-x="152" 
d="M71 517q-25 39 -31 77q-1 3 10 8.5t21 7t12 -5.5q5 -45 14 -65q2 -7 -9 -17.5t-17 -4.5zM147 457q-38 -224 0 -365q4 -19 -6 -35q-8 -12 -13 2q-14 32 -19 49q-26 -15 -53 -9.5t-43 28.5q-4 6 -12 33q-3 21 -3 26q-2 10 -2 29q-4 52 -1 115q6 89 20 135q5 15 31 12
q9 -1 13.5 -4t3.5 -7q0 -2 -1 -3q-14 -57 -20 -130q-5 -59 -2 -93q6 -102 27 -117q5 -3 9 0q9 7 27 6q-35 133 -5 320q3 15 28 19q12 1 17 -1.5t4 -9.5z" />
    <glyph glyph-name="Uacute" unicode="&#xda;" horiz-adv-x="152" 
d="M69 526q19 20 37 44q1 2 11.5 -0.5t19 -8t4.5 -11.5l-42 -44q-4 -6 -23 5q-14 8 -7 15zM147 457q-38 -224 0 -365q4 -19 -6 -35q-8 -12 -13 2q-14 32 -19 49q-26 -15 -53 -9.5t-43 28.5q-4 6 -12 33q-3 21 -3 26q-2 10 -2 29q-4 52 -1 115q6 89 20 135q5 15 31 12
q9 -1 13.5 -4t3.5 -7q0 -2 -1 -3q-14 -57 -20 -130q-5 -59 -2 -93q6 -102 27 -117q5 -3 9 0q9 7 27 6q-35 133 -5 320q3 15 28 19q12 1 17 -1.5t4 -9.5z" />
    <glyph glyph-name="Ucircumflex" unicode="&#xdb;" horiz-adv-x="167" 
d="M105 612q10 -28 18.5 -41.5t26.5 -23.5q9 -3 12 -11q1 -2 -1 -3.5t-6 -0.5q-45 8 -72 42l-37 -38q-2 -2 -11 1.5t-15.5 9.5t-1.5 11q17 18 56 63q3 5 21 -6q8 2 10 -3zM147 457q-38 -224 0 -365q4 -19 -6 -35q-8 -12 -13 2q-14 32 -19 49q-26 -15 -53 -9.5t-43 28.5
q-4 6 -12 33q-3 21 -3 26q-2 10 -2 29q-4 52 -1 115q6 89 20 135q5 15 31 12q9 -1 13.5 -4t3.5 -7q0 -2 -1 -3q-14 -57 -20 -130q-5 -59 -2 -93q6 -102 27 -117q5 -3 9 0q9 7 27 6q-35 133 -5 320q3 15 28 19q12 1 17 -1.5t4 -9.5z" />
    <glyph glyph-name="Udieresis" unicode="&#xdc;" horiz-adv-x="152" 
d="M120 547l-3 -24q-2 -2 -24.5 -2t-22.5 8l4 24q0 1 5 1.5t11.5 0.5t13.5 -0.5t11.5 -2.5t4.5 -5zM70 566l-2 -20l-5 -1q-5 -1 -11.5 -1.5t-13.5 -0.5t-11.5 1.5t-4.5 5.5l2 20l5 1q5 1 11.5 1.5t13.5 0.5t11.5 -1.5t4.5 -5.5zM147 457q-38 -224 0 -365q4 -19 -6 -35
q-8 -12 -13 2q-14 32 -19 49q-26 -15 -53 -9.5t-43 28.5q-4 6 -12 33q-3 21 -3 26q-2 10 -2 29q-4 52 -1 115q6 89 20 135q5 15 31 12q9 -1 13.5 -4t3.5 -7q0 -2 -1 -3q-14 -57 -20 -130q-5 -59 -2 -93q6 -102 27 -117q5 -3 9 0q9 7 27 6q-35 133 -5 320q3 15 28 19
q12 1 17 -1.5t4 -9.5z" />
    <glyph glyph-name="Yacute" unicode="&#xdd;" horiz-adv-x="170" 
d="M66 543q24 28 51 68q5 7 27 0q18 -8 11 -16q-18 -27 -54 -69q-6 -7 -26 2q-17 8 -9 15zM165 495v-3q-49 -274 -67 -403q-2 -17 -25 -25q-22 -7 -23 6v3q15 111 28 191q-23 29 -40 75l-19 49q-11 29 -14 42q-3 7 12.5 17t21.5 2l24 -60.5l25 -63.5l28 154q3 18 27 24
q22 4 22 -8z" />
    <glyph glyph-name="Thorn" unicode="&#xde;" horiz-adv-x="234" 
d="M100 470q51 2 87.5 -14.5t41.5 -48.5q6 -30 -35 -56q-39 -24 -89 -27q2 -92 1 -127q0 -19 -24 -27q-22 -9 -24 6q-1 1 -1 3q3 87 1 141q0 11 -2 59.5t-3 85.5l-4 147q0 19 23 29q21 9 23 -5q1 -1 1 -3q0 -71 4 -163zM100 454l4 -116q27 1 51 18.5t28 36.5q7 34 -9 53
q-9 11 -26.5 14t-34.5 -4q-8 -2 -13 -2z" />
    <glyph glyph-name="germandbls" unicode="&#xdf;" horiz-adv-x="262" 
d="M65 150q-36 183 -22 310q6 58 34 115q29 59 66 69q20 6 42 -25t26 -69q6 -50 -18 -90q-12 -19 -23 -26q35 5 55 -12q16 -15 25.5 -37.5t5.5 -42.5q-6 -37 -41.5 -54.5t-80.5 -6.5q-24 6 -31 22q-2 4 -1 6.5t5 1.5q3 0 9 -3q41 -15 63.5 -9t27.5 28q6 33 2 58
q-3 19 -15 28.5t-26 1.5q-15 -8 -29 0q-9 5 0 12q-10 4 -2 19q39 71 23 160q-5 24 -21 2q-3 -3 -13 -22q-20 -48 -25 -71q-28 -154 -3 -320q5 -32 -13 -51q-13 -15 -19 4q-1 1 -1 2z" />
    <glyph glyph-name="agrave" unicode="&#xe0;" 
d="M93 422q-44 30 -65 71q-2 2 10 10q26 17 27 5q9 -41 35 -67q5 -5 2 -16q-2 -7 -9 -3zM99 367q1 -40 13 -78q22 -69 37 -66q5 2 8 9q5 14 30 15q11 1 16 -1.5t4 -8.5q-1 -1 -1 -4q-11 -24 -32.5 -34t-41.5 -4q-18 7 -30 24q-29 -26 -56 -20q-21 4 -35.5 21.5t-15.5 41.5
q-1 44 18.5 77.5t52.5 41.5q9 2 16 -8q9 2 13.5 0t3.5 -6zM84 250q0 1 -1 2q-17 42 -26 88q-11 -20 -15 -51q-3 -21 2 -60q3 -21 22 4q1 2 5 6q4 6 13 11z" />
    <glyph glyph-name="aacute" unicode="&#xe1;" 
d="M53 440q22 22 52 62q6 8 27 -1q16 -7 10 -16q-27 -34 -60 -65q-6 -6 -24 5q-12 8 -5 15zM99 367q1 -40 13 -78q22 -69 37 -66q5 2 8 9q5 14 30 15q11 1 16 -1.5t4 -8.5q-1 -1 -1 -4q-11 -24 -32.5 -34t-41.5 -4q-18 7 -30 24q-29 -26 -56 -20q-21 4 -35.5 21.5
t-15.5 41.5q-1 44 18.5 77.5t52.5 41.5q9 2 16 -8q9 2 13.5 0t3.5 -6zM84 250q0 1 -1 2q-17 42 -26 88q-11 -20 -15 -51q-3 -21 2 -60q3 -21 22 4q1 2 5 6q4 6 13 11z" />
    <glyph glyph-name="acircumflex" unicode="&#xe2;" 
d="M113 498q15 -46 36 -71q5 -5 0 -17q-4 -8 -11 -3q-27 22 -46 48q-22 -32 -31 -54q-3 0 -13.5 -0.5t-21 3t-8.5 11.5q24 41 58 86q1 4 19 -2q15 8 18 -1zM99 367q1 -40 13 -78q22 -69 37 -66q5 2 8 9q5 14 30 15q11 1 16 -1.5t4 -8.5q-1 -1 -1 -4q-11 -24 -32.5 -34
t-41.5 -4q-18 7 -30 24q-29 -26 -56 -20q-21 4 -35.5 21.5t-15.5 41.5q-1 44 18.5 77.5t52.5 41.5q9 2 16 -8q9 2 13.5 0t3.5 -6zM84 250q0 1 -1 2q-17 42 -26 88q-11 -20 -15 -51q-3 -21 2 -60q3 -21 22 4q1 2 5 6q4 6 13 11z" />
    <glyph glyph-name="atilde" unicode="&#xe3;" 
d="M10 429q12 21 31 29.5t30 -0.5q5 -3 13.5 -9.5t12.5 -9t11.5 -5t11.5 2.5q6 4 25 -6q13 -7 3 -12q-47 -17 -81 11l-6 5q-5 5 -5 2q-1 -1 0 -6v-7q-2 -11 -26 -10q-22 0 -21 12q0 2 1 3zM99 367q1 -40 13 -78q22 -69 37 -66q5 2 8 9q5 14 30 15q11 1 16 -1.5t4 -8.5
q-1 -1 -1 -4q-11 -24 -32.5 -34t-41.5 -4q-18 7 -30 24q-29 -26 -56 -20q-21 4 -35.5 21.5t-15.5 41.5q-1 44 18.5 77.5t52.5 41.5q9 2 16 -8q9 2 13.5 0t3.5 -6zM84 250q0 1 -1 2q-17 42 -26 88q-11 -20 -15 -51q-3 -21 2 -60q3 -21 22 4q1 2 5 6q4 6 13 11z" />
    <glyph glyph-name="adieresis" unicode="&#xe4;" 
d="M95 456v-23q1 -1 -3 -4t-9.5 -5.5t-11.5 -4.5t-10.5 -1.5t-5.5 3.5q-6 24 -5 33q0 4 22 7.5t23 -5.5zM45 450l-4 -18h-5q-5 -1 -12 -1t-13.5 1t-11 3t-3.5 6l4 18l5 1h12t13.5 -1t11 -3t3.5 -6zM99 367q1 -40 13 -78q22 -69 37 -66q5 2 8 9q5 14 30 15q11 1 16 -1.5
t4 -8.5q-1 -1 -1 -4q-11 -24 -32.5 -34t-41.5 -4q-18 7 -30 24q-29 -26 -56 -20q-21 4 -35.5 21.5t-15.5 41.5q-1 44 18.5 77.5t52.5 41.5q9 2 16 -8q9 2 13.5 0t3.5 -6zM84 250q0 1 -1 2q-17 42 -26 88q-11 -20 -15 -51q-3 -21 2 -60q3 -21 22 4q1 2 5 6q4 6 13 11z" />
    <glyph glyph-name="aring" unicode="&#xe5;" 
d="M58 440h4q28 7 32 25q7 31 -6 37q-9 3 -22 -7.5t-16 -21.5q-4 -19 8 -33zM99 367q1 -40 13 -78q22 -69 37 -66q5 2 8 9q5 14 30 15q11 1 16 -1.5t4 -8.5q-1 -1 -1 -4q-11 -24 -32.5 -34t-41.5 -4q-18 7 -30 24q-29 -26 -56 -20q-21 4 -35.5 21.5t-15.5 41.5
q-1 44 18.5 77.5t52.5 41.5q9 2 16 -8q9 2 13.5 0t3.5 -6zM88 426q14 -8 -2 -9q-26 -2 -50 10.5t-30 33.5q-6 20 16 38q22 17 46 19q26 1 47.5 -9.5t25.5 -29.5q4 -17 -12.5 -33t-40.5 -20zM84 250q0 1 -1 2q-17 42 -26 88q-11 -20 -15 -51q-3 -21 2 -60q3 -21 22 4q1 2 5 6
q4 6 13 11z" />
    <glyph glyph-name="ae" unicode="&#xe6;" 
d="M118 310q35 14 39 29q4 10 2.5 25t-7.5 16q-17 2 -31 -19.5t-15 -47.5l2 -9q0 5 10 6zM93 374q19 21 44 24q22 3 44.5 -12.5t23.5 -38.5q1 -16 -16.5 -30.5t-43.5 -20.5q-30 -5 -37 7l4 -14q19 -70 37 -66q5 2 8 9q5 14 30 15q11 1 16 -1.5t4 -8.5q-1 -1 -1 -4
q-11 -24 -32.5 -34t-41.5 -4q-18 7 -30 24q-29 -26 -56 -20q-21 4 -35.5 21.5t-15.5 41.5q-1 44 18.5 77.5t52.5 41.5q9 2 16 -8q9 2 11 1zM84 250q0 1 -1 2q-17 42 -26 88q-11 -20 -15 -51q-3 -21 2 -60q3 -21 22 4q1 2 5 6q4 6 13 11z" />
    <glyph glyph-name="ccedilla" unicode="&#xe7;" horiz-adv-x="172" 
d="M78 304q-4 16 -18 47l-3 6q-7 -4 -13 -52q-6 -53 4 -85q1 4 13 7t23 2t10 -8l-3 -27q7 4 12 12q11 21 20 59q5 18 27 22q9 1 13.5 -1.5t3.5 -8.5q-9 -39 -29.5 -68.5t-48.5 -35.5v-9q-2 -5 -24 -8t-23 7l2 19q-29 19 -40 63q-10 43 2 80q10 31 41 38q32 8 52 -17
q18 -21 1 -45q-10 -16 -19 -5q-1 1 -3 8z" />
    <glyph glyph-name="egrave" unicode="&#xe8;" horiz-adv-x="172" 
d="M79 423q-26 26 -35 42q-1 2 5 10t12.5 11.5t11.5 -1.5l9 -18.5t13 -22.5q5 -4 -3 -18q-6 -10 -13 -3zM74 272q21 36 29 67q3 15 -6 15t-17 -13q-23 -35 -16 -82q4 -27 20 -35t29 12q12 19 39 21q8 1 12 -2t3 -8q0 -3 -3 -8q-15 -25 -40.5 -36t-47.5 -5q-24 7 -41 29.5
t-17 50.5q-1 36 18.5 66t45.5 34q27 4 47 -26q19 -30 1 -68q-13 -30 -43 -33q-10 -1 -14.5 1.5t-3.5 8.5q0 4 5 11z" />
    <glyph glyph-name="eacute" unicode="&#xe9;" horiz-adv-x="172" 
d="M54 422q15 17 43 45q2 3 11 -0.5t15.5 -9.5t1.5 -11l-39 -43q-4 -6 -24 3q-16 8 -8 16zM74 272q21 36 29 67q3 15 -6 15t-17 -13q-23 -35 -16 -82q4 -27 20 -35t29 12q12 19 39 21q8 1 12 -2t3 -8q0 -3 -3 -8q-15 -25 -40.5 -36t-47.5 -5q-24 7 -41 29.5t-17 50.5
q-1 36 18.5 66t45.5 34q27 4 47 -26q19 -30 1 -68q-13 -30 -43 -33q-10 -1 -14.5 1.5t-3.5 8.5q0 4 5 11z" />
    <glyph glyph-name="ecircumflex" unicode="&#xea;" horiz-adv-x="175" 
d="M104 476q18 -60 55 -76q8 -3 11 -11q2 -5 -6 -3q-47 8 -79 46l-30 -31q-2 -2 -11 1.5t-15.5 9.5t-1.5 11l47 53q2 2 9 0q19 9 21 0zM74 272q21 36 29 67q3 15 -6 15t-17 -13q-23 -35 -16 -82q4 -27 20 -35t29 12q12 19 39 21q8 1 12 -2t3 -8q0 -3 -3 -8
q-15 -25 -40.5 -36t-47.5 -5q-24 7 -41 29.5t-17 50.5q-1 36 18.5 66t45.5 34q27 4 47 -26q19 -30 1 -68q-13 -30 -43 -33q-10 -1 -14.5 1.5t-3.5 8.5q0 4 5 11z" />
    <glyph glyph-name="edieresis" unicode="&#xeb;" horiz-adv-x="172" 
d="M130 438q-1 -5 -2 -9.5t-1 -5.5t-1.5 -3.5t-3 -3t-5.5 -3.5q-23 -16 -29 -6q-8 24 -3 41q0 1 5 1.5t12 0t13.5 -1.5t11 -3.5t3.5 -6.5zM77 453q-1 -8 -2 -14.5t-2 -9t-1 -3.5q0 -3 -18 -12t-20 -1q-7 18 -4 41q1 3 13 5.5t23.5 1.5t10.5 -8zM74 272q21 36 29 67
q3 15 -6 15t-17 -13q-23 -35 -16 -82q4 -27 20 -35t29 12q12 19 39 21q8 1 12 -2t3 -8q0 -3 -3 -8q-15 -25 -40.5 -36t-47.5 -5q-24 7 -41 29.5t-17 50.5q-1 36 18.5 66t45.5 34q27 4 47 -26q19 -30 1 -68q-13 -30 -43 -33q-10 -1 -14.5 1.5t-3.5 8.5q0 4 5 11z" />
    <glyph glyph-name="igrave" unicode="&#xec;" horiz-adv-x="68" 
d="M45 423q-27 34 -34 54q-2 6 14 17t21 1q4 -9 8 -26t9 -24q4 -5 -5 -19q-7 -10 -13 -3zM59 366q-9 -85 -8 -197q0 -10 -24 -16q-21 -6 -21 6q-1 128 5 204q1 10 27 13q21 2 21 -10z" />
    <glyph glyph-name="iacute" unicode="&#xed;" horiz-adv-x="112" 
d="M23 425q23 34 51 67q1 2 11 -1t17.5 -9t3.5 -11q-29 -35 -43 -62q-3 -1 -13.5 -0.5t-20 5.5t-6.5 11zM59 366q-9 -85 -8 -197q0 -10 -24 -16q-21 -6 -21 6q-1 128 5 204q1 10 27 13q21 2 21 -10z" />
    <glyph glyph-name="icircumflex" unicode="&#xee;" horiz-adv-x="112" 
d="M-14 435q21 21 47 55q6 3 24 -3t11 -16l-1 -1q7 -34 33 -51q7 -5 8 -12q1 -2 -1 -3t-6 0q-36 9 -60 36q-5 -7 -23 -25q-6 -6 -25 4q-15 8 -7 16zM59 366q-9 -85 -8 -197q0 -10 -24 -16q-21 -6 -21 6q-1 128 5 204q1 10 27 13q21 2 21 -10z" />
    <glyph glyph-name="idieresis" unicode="&#xef;" horiz-adv-x="85" 
d="M80 446q-2 -13 -4 -14v-1q0 -3 -18 -12q-17 -9 -20 -1q-3 7 -5 23l-1 -9q0 -1 -12 -2.5t-23.5 0.5t-10.5 7l3 24q0 1 12 2.5t23.5 0t10.5 -7.5v-5q1 0 4.5 0.5t9 1.5t11 1t10.5 -0.5t7.5 -2.5t2.5 -5zM59 366q-9 -85 -8 -197q0 -10 -24 -16q-21 -6 -21 6q-1 128 5 204
q1 10 27 13q21 2 21 -10z" />
    <glyph glyph-name="eth" unicode="&#xf0;" horiz-adv-x="190" 
d="M71 381q-67 -87 -42 -145q9 -20 31 -28t39 3q33 24 35 72q0 29 -11 68q-10 35 -22 61l-35 69l-22 -15q-6 -5 -20 6q-10 9 -2 14l30 21q-9 17 -26 56q-14 29 10 46q16 13 24 0q1 -1 1 -5q6 -35 25 -74l32 24q6 4 21 -6q11 -10 4 -14l-44 -31q9 -19 25 -49q39 -73 55 -113
q18 -46 -11 -100q-15 -30 -44.5 -43.5t-57.5 -8.5q-30 5 -54.5 25t-34.5 49q-8 25 1 55t31 52q37 34 65 31q17 -2 6 -13q-2 -4 -9 -7z" />
    <glyph glyph-name="ntilde" unicode="&#xf1;" horiz-adv-x="168" 
d="M11 451q24 16 35 14.5t35 -16.5q17 -11 42 18q11 11 31 3q17 -6 6 -16q-32 -29 -62 -23q-26 4 -42 19q-13 -7 -27 -7.5t-18 8.5zM76 334q-11 -41 -25 -74q-1 -3 -6 -6q2 -47 5 -69q1 -10 -18 -22q-16 -10 -19 1q-21 90 -7 222q0 5 12 9.5t24 3t11 -9.5q-4 -36 -5 -53
q28 34 52 26q17 -6 23 -39q2 -9 4 -29q2 -10 6 -63q1 -10 -16 -24q-16 -12 -20 1q-29 84 -21 126z" />
    <glyph glyph-name="ograve" unicode="&#xf2;" horiz-adv-x="133" 
d="M72 402q-26 60 -29 81q0 7 20 14.5t23 -3.5q3 -15 3 -27q1 -2 3 -9.5t4.5 -15.5t6.5 -16q4 -9 -13 -23q-14 -11 -18 -1zM71 316l-2 4q-5 -18 -9 -40q-18 -52 -9 -61q9 -8 19.5 5t11.5 28q3 44 -11 64zM73 336q54 -31 55 -72q2 -29 -23 -49q-24 -20 -53 -15q-22 4 -33 31
t-5 58q14 66 52 78q14 5 15 -9q1 -6 -3 -7q-2 0 -5 -15z" />
    <glyph glyph-name="oacute" unicode="&#xf3;" horiz-adv-x="148" 
d="M46 406l60 88q2 2 13 0t19.5 -7t4.5 -11q-47 -67 -58 -87q-5 -3 -24.5 2t-14.5 15zM71 316l-2 4q-5 -18 -9 -40q-18 -52 -9 -61q9 -8 19.5 5t11.5 28q3 44 -11 64zM73 336q54 -31 55 -72q2 -29 -23 -49q-24 -20 -53 -15q-22 4 -33 31t-5 58q14 66 52 78q14 5 15 -9
q1 -6 -3 -7q-2 0 -5 -15z" />
    <glyph glyph-name="ocircumflex" unicode="&#xf4;" horiz-adv-x="143" 
d="M108 478q0 -57 20 -80q12 -14 10 -16q-1 -1 -6 1q-33 10 -52 43l-14 -31q-4 -2 -15 -2.5t-21 3.5t-8 10q21 44 41 77q-1 6 -1 18q0 3 12 6.5t23.5 2.5t11.5 -8q-1 -1 -1 -5q10 -5 5 -11q0 -1 -5 -8zM71 316l-2 4q-5 -18 -9 -40q-18 -52 -9 -61q9 -8 19.5 5t11.5 28
q3 44 -11 64zM73 336q54 -31 55 -72q2 -29 -23 -49q-24 -20 -53 -15q-22 4 -33 31t-5 58q14 66 52 78q14 5 15 -9q1 -6 -3 -7q-2 0 -5 -15z" />
    <glyph glyph-name="otilde" unicode="&#xf5;" horiz-adv-x="165" 
d="M17 414q11 23 30.5 27t31.5 -11q25 -22 36 0q5 9 30 5q22 -3 14 -14q-14 -19 -39 -24t-36 4q-13 4 -21 14q-10 -10 -32 -11q-15 -1 -14 10zM71 316l-2 4q-5 -18 -9 -40q-18 -52 -9 -61q9 -8 19.5 5t11.5 28q3 44 -11 64zM73 336q54 -31 55 -72q2 -29 -23 -49
q-24 -20 -53 -15q-22 4 -33 31t-5 58q14 66 52 78q14 5 15 -9q1 -6 -3 -7q-2 0 -5 -15z" />
    <glyph glyph-name="odieresis" unicode="&#xf6;" horiz-adv-x="133" 
d="M117 417l2 -28q0 -2 -11.5 -5.5t-21 -4.5t-11.5 5l-3 28q0 1 11.5 5t21.5 5t12 -5zM69 419v-23q0 -1 -11.5 -4t-22.5 -3t-11 6v22q0 1 11.5 4t21.5 3.5t12 -5.5zM71 316l-2 4q-5 -18 -9 -40q-18 -52 -9 -61q9 -8 19.5 5t11.5 28q3 44 -11 64zM73 336q54 -31 55 -72
q2 -29 -23 -49q-24 -20 -53 -15q-22 4 -33 31t-5 58q14 66 52 78q14 5 15 -9q1 -6 -3 -7q-2 0 -5 -15z" />
    <glyph glyph-name="divide" unicode="&#xf7;" horiz-adv-x="258" 
d="M15 351q102 -31 208 -16q9 1 24 -17q17 -20 -6 -22q-96 -10 -231 19q-10 1 -12 23q-1 8 1.5 12.5t7.5 3.5q3 0 8 -3z" />
    <glyph glyph-name="oslash" unicode="&#xf8;" horiz-adv-x="133" 
d="M71 316l-2 4q-5 -18 -9 -40q-18 -52 -9 -61q9 -8 19.5 5t11.5 28q3 44 -11 64zM73 336q54 -31 55 -72q2 -29 -23 -49q-24 -20 -53 -15q-22 4 -33 31t-5 58q14 66 52 78q14 5 15 -9q1 -6 -3 -7q-2 0 -5 -15z" />
    <glyph glyph-name="ugrave" unicode="&#xf9;" horiz-adv-x="186" 
d="M79 403q-43 47 -48 99q-1 4 11 8t23.5 3.5t11.5 -7.5q-2 -52 15 -81q5 -8 -2 -21q-4 -8 -11 -1zM139 353q0 -53 4 -86q3 -5 2 -10v-1q8 -50 22 -76l4 -4q15 -18 8 -17q-1 0 -5 2q-27 10 -46 34q-8 -11 -15 -12q-23 -7 -46.5 5.5t-33.5 34.5q-17 41 -30 129q-1 10 24 18
q24 8 24 -4q5 -57 14 -95q3 -13 10 -36.5t8 -26.5q1 1 1 2q2 18 6 34q1 3 7 11q-15 45 -16 96q-1 4 14 7.5t30 2.5t14 -8z" />
    <glyph glyph-name="uacute" unicode="&#xfa;" horiz-adv-x="186" 
d="M61 429q22 26 40 57q4 3 14.5 2.5t20 -6t5.5 -11.5q-14 -24 -48 -61q-6 -6 -24 4q-15 8 -8 15zM139 353q0 -53 4 -86q3 -5 2 -10v-1q8 -50 22 -76l4 -4q15 -18 8 -17q-1 0 -5 2q-27 10 -46 34q-8 -11 -15 -12q-23 -7 -46.5 5.5t-33.5 34.5q-17 41 -30 129q-1 10 24 18
q24 8 24 -4q5 -57 14 -95q3 -13 10 -36.5t8 -26.5q1 1 1 2q2 18 6 34q1 3 7 11q-15 45 -16 96q-1 4 14 7.5t30 2.5t14 -8z" />
    <glyph glyph-name="ucircumflex" unicode="&#xfb;" horiz-adv-x="186" 
d="M93 472q16 -49 35 -71q6 -7 3 -16q-2 -7 -8 -2q-34 18 -54 50q-21 -21 -26 -25q-1 -2 -10 1.5t-15.5 9.5t-2.5 11q30 30 45 48q2 2 18 -5q12 7 15 -1zM139 353q0 -53 4 -86q3 -5 2 -10v-1q8 -50 22 -76l4 -4q15 -18 8 -17q-1 0 -5 2q-27 10 -46 34q-8 -11 -15 -12
q-23 -7 -46.5 5.5t-33.5 34.5q-17 41 -30 129q-1 10 24 18q24 8 24 -4q5 -57 14 -95q3 -13 10 -36.5t8 -26.5q1 1 1 2q2 18 6 34q1 3 7 11q-15 45 -16 96q-1 4 14 7.5t30 2.5t14 -8z" />
    <glyph glyph-name="udieresis" unicode="&#xfc;" horiz-adv-x="186" 
d="M117 443l3 -24q0 -3 -21 -9t-22 2l-3 24q0 3 21 9t22 -2zM61 449q-2 -10 -4 -15t-2 -7q2 -3 -14 -14q-13 -11 -18 -3q-13 21 -8 44q0 2 12 3.5t23.5 0t10.5 -8.5zM139 353q0 -53 4 -86q3 -5 2 -10v-1q8 -50 22 -76l4 -4q15 -18 8 -17q-1 0 -5 2q-27 10 -46 34
q-8 -11 -15 -12q-23 -7 -46.5 5.5t-33.5 34.5q-17 41 -30 129q-1 10 24 18q24 8 24 -4q5 -57 14 -95q3 -13 10 -36.5t8 -26.5q1 1 1 2q2 18 6 34q1 3 7 11q-15 45 -16 96q-1 4 14 7.5t30 2.5t14 -8z" />
    <glyph glyph-name="yacute" unicode="&#xfd;" horiz-adv-x="153" 
d="M62 430q19 18 43 47q9 4 27 -5q13 -6 6 -14q-15 -18 -49 -49q-6 -5 -23 6q-12 7 -4 15zM47 381q-1 -37 7 -86q8 -39 15.5 -56t17.5 -15q4 83 12 142q2 18 27 22q22 4 22 -9v-3q-7 -57 -12 -134q14 -4 6 -15q-2 -4 -8 -10q-13 -204 -13 -217q-1 -16 -25 -23q-22 -6 -24 8
v3q7 63 14 205q-13 -1 -23 3q-30 12 -45 65q-14 52 -17 112q-1 5 5.5 8.5t19.5 5.5q22 5 21 -6z" />
    <glyph glyph-name="thorn" unicode="&#xfe;" horiz-adv-x="206" 
d="M77 384q52 22 87 -14q42 -44 37 -110q-3 -33 -19 -60t-40 -38q-40 -19 -79 6q-1 -30 -2 -91.5t-2 -92.5q0 -29 -25 -43q-18 -11 -21 6v4q0 360 38 645q3 27 30 38q19 7 22 -6v-7q-14 -98 -26 -237zM67 242q5 -1 7 -10q1 -31 10.5 -49.5t23.5 -12.5q29 14 44 76
q10 40 -3 78q-11 33 -26.5 44t-28.5 -4q-9 -9 -20 -10q-3 -39 -7 -112z" />
    <glyph glyph-name="ydieresis" unicode="&#xff;" horiz-adv-x="153" 
d="M125 459q0 -21 -1 -32q0 -3 -23 -5.5t-23 5.5l1 33q0 1 12 3.5t23.5 2t10.5 -6.5zM64 458l2 -29q0 -1 -10.5 -4.5t-20.5 -4.5t-13 4l-2 29q0 2 10.5 5t20.5 4t13 -4zM47 381q-1 -37 7 -86q8 -39 15.5 -56t17.5 -15q4 83 12 142q2 18 27 22q22 4 22 -9v-3q-7 -57 -12 -134
q14 -4 6 -15q-2 -4 -8 -10q-13 -204 -13 -217q-1 -16 -25 -23q-22 -6 -24 8v3q7 63 14 205q-13 -1 -23 3q-30 12 -45 65q-14 52 -17 112q-1 5 5.5 8.5t19.5 5.5q22 5 21 -6z" />
    <glyph glyph-name="quoteleft" unicode="&#x2018;" horiz-adv-x="147" 
d="M28 421q27 90 75 169q5 3 15.5 3t19 -5.5t4.5 -12.5q-40 -66 -67 -157q-4 -9 -29 -9q-19 2 -18 12z" />
    <glyph glyph-name="quoteright" unicode="&#x2019;" horiz-adv-x="159" 
d="M114 434q-14 61 -46 132q-4 7 13 21q14 11 18 1l17 -41q34 -82 38 -96q3 -7 -18 -18q-19 -10 -22 1z" />
    <glyph glyph-name="quotedblleft" unicode="&#x201c;" horiz-adv-x="230" 
d="M167 414q-11 94 15 168q1 5 12.5 5t22 -4.5t8.5 -11.5q-21 -57 -16 -142q1 -8 -18.5 -17t-23.5 2zM102 413q-26 113 5 176q5 5 20 -2t11 -17q-16 -40 2 -140q2 -7 -17 -17.5t-21 0.5z" />
    <glyph glyph-name="quotedblright" unicode="&#x201d;" 
d="M205 527q7 -99 -17 -183q-2 -6 -14 -7.5t-22.5 2.5t-8.5 12l6 21q-7 -4 -16.5 -5t-16 1.5t-5.5 8.5q13 111 4 187q-1 10 18 21q18 11 21 -2q7 -38 8 -69q4 10 22 17t21 -4z" />
    <glyph glyph-name="Euro" unicode="&#x20ac;" horiz-adv-x="270" 
d="M244 488q-68 -67 -89 -150q-1 -2 -1 -7l25 8q8 3 17 -7q6 -8 -3 -11l-43 -13q-4 -20 -4 -49l55 17q8 2 17 -7q7 -7 -3 -10q-39 -11 -68 -21q0 -11 1 -18q5 -47 16 -74q10 -22 25 -28.5t30 4.5q15 13 38 7q19 -5 3 -16q-22 -17 -51 -19.5t-47 8.5q-37 21 -51 77
q-4 14 -8 46l-35 -12q-9 -3 -18 6q-8 8 3 11l48 15q-2 30 1 52q-29 -6 -55 -9q-8 -2 -14 8q-4 7 5 7q22 4 66 14q1 1 1 5q19 110 97 173q23 18 44 9q13 -8 -2 -16z" />
    <glyph glyph-name="uniF8FE" unicode="&#xf8fe;" horiz-adv-x="300" 
 />
    <glyph glyph-name="NULL" horiz-adv-x="0" 
 />
    <glyph glyph-name="CR" horiz-adv-x="333" 
 />
    </font>
</defs>
</svg>
